<svg xmlns="http://www.w3.org/2000/svg" width="257.44" height="179.98">
  <path fill="#69a6da" d="M0 179.97h257.44V0H0v179.97z"/>
  <path fill="#fff" d="M0 120.14h257.44V59.92H0v60.22z"/>
  <path fill="#f8b12d" d="M130.42 98.27c-.12 3.4 1.97 5.28 1.7 8.33-.27 3.04 1.4 4.76 1.8 5.94.37 1.18-.43 1.9-.1 2.06.36.17 1.12-.77.87-2.45-.3-1.68-1.6-2.18-1.3-5.9.3-3.7-1.5-4.58-1.1-7.97m-4-7.78l10.2 22.4s.1.43.4.3c.3-.1.1-.53.1-.53l-8.6-23.1"/>
  <path fill="none" stroke="#7e3519" stroke-width=".13" stroke-miterlimit="10" d="M130.42 98.27c-.12 3.4 1.97 5.28 1.7 8.33-.27 3.04 1.4 4.76 1.8 5.94.37 1.18-.43 1.9-.1 2.06.36.17 1.12-.77.87-2.45-.3-1.68-1.6-2.18-1.3-5.9.3-3.7-1.5-4.58-1.1-7.97m-4-7.78l10.2 22.4s.1.43.4.3c.3-.1.1-.53.1-.53l-8.6-23.1"/>
  <path fill="#f8b12d" d="M127.2 98c-1.42 3.1-.2 5.62-1.62 8.33-1.4 2.7-.53 4.93-.62 6.17-.1 1.24-1.1 1.6-.86 1.88.26.3 1.32-.3 1.73-1.94.42-1.64-.57-2.6 1.13-5.9 1.7-3.33.35-4.83 2.06-7.8m-.73-8.7l.9 24.62s0 .46.3.46.3-.46.3-.46l.9-24.63"/>
  <path fill="none" stroke="#7e3519" stroke-width=".13" stroke-miterlimit="10" d="M127.2 98c-1.42 3.1-.2 5.62-1.62 8.33-1.4 2.7-.53 4.93-.62 6.17-.1 1.24-1.1 1.6-.86 1.88.26.3 1.32-.3 1.73-1.94.42-1.64-.57-2.6 1.13-5.9 1.7-3.33.35-4.83 2.06-7.8m-.73-8.7l.9 24.62s0 .46.3.46.3-.46.3-.46l.9-24.63"/>
  <path fill="#f8b12d" d="M124.33 96.5c-2.5 2.3-2.34 5.12-4.68 7.08-2.35 1.95-2.38 4.35-2.94 5.46-.5 1.1-1.6 1.04-1.5 1.4.2.37 1.4.25 2.4-1.1 1-1.38.5-2.64 3.3-5.05 2.9-2.5 2.2-4.4 4.9-6.4m2.7-8.4l-8.5 23.1s-.2.4.1.5c.3.1.5-.3.5-.3l10.3-22.4"/>
  <path fill="none" stroke="#7e3519" stroke-width=".13" stroke-miterlimit="10" d="M124.33 96.5c-2.5 2.3-2.34 5.12-4.68 7.08-2.35 1.95-2.38 4.35-2.94 5.46-.5 1.1-1.6 1.04-1.5 1.4.2.37 1.4.25 2.4-1.1 1-1.38.5-2.64 3.3-5.05 2.9-2.5 2.2-4.4 4.9-6.4m2.7-8.4l-8.5 23.1s-.2.4.1.5c.3.1.5-.3.5-.3l10.3-22.4"/>
  <path fill="#f8b12d" d="M122.25 94c-3.2 1.2-4.12 3.85-7.03 4.76-2.92.92-3.87 3.12-4.8 3.93-.96.8-1.92.3-1.94.7-.02.4 1.13.7 2.6-.2 1.45-.9 1.42-2.3 4.97-3.4 3.54-1.2 3.65-3.2 6.95-4.1m5.65-6.7l-16.75 18.1s-.35.3-.14.5c.22.2.55-.1.55-.1l18.1-16.8"/>
  <path fill="none" stroke="#7e3519" stroke-width=".13" stroke-miterlimit="10" d="M122.25 94c-3.2 1.2-4.12 3.85-7.03 4.76-2.92.92-3.87 3.12-4.8 3.93-.96.8-1.92.3-1.94.7-.02.4 1.13.7 2.6-.2 1.45-.9 1.42-2.3 4.97-3.4 3.54-1.2 3.65-3.2 6.95-4.1m5.65-6.7l-16.75 18.1s-.35.3-.14.5c.22.2.55-.1.55-.1l18.1-16.8"/>
  <path fill="#7f3619" d="M128.96 90.3l7.04 15.38-5.9-15.85m1 9.02c.15 3.27 2 4.72 1.64 7.7.8-2.36-1.13-4.18-1.02-7.67"/>
  <path fill="none" stroke="#7e3519" stroke-width=".13" stroke-miterlimit="10" d="M128.96 90.3l7.04 15.38-5.9-15.85m1 9.02c.15 3.27 2 4.72 1.64 7.7.8-2.36-1.13-4.18-1.02-7.67"/>
  <path fill="#7f3619" d="M128.9 90.06l.62 16.9.6-16.9m-2.53 8.72c-1.1 3.08 0 5.13-1.5 7.74 1.6-1.87.5-4.3 2-7.47"/>
  <path fill="none" stroke="#7e3519" stroke-width=".13" stroke-miterlimit="10" d="M128.9 90.06l.62 16.9.6-16.9m-2.53 8.72c-1.1 3.08 0 5.13-1.5 7.74 1.6-1.87.5-4.3 2-7.47"/>
  <path fill="#7f3619" d="M128.93 89.82l-5.9 15.85 7.04-15.38m-5.68 7c-2.2 2.4-2 4.7-4.3 6.6 2.2-1.1 2.1-3.8 4.7-6.2"/>
  <path fill="none" stroke="#7e3519" stroke-width=".13" stroke-miterlimit="10" d="M128.93 89.82l-5.9 15.85 7.04-15.38m-5.68 7c-2.2 2.4-2 4.7-4.3 6.6 2.2-1.1 2.1-3.8 4.7-6.2"/>
  <path fill="#7f3619" d="M129.06 89.6L117.54 102l12.4-11.52m-7.96 4.37c-2.96 1.4-3.6 3.67-6.5 4.47 2.5-.16 3.45-2.65 6.7-3.88"/>
  <path fill="none" stroke="#7e3519" stroke-width=".13" stroke-miterlimit="10" d="M129.06 89.6L117.54 102l12.4-11.52m-7.96 4.37c-2.96 1.4-3.6 3.67-6.5 4.47 2.5-.16 3.45-2.65 6.7-3.88"/>
  <path fill="#f8b12d" d="M121.3 90.93c-3.42-.13-5.3 1.97-8.34 1.7-3.04-.28-4.76 1.4-5.94 1.78-1.2.4-1.9-.4-2.06 0-.17.4.77 1.1 2.45.9 1.7-.2 2.2-1.5 5.9-1.2 3.8.3 4.6-1.5 8-1m7.8-4l-22.4 10.2s-.4.2-.3.5c.1.3.6.1.6.1l23-8.6"/>
  <path fill="none" stroke="#7e3519" stroke-width=".13" stroke-miterlimit="10" d="M121.3 90.93c-3.42-.13-5.3 1.97-8.34 1.7-3.04-.28-4.76 1.4-5.94 1.78-1.2.4-1.9-.4-2.06 0-.17.4.77 1.1 2.45.9 1.7-.2 2.2-1.5 5.9-1.2 3.8.3 4.6-1.5 8-1m7.8-4l-22.4 10.2s-.4.2-.3.5c.1.3.6.1.6.1l23-8.6"/>
  <path fill="#f8b12d" d="M121.57 87.7c-3.1-1.42-5.63-.2-8.34-1.6-2.7-1.43-4.93-.55-6.17-.64-1.24-.1-1.6-1.1-1.88-.86-.3.26.3 1.32 1.93 1.74 1.7.4 2.6-.58 6 1.12 3.3 1.7 4.8.35 7.8 2.06m8.8-.73l-24.6.9s-.4 0-.4.3.48.3.48.3l24.6.9"/>
  <path fill="none" stroke="#7e3519" stroke-width=".13" stroke-miterlimit="10" d="M121.57 87.7c-3.1-1.42-5.63-.2-8.34-1.6-2.7-1.43-4.93-.55-6.17-.64-1.24-.1-1.6-1.1-1.88-.86-.3.26.3 1.32 1.93 1.74 1.7.4 2.6-.58 6 1.12 3.3 1.7 4.8.35 7.8 2.06m8.8-.73l-24.6.9s-.4 0-.4.3.48.3.48.3l24.6.9"/>
  <path fill="#f8b12d" d="M123.07 84.83c-2.32-2.5-5.13-2.34-7.1-4.68-1.95-2.34-4.34-2.38-5.45-2.94-1.1-.5-1.04-1.6-1.4-1.5-.37.2-.25 1.4 1.1 2.4 1.38 1 2.63.5 5.05 3.3 2.4 2.9 4.3 2.2 6.4 4.9m8.33 2.6l-23.1-8.5s-.44-.2-.55.1c-.12.3.3.5.3.5l22.4 10.2"/>
  <path fill="none" stroke="#7e3519" stroke-width=".13" stroke-miterlimit="10" d="M123.07 84.83c-2.32-2.5-5.13-2.34-7.1-4.68-1.95-2.34-4.34-2.38-5.45-2.94-1.1-.5-1.04-1.6-1.4-1.5-.37.2-.25 1.4 1.1 2.4 1.38 1 2.63.5 5.05 3.3 2.4 2.9 4.3 2.2 6.4 4.9m8.33 2.6l-23.1-8.5s-.44-.2-.55.1c-.12.3.3.5.3.5l22.4 10.2"/>
  <path fill="#f8b12d" d="M125.55 82.76c-1.2-3.2-3.84-4.13-4.76-7.04-1-2.92-3.2-3.87-4-4.8-.8-.96-.4-1.92-.7-1.94-.4-.02-.8 1.13.1 2.6.8 1.45 2.2 1.42 3.4 4.97s3.1 3.65 4 6.95m6.6 5.66l-18-16.76s-.4-.33-.6-.1c-.3.2.1.53.1.53l16.7 18.07"/>
  <path fill="none" stroke="#7e3519" stroke-width=".13" stroke-miterlimit="10" d="M125.55 82.76c-1.2-3.2-3.84-4.13-4.76-7.04-1-2.92-3.2-3.87-4-4.8-.8-.96-.4-1.92-.7-1.94-.4-.02-.8 1.13.1 2.6.8 1.45 2.2 1.42 3.4 4.97s3.1 3.65 4 6.95m6.6 5.66l-18-16.76s-.4-.33-.6-.1c-.3.2.1.53.1.53l16.7 18.07"/>
  <path fill="#7f3619" d="M129.26 89.46l-15.4 7.04 15.87-5.9m-9.02 1c-3.2.15-4.7 2-7.7 1.64 2.4.8 4.2-1.13 7.7-1.02"/>
  <path fill="none" stroke="#7e3519" stroke-width=".13" stroke-miterlimit="10" d="M129.26 89.46l-15.4 7.04 15.87-5.9m-9.02 1c-3.2.15-4.7 2-7.7 1.64 2.4.8 4.2-1.13 7.7-1.02"/>
  <path fill="#7f3619" d="M129.5 89.4l-16.9.62 16.9.6m-8.72-2.53c-3.08-1.1-5.13 0-7.74-1.5 1.87 1.6 4.3.5 7.47 2"/>
  <path fill="none" stroke="#7e3519" stroke-width=".13" stroke-miterlimit="10" d="M129.5 89.4l-16.9.62 16.9.6m-8.72-2.53c-3.08-1.1-5.13 0-7.74-1.5 1.87 1.6 4.3.5 7.47 2"/>
  <path fill="#7f3619" d="M129.74 89.44l-15.86-5.9 15.4 7.04m-7.1-5.7c-2.42-2.18-4.76-1.9-6.6-4.26 1.1 2.23 3.75 2.16 6.14 4.7"/>
  <path fill="none" stroke="#7e3519" stroke-width=".13" stroke-miterlimit="10" d="M129.74 89.44l-15.86-5.9 15.4 7.04m-7.1-5.7c-2.42-2.18-4.76-1.9-6.6-4.26 1.1 2.23 3.75 2.16 6.14 4.7"/>
  <path fill="#7f3619" d="M129.95 89.56l-12.4-11.52 11.53 12.4m-4.37-7.96c-1.4-2.96-3.6-3.6-4.4-6.48.2 2.48 2.7 3.43 3.9 6.7"/>
  <path fill="none" stroke="#7e3519" stroke-width=".13" stroke-miterlimit="10" d="M129.95 89.56l-12.4-11.52 11.53 12.4m-4.37-7.96c-1.4-2.96-3.6-3.6-4.4-6.48.2 2.48 2.7 3.43 3.9 6.7"/>
  <path fill="#f8b12d" d="M128.63 81.8c.13-3.42-1.97-5.3-1.7-8.33.28-3.05-1.4-4.77-1.78-5.95-.4-1.18.42-1.9.07-2.06-.34-.17-1.1.77-.86 2.45.25 1.7 1.53 2.2 1.23 5.9-.3 3.8 1.5 4.6 1 8m4 7.8l-10.3-22.4s-.2-.4-.5-.3c-.3.1-.1.6-.1.6l8.5 23.1"/>
  <path fill="none" stroke="#7e3519" stroke-width=".13" stroke-miterlimit="10" d="M128.63 81.8c.13-3.42-1.97-5.3-1.7-8.33.28-3.05-1.4-4.77-1.78-5.95-.4-1.18.42-1.9.07-2.06-.34-.17-1.1.77-.86 2.45.25 1.7 1.53 2.2 1.23 5.9-.3 3.8 1.5 4.6 1 8m4 7.8l-10.3-22.4s-.2-.4-.5-.3c-.3.1-.1.6-.1.6l8.5 23.1"/>
  <path fill="#f8b12d" d="M131.85 82.07c1.42-3.1.2-5.63 1.62-8.34 1.42-2.7.53-4.93.63-6.17.1-1.24 1.1-1.6.85-1.88-.25-.28-1.32.3-1.73 1.94-.4 1.64.57 2.6-1.13 5.9-1.7 3.33-.4 4.83-2.1 7.8m.7 8.7l-.9-24.62s0-.46-.3-.46-.3.46-.3.46l-1 24.63"/>
  <path fill="none" stroke="#7e3519" stroke-width=".13" stroke-miterlimit="10" d="M131.85 82.07c1.42-3.1.2-5.63 1.62-8.34 1.42-2.7.53-4.93.63-6.17.1-1.24 1.1-1.6.85-1.88-.25-.28-1.32.3-1.73 1.94-.4 1.64.57 2.6-1.13 5.9-1.7 3.33-.4 4.83-2.1 7.8m.7 8.7l-.9-24.62s0-.46-.3-.46-.3.46-.3.46l-1 24.63"/>
  <path fill="#f8b12d" d="M134.72 83.57c2.5-2.32 2.34-5.13 4.7-7.08 2.33-2 2.37-4.4 2.93-5.5.56-1.1 1.63-1.1 1.5-1.4-.12-.4-1.32-.3-2.33 1.1-1.02 1.3-.47 2.6-3.3 5-2.85 2.4-2.17 4.3-4.88 6.4m-2.67 8.3l8.57-23.1s.18-.5-.1-.6c-.3-.1-.47.3-.47.3L128.4 89.5"/>
  <path fill="none" stroke="#7e3519" stroke-width=".13" stroke-miterlimit="10" d="M134.72 83.57c2.5-2.32 2.34-5.13 4.7-7.08 2.33-2 2.37-4.4 2.93-5.5.56-1.1 1.63-1.1 1.5-1.4-.12-.4-1.32-.3-2.33 1.1-1.02 1.3-.47 2.6-3.3 5-2.85 2.4-2.17 4.3-4.88 6.4m-2.67 8.3l8.57-23.1s.18-.5-.1-.6c-.3-.1-.47.3-.47.3L128.4 89.5"/>
  <path fill="#f8b12d" d="M136.8 86.05c3.2-1.2 4.13-3.84 7.04-4.75 2.92-.9 3.87-3.12 4.8-3.93.96-.8 1.92-.33 1.94-.72.02-.4-1.13-.73-2.6.14-1.45.8-1.42 2.2-4.97 3.3-3.5 1.1-3.6 3.1-6.9 4m-5.6 6.6l16.7-18s.4-.4.1-.6c-.2-.25-.5.1-.5.1L128.7 89"/>
  <path fill="none" stroke="#7e3519" stroke-width=".13" stroke-miterlimit="10" d="M136.8 86.05c3.2-1.2 4.13-3.84 7.04-4.75 2.92-.9 3.87-3.12 4.8-3.93.96-.8 1.92-.33 1.94-.72.02-.4-1.13-.73-2.6.14-1.45.8-1.42 2.2-4.97 3.3-3.5 1.1-3.6 3.1-6.9 4m-5.6 6.6l16.7-18s.4-.4.1-.6c-.2-.25-.5.1-.5.1L128.7 89"/>
  <path fill="#7f3619" d="M130.1 89.76l-7.04-15.38 5.9 15.85m-1-9.02c-.15-3.2-2-4.7-1.64-7.7-.8 2.4 1.12 4.2 1 7.7"/>
  <path fill="none" stroke="#7e3519" stroke-width=".13" stroke-miterlimit="10" d="M130.1 89.76l-7.04-15.38 5.9 15.85m-1-9.02c-.15-3.2-2-4.7-1.64-7.7-.8 2.4 1.12 4.2 1 7.7"/>
  <path fill="#7f3619" d="M130.16 90l-.62-16.9-.62 16.9m2.54-8.7c1.1-3.1-.05-5.15 1.42-7.76-1.64 1.87-.56 4.3-2 7.47"/>
  <path fill="none" stroke="#7e3519" stroke-width=".13" stroke-miterlimit="10" d="M130.16 90l-.62-16.9-.62 16.9m2.54-8.7c1.1-3.1-.05-5.15 1.42-7.76-1.64 1.87-.56 4.3-2 7.47"/>
  <path fill="#7f3619" d="M130.12 90.24l5.9-15.85-7.04 15.3m5.68-7.1c2.2-2.5 1.9-4.8 4.28-6.6-2.23 1.1-2.16 3.7-4.7 6.1"/>
  <path fill="none" stroke="#7e3519" stroke-width=".13" stroke-miterlimit="10" d="M130.12 90.24l5.9-15.85-7.04 15.3m5.68-7.1c2.2-2.5 1.9-4.8 4.28-6.6-2.23 1.1-2.16 3.7-4.7 6.1"/>
  <path fill="#7f3619" d="M130 90.45l11.5-12.4-12.38 11.53m7.96-4.36c2.96-1.4 3.6-3.67 6.48-4.48-2.48.16-3.43 2.64-6.7 3.88"/>
  <path fill="none" stroke="#7e3519" stroke-width=".13" stroke-miterlimit="10" d="M130 90.45l11.5-12.4-12.38 11.53m7.96-4.36c2.96-1.4 3.6-3.67 6.48-4.48-2.48.16-3.43 2.64-6.7 3.88"/>
  <path fill="#f8b12d" d="M137.77 89.13c3.4.13 5.28-1.96 8.32-1.7 3 .28 4.7-1.4 5.9-1.78 1.2-.38 1.9.42 2 .08.1-.35-.8-1.1-2.5-.87-1.7.25-2.2 1.53-5.9 1.23-3.7-.3-4.6 1.5-8 1m-7.8 4l22.4-10.3s.4-.2.3-.5c-.1-.3-.6-.1-.6-.1l-23 8.6"/>
  <path fill="none" stroke="#7e3519" stroke-width=".13" stroke-miterlimit="10" d="M137.77 89.13c3.4.13 5.28-1.96 8.32-1.7 3 .28 4.7-1.4 5.9-1.78 1.2-.38 1.9.42 2 .08.1-.35-.8-1.1-2.5-.87-1.7.25-2.2 1.53-5.9 1.23-3.7-.3-4.6 1.5-8 1m-7.8 4l22.4-10.3s.4-.2.3-.5c-.1-.3-.6-.1-.6-.1l-23 8.6"/>
  <path fill="#f8b12d" d="M137.5 92.36c3.1 1.42 5.62.2 8.32 1.6 2.7 1.43 4.94.55 6.18.64 1.24.1 1.6 1.1 1.87.86.3-.26-.28-1.32-1.93-1.74-1.65-.4-2.6.58-5.9-1.12-3.33-1.7-4.83-.35-7.8-2.06m-8.7.73l24.62-.93s.46 0 .46-.3c0-.32-.46-.32-.46-.32l-24.63-.92"/>
  <path fill="none" stroke="#7e3519" stroke-width=".13" stroke-miterlimit="10" d="M137.5 92.36c3.1 1.42 5.62.2 8.32 1.6 2.7 1.43 4.94.55 6.18.64 1.24.1 1.6 1.1 1.87.86.3-.26-.28-1.32-1.93-1.74-1.65-.4-2.6.58-5.9-1.12-3.33-1.7-4.83-.35-7.8-2.06m-8.7.73l24.62-.93s.46 0 .46-.3c0-.32-.46-.32-.46-.32l-24.63-.92"/>
  <path fill="#f8b12d" d="M136 95.23c2.3 2.5 5.12 2.34 7.07 4.68 1.96 2.4 4.36 2.4 5.47 3 1.1.6 1.04 1.7 1.4 1.5.37-.1.25-1.3-1.12-2.3-1.36-1-2.62-.4-5.03-3.3-2.5-2.8-4.4-2.1-6.4-4.9m-8.4-2.7l23.1 8.6s.4.2.5-.1c.1-.3-.3-.4-.3-.4L130 88.9"/>
  <path fill="none" stroke="#7e3519" stroke-width=".13" stroke-miterlimit="10" d="M136 95.23c2.3 2.5 5.12 2.34 7.07 4.68 1.96 2.4 4.36 2.4 5.47 3 1.1.6 1.04 1.7 1.4 1.5.37-.1.25-1.3-1.12-2.3-1.36-1-2.62-.4-5.03-3.3-2.5-2.8-4.4-2.1-6.4-4.9m-8.4-2.7l23.1 8.6s.4.2.5-.1c.1-.3-.3-.4-.3-.4L130 88.9"/>
  <path fill="#f8b12d" d="M133.5 97.3c1.2 3.2 3.85 4.13 4.76 7.04.9 2.92 3.1 3.87 3.92 4.8.82.96.34 1.92.73 1.94.4.02.8-1.13-.1-2.6-.9-1.45-2.2-1.42-3.4-4.97-1.1-3.5-3.1-3.6-4-6.9m-6.7-5.6l18.1 16.8s.4.4.6.1c.2-.2-.1-.5-.1-.5l-16.8-18.1"/>
  <path fill="none" stroke="#7e3519" stroke-width=".13" stroke-miterlimit="10" d="M133.5 97.3c1.2 3.2 3.85 4.13 4.76 7.04.9 2.92 3.1 3.87 3.92 4.8.82.96.34 1.92.73 1.94.4.02.8-1.13-.1-2.6-.9-1.45-2.2-1.42-3.4-4.97-1.1-3.5-3.1-3.6-4-6.9m-6.7-5.6l18.1 16.8s.4.4.6.1c.2-.2-.1-.5-.1-.5l-16.8-18.1"/>
  <path fill="#7f3619" d="M129.8 90.6l15.38-7.04-15.86 5.9m9.03-1c3.27-.15 4.72-2 7.7-1.64-2.36-.8-4.2 1.13-7.67 1.02"/>
  <path fill="none" stroke="#7e3519" stroke-width=".13" stroke-miterlimit="10" d="M129.8 90.6l15.38-7.04-15.86 5.9m9.03-1c3.27-.15 4.72-2 7.7-1.64-2.36-.8-4.2 1.13-7.67 1.02"/>
  <path fill="#7f3619" d="M129.56 90.66l16.9-.62-16.9-.6m8.7 2.53c3.1 1.1 5.15-.06 7.76 1.42-1.87-1.7-4.3-.6-7.47-2"/>
  <path fill="none" stroke="#7e3519" stroke-width=".13" stroke-miterlimit="10" d="M129.56 90.66l16.9-.62-16.9-.6m8.7 2.53c3.1 1.1 5.15-.06 7.76 1.42-1.87-1.7-4.3-.6-7.47-2"/>
  <path fill="#7f3619" d="M129.3 90.62l15.87 5.9-15.38-7.04m7 5.7c2.4 2.18 4.7 1.9 6.6 4.26-1.1-2.23-3.8-2.16-6.2-4.7"/>
  <path fill="none" stroke="#7e3519" stroke-width=".13" stroke-miterlimit="10" d="M129.3 90.62l15.87 5.9-15.38-7.04m7 5.7c2.4 2.18 4.7 1.9 6.6 4.26-1.1-2.23-3.8-2.16-6.2-4.7"/>
  <path fill="#7f3619" d="M129.1 90.5l12.4 11.52-11.52-12.4m4.36 7.96c1.4 2.96 3.67 3.6 4.48 6.48-.17-2.48-2.65-3.43-3.88-6.7"/>
  <path fill="none" stroke="#7e3519" stroke-width=".13" stroke-miterlimit="10" d="M129.1 90.5l12.4 11.52-11.52-12.4m4.36 7.96c1.4 2.96 3.67 3.6 4.48 6.48-.17-2.48-2.65-3.43-3.88-6.7"/>
  <path fill="#f8b12d" d="M129.53 80c5.54 0 10.03 4.5 10.03 10.03 0 5.54-4.5 10.04-10.03 10.04-5.55 0-10.04-4.5-10.04-10.04 0-5.54 4.4-10.04 10-10.04"/>
  <path fill="none" stroke="#7e3519" stroke-width=".13" stroke-miterlimit="10" d="M129.53 80c5.54 0 10.03 4.5 10.03 10.03 0 5.54-4.5 10.04-10.03 10.04-5.55 0-10.04-4.5-10.04-10.04 0-5.54 4.4-10.04 10-10.04z"/>
  <path fill="#7e3619" d="M132.94 88.04c.67 0 1.3.3 1.38.6-.78.85-2 .78-2.78.16.34-.54.88-.75 1.4-.76zm0-.16c-.68 0-1.33.3-1.72.92.77.7 2.48.77 3.64-.08-.5-.54-1.23-.84-1.9-.84"/>
  <path fill="none" stroke="#7e3519" stroke-width=".13" stroke-miterlimit="10" d="M132.94 88.04c.67 0 1.3.3 1.38.6-.78.85-2 .78-2.78.16.34-.54.88-.75 1.4-.76zm0-.16c-.68 0-1.33.3-1.72.92.77.7 2.48.77 3.64-.08-.5-.54-1.23-.84-1.9-.84z"/>
  <path fill="#7f3619" d="M133.08 87.4c-1 0-1.24.24-1.7.62-.46.4-.7.3-.77.4 0 .07 0 .3.2.22.2-.08.5-.23 1-.62.5-.38 1-.38 1.4-.38 1.4 0 2.2 1.16 2.3 1.08.2-.08-.7-1.3-2.3-1.3"/>
  <path fill="none" stroke="#7e3519" stroke-width=".13" stroke-miterlimit="10" d="M133.08 87.4c-1 0-1.24.24-1.7.62-.46.4-.7.3-.77.4 0 .07 0 .3.2.22.2-.08.5-.23 1-.62.5-.38 1-.38 1.4-.38 1.4 0 2.2 1.16 2.3 1.08.2-.08-.7-1.3-2.3-1.3z"/>
  <path fill="#7f3619" d="M135.86 87.87c-1.78-1.54-4.02-1.78-5.25-.62-.3.4-.5.84-.5 1.3-.1.87.1 1.82.8 2.8 0 0-.2.07-.3.15-.6-1.17-.8-2.38-.6-3.52l.3-.88c1.7-1.4 4-1.55 5.7.77"/>
  <path fill="none" stroke="#7e3519" stroke-width=".13" stroke-miterlimit="10" d="M135.86 87.87c-1.78-1.54-4.02-1.78-5.25-.62-.3.4-.5.84-.5 1.3-.1.87.1 1.82.8 2.8 0 0-.2.07-.3.15-.6-1.17-.8-2.38-.6-3.52l.3-.88c1.7-1.4 4-1.55 5.7.77z"/>
  <path fill="#7f3619" d="M132.93 87.95c.38 0 .7.3.7.7 0 .37-.32.68-.7.68-.4 0-.7-.3-.7-.7 0-.37.3-.68.7-.68"/>
  <path fill="none" stroke="#7e3519" stroke-width=".13" stroke-miterlimit="10" d="M132.93 87.95c.38 0 .7.3.7.7 0 .37-.32.68-.7.68-.4 0-.7-.3-.7-.7 0-.37.3-.68.7-.68z"/>
  <path fill="#7f3619" d="M134.93 89.1c-1.3 1-2.62.93-3.4.47-.77-.46-.77-.62-.6-.62.14 0 .3.16.9.46.63.4 1.56.4 3.1-.3"/>
  <path fill="none" stroke="#7e3519" stroke-width=".13" stroke-miterlimit="10" d="M134.93 89.1c-1.3 1-2.62.93-3.4.47-.77-.46-.77-.62-.6-.62.14 0 .3.16.9.46.63.4 1.56.4 3.1-.3z"/>
  <path fill="#7f3619" d="M128 91.42c-.34.06-.57.35-.57.7 0 .37.3.68.7.68.22 0 .43-.1.56-.3.2.2.6.22.8.23h.1c.2 0 .5-.03.8-.23.1.2.3.3.5.3.4 0 .7-.3.7-.7 0-.33-.3-.62-.6-.68.2.06.3.24.3.44 0 .25-.2.46-.5.46s-.5-.2-.5-.44c-.1.15-.4.6-1 .62-.58-.02-.88-.47-.96-.62 0 .25-.2.44-.46.44s-.44-.2-.44-.46c0-.2.1-.38.3-.44"/>
  <path fill="none" stroke="#7e3519" stroke-width=".13" stroke-miterlimit="10" d="M128 91.42c-.34.06-.57.35-.57.7 0 .37.3.68.7.68.22 0 .43-.1.56-.3.2.2.6.22.8.23h.1c.2 0 .5-.03.8-.23.1.2.3.3.5.3.4 0 .7-.3.7-.7 0-.33-.3-.62-.6-.68.2.06.3.24.3.44 0 .25-.2.46-.5.46s-.5-.2-.5-.44c-.1.15-.4.6-1 .62-.58-.02-.88-.47-.96-.62 0 .25-.2.44-.46.44s-.44-.2-.44-.46c0-.2.1-.38.3-.44z"/>
  <path fill="#7f3619" d="M128.75 93.47c-.77 0-1.08.7-1.77 1.17.38-.16.7-.46 1.23-.77.6-.3 1 .07 1.4.07.3 0 .8-.38 1.3-.07.6.3.9.6 1.3.77-.7-.47-1-1.17-1.8-1.17-.1 0-.4.1-.7.24-.3-.1-.6-.2-.8-.2"/>
  <path fill="none" stroke="#7e3519" stroke-width=".13" stroke-miterlimit="10" d="M128.75 93.47c-.77 0-1.08.7-1.77 1.17.38-.16.7-.46 1.23-.77.6-.3 1 .07 1.4.07.3 0 .8-.38 1.3-.07.6.3.9.6 1.3.77-.7-.47-1-1.17-1.8-1.17-.1 0-.4.1-.7.24-.3-.1-.6-.2-.8-.2z"/>
  <path fill="#7f3619" d="M128.5 94.4c-.32 0-.72.06-1.3.24 1.4-.3 1.7.15 2.32.15.62 0 .93-.5 2.32-.2-1.54-.5-1.85-.2-2.3-.2-.3 0-.54-.1-1.05-.1"/>
  <path fill="none" stroke="#7e3519" stroke-width=".13" stroke-miterlimit="10" d="M128.5 94.4c-.32 0-.72.06-1.3.24 1.4-.3 1.7.15 2.32.15.62 0 .93-.5 2.32-.2-1.54-.5-1.85-.2-2.3-.2-.3 0-.54-.1-1.05-.1z"/>
  <path fill="#7f3619" d="M127.27 94.63h-.3c1.63.16.85 1.1 2.55 1.1 1.7 0 .94-.94 2.56-1.1-1.7-.15-1.16.85-2.55.85-1.32 0-.92-.87-2.26-.85"/>
  <path fill="none" stroke="#7e3519" stroke-width=".13" stroke-miterlimit="10" d="M127.27 94.63h-.3c1.63.16.85 1.1 2.55 1.1 1.7 0 .94-.94 2.56-1.1-1.7-.15-1.16.85-2.55.85-1.32 0-.92-.87-2.26-.85z"/>
  <path fill="#7f3619" d="M130.92 97.14c0-.77-.62-1.4-1.4-1.4-.76 0-1.38.63-1.38 1.4.15-.65.73-1.1 1.4-1.1.65 0 1.23.45 1.38 1.1"/>
  <path fill="none" stroke="#7e3519" stroke-width=".13" stroke-miterlimit="10" d="M130.92 97.14c0-.77-.62-1.4-1.4-1.4-.76 0-1.38.63-1.38 1.4.15-.65.73-1.1 1.4-1.1.65 0 1.23.45 1.38 1.1z"/>
  <path fill="#7f3619" d="M123.3 87.87c1.76-1.54 4-1.78 5.24-.62.3.4.5.84.57 1.3.2.87-.1 1.82-.8 2.8.1 0 .3.07.3.15.7-1.17.9-2.38.7-3.52 0-.3-.1-.6-.2-.88-1.7-1.4-4-1.55-5.7.77"/>
  <path fill="none" stroke="#7e3519" stroke-width=".13" stroke-miterlimit="10" d="M123.3 87.87c1.76-1.54 4-1.78 5.24-.62.3.4.5.84.57 1.3.2.87-.1 1.82-.8 2.8.1 0 .3.07.3.15.7-1.17.9-2.38.7-3.52 0-.3-.1-.6-.2-.88-1.7-1.4-4-1.55-5.7.77z"/>
  <path fill="#7f3619" d="M126.07 87.4c1 0 1.23.24 1.7.62.46.4.7.3.77.4.07.07 0 .3-.16.22-.15-.08-.46-.23-.92-.62-.47-.38-.93-.38-1.4-.38-1.38 0-2.16 1.16-2.3 1.08-.16-.08.76-1.3 2.3-1.3"/>
  <path fill="none" stroke="#7e3519" stroke-width=".13" stroke-miterlimit="10" d="M126.07 87.4c1 0 1.23.24 1.7.62.46.4.7.3.77.4.07.07 0 .3-.16.22-.15-.08-.46-.23-.92-.62-.47-.38-.93-.38-1.4-.38-1.38 0-2.16 1.16-2.3 1.08-.16-.08.76-1.3 2.3-1.3z"/>
  <path fill="#7e3619" d="M126 88.04c.67 0 1.3.3 1.4.6-.8.85-2.02.78-2.8.16.35-.54.9-.75 1.4-.76zm.02-.16c-.7 0-1.34.3-1.73.92.7.7 2.4.77 3.6-.08-.5-.54-1.3-.84-1.9-.84"/>
  <path fill="none" stroke="#7e3519" stroke-width=".13" stroke-miterlimit="10" d="M126 88.04c.67 0 1.3.3 1.4.6-.8.85-2.02.78-2.8.16.35-.54.9-.75 1.4-.76zm.02-.16c-.7 0-1.34.3-1.73.92.7.7 2.4.77 3.6-.08-.5-.54-1.3-.84-1.9-.84z"/>
  <path fill="#7f3619" d="M126.1 87.95c.4 0 .7.3.7.7 0 .37-.3.68-.7.68-.37 0-.68-.3-.68-.7 0-.37.3-.68.7-.68"/>
  <path fill="none" stroke="#7e3519" stroke-width=".13" stroke-miterlimit="10" d="M126.1 87.95c.4 0 .7.3.7.7 0 .37-.3.68-.7.68-.37 0-.68-.3-.68-.7 0-.37.3-.68.7-.68z"/>
  <path fill="#7f3619" d="M124.2 89.1c1.33 1 2.64.93 3.4.47.78-.46.78-.62.63-.62-.16 0-.3.16-.93.46-.62.4-1.54.4-3.1-.3"/>
  <path fill="none" stroke="#7e3519" stroke-width=".13" stroke-miterlimit="10" d="M124.2 89.1c1.33 1 2.64.93 3.4.47.78-.46.78-.62.63-.62-.16 0-.3.16-.93.46-.62.4-1.54.4-3.1-.3z"/>
</svg>
