<svg xmlns="http://www.w3.org/2000/svg" width="257.44" height="179.98">
  <path fill="#2db456" d="M0 179.97h257.13V0H0v179.97z"/>
  <path fill="none" stroke="#231f20" stroke-width=".3125" d="M0 180h257.13V0H0v180z"/>
  <path fill="#ffe152" d="M128.36 21.85L235.46 90l-106.7 67.7L21.67 90l106.7-68.15"/>
  <path fill="none" stroke="#231f20" stroke-width=".3125" d="M128.36 21.85L235.46 90l-106.7 67.7L21.67 90l106.7-68.15z"/>
  <path fill="#0093c1" d="M128.56 135c24.85 0 45-20.15 45-45 0-24.86-20.15-45-45-45s-45 20.14-45 45c0 24.85 20.15 45 45 45"/>
  <path fill="none" stroke="#231f20" stroke-width=".15625" d="M128.56 135c24.85 0 45-20.15 45-45 0-24.86-20.15-45-45-45s-45 20.14-45 45c0 24.85 20.15 45 45 45z"/>
  <path fill="#fff" d="M170.86 105.38c-22.63-21.76-53.5-32.5-85.1-29.3.7-2.17 1.7-4.6 2.84-6.77 29.96-3.1 62.6 9.4 84.16 29.18-.45 2.37-1.1 4.68-1.9 6.9"/>
  <path fill="none" stroke="#231f20" stroke-width=".15625" d="M170.86 105.38c-22.63-21.76-53.5-32.5-85.1-29.3.7-2.17 1.7-4.6 2.84-6.77 29.96-3.1 62.6 9.4 84.16 29.18-.45 2.37-1.1 4.68-1.9 6.9z"/>
  <path fill="#2db456" d="M97.3 71.97l1.5.03c.35 0 .64-.25.65-.64 0-.4-.3-.62-.72-.63l-1.42-.02v1.27l-.03.85-.03 1.84-1.12-.02.08-4.75 3.07.04c.77.02 1.22.7 1.2 1.38 0 .68-.63 1.12-.93 1.1.4.02.8.37.78.96l-.02 1.33h-1.08l.02-1.12c0-.58-.3-.73-.86-.74-.57 0-1.1-.02-1.1-.02v-.85M103.04 74c.35.03 1.35-.04 1.44-1.54.1-1.37-.85-1.54-1.2-1.57l-.92-.07-.2 3.12.88.06.3.87c-1.27-.1-2.27-.15-2.27-.15l.3-4.74c.57.03 1.4.1 2.1.13.68.06 2.2.32 2.06 2.38-.08 1.28-.9 2.47-2.18 2.4l-.3-.87M110.8 71.58l-2.76-.3-.1 1.04 2.46.28-.1.87-2.47-.28-.14 1.24 2.74.3-.08.77-3.88-.42.52-4.72 3.88.43-.08.78M113.15 75.9l-.4-3.73-.6 3.57-1.02-.17.78-4.68 1.6.25.36 3.75 1.54-3.44 1.6.27-.77 4.68-1.03-.16.6-3.57-1.6 3.4-1.05-.16M124.63 75.23l-1.7-.42-.16.65 1.53.4-.14.52-1.52-.38-.2.76 1.7.42-.12.47-2.4-.6.74-2.9 2.4.6-.13.48M130 77.34l.46-1.42 1.02.33c.43.15.75.5.6.92-.14.44-.58.67-1.07.5l-1-.33-.24.7 1.25.42c.95.3 1.8-.25 2.03-.97.27-.82-.17-1.64-1.06-1.93-1.3-.42-2.23-.74-2.23-.74l-1.5 4.5.98.34.54-1.63.23-.7M139.77 82.8c-.74-.32-1.03-1.15-.64-2.02.4-.9 1.14-1.25 1.92-.9.8.34 1.03 1.14.64 2.02-.43.93-1.2 1.2-1.93.9l-.32.7c1.37.6 2.6.12 3.18-1.2.57-1.3.1-2.54-1.26-3.14-1.37-.6-2.6-.1-3.18 1.2-.58 1.3-.1 2.55 1.25 3.15l.32-.7M147.17 83.6c0-.53-.23-.97-.74-1.23-.75-.37-1.52-.05-1.95.8-.42.84-.23 1.68.54 2.06.63.3 1.22.2 1.55-.34l-.98-.5.33-.66 1.8.9-1.1 2.16-.56-.3c.07-.13.14-.35.15-.5-.46.2-1 .2-1.58-.07-1.2-.53-1.7-1.97-1.06-3.22.64-1.25 1.88-1.66 3.2-1 1.03.52 1.6 1.52 1.2 2.3l-.8-.4M157.13 88.52l-2.34-1.47-.58.9 2.1 1.32-.45.74-2.1-1.32-.68 1.06 2.34 1.47-.4.67-3.32-2.08 2.53-4.03 3.3 2.08-.42.67M160 91.27c.26-.36.07-.78-.54-1.2-.6-.42-.86-.2-1 0-.1.18-.1.48.7 1.2.77.7 1.26 1.37.74 2.1-.5.75-1.4.87-2.58.05-1.18-.82-1.08-1.85-.77-2.35l.82.57c-.28.4 0 .88.53 1.25.53.36.95.3 1.14.04.2-.26 0-.68-.52-1.16-1.32-1.2-1.17-1.78-.87-2.22.3-.42 1.1-.93 2.33-.08 1.2.83 1.27 1.7.83 2.34l-.8-.55M164.06 94.25c.27-.35.1-.78-.5-1.23-.58-.45-.84-.23-.98-.05-.13.18-.13.48.62 1.23s1.2 1.44.65 2.15c-.54.72-1.42.8-2.57-.08-1.14-.87-1-1.9-.67-2.38l.8.6c-.3.38-.04.88.48 1.27.52.4.94.37 1.14.1.2-.25.04-.68-.47-1.18-1.27-1.27-1.1-1.84-.76-2.26.3-.42 1.13-.88 2.3 0 1.18.9 1.2 1.78.73 2.4l-.77-.6M134.6 78.67l1.42.55c.33.12.7 0 .83-.38.14-.36-.08-.7-.46-.84l-1.33-.5-.46 1.17-.3.8-.66 1.7-1.04-.4 1.7-4.42 2.87 1.1c.72.27.9 1.07.66 1.7-.24.64-.98.84-1.26.73.36.14.62.6.4 1.16l-.47 1.24-1-.4s.18-.5.4-1.03c.2-.54-.04-.8-.56-1l-1.03-.4.3-.78M149.7 85.56l1.33.75c.3.18.68.1.88-.24.2-.33.03-.7-.33-.9l-1.23-.7-.63 1.1-.4.73-.92 1.6-.97-.56 2.36-4.13 2.67 1.53c.67.38.73 1.2.4 1.8-.34.58-1.1.66-1.36.5.33.2.52.7.22 1.22l-.67 1.16-.93-.53.55-.97c.3-.5.08-.78-.4-1.06l-.96-.55.4-.74M165.95 99c-.62-.52-.66-1.4-.04-2.12.63-.74 1.45-.88 2.1-.33.66.56.67 1.4.04 2.13-.66.77-1.47.82-2.1.3l-.5.6c1.14.97 2.47.85 3.4-.24.9-1.1.8-2.42-.33-3.38-1.13-.96-2.45-.84-3.37.25-.92 1.1-.82 2.43.32 3.4l.5-.6M92.8 73.96c-.8.04-1.43-.58-1.46-1.54-.03-.97.5-1.62 1.34-1.65.86-.03 1.43.6 1.45 1.56.03 1-.54 1.6-1.34 1.63v.78c1.5-.05 2.4-1.03 2.36-2.45-.05-1.44-1-2.35-2.5-2.3-1.5.04-2.4 1.02-2.35 2.45.06 1.42 1.03 2.34 2.5 2.3v-.8"/>
  <path fill="#fff" d="M91.37 80.04l-.43 1.33h-1.4l1.13.82-.43 1.32 1.13-.82 1.13.82-.44-1.34 1.14-.8h-1.4l-.43-1.34M95.74 98.32l-.43 1.33h-1.4l1.15.82-.44 1.33 1.14-.82 1.13.82-.43-1.34 1.14-.8h-1.4l-.44-1.34M111.98 89.78l-.35 1.1h-1.18l.96.7-.36 1.1.94-.68.95.7-.37-1.13.95-.68h-1.16l-.36-1.12M128.6 94.12l-.37 1.1h-1.17l.95.7-.36 1.1.95-.7.93.7-.36-1.1.94-.7h-1.15l-.36-1.1M124.42 99.2l-.28.9h-.94l.76.55-.3.88.76-.55.76.55-.3-.9.77-.53h-.94l-.28-.9M127.8 103.45l-.2.63h-.67l.54.4-.2.63.53-.4.54.4-.2-.63.53-.4H128l-.2-.62M133.56 98.9l-.35 1.1h-1.16l.95.68-.38 1.1.94-.68.95.7-.36-1.12.95-.68h-1.18l-.36-1.1M129.4 107.7L129 109h-1.4l1.14.83-.44 1.33 1.13-.83 1.14.83-.43-1.34 1.15-.8h-1.4l-.44-1.35M128.94 123.42l-.14.44h-.47l.38.28-.13.44.37-.28.38.28-.14-.45.38-.27h-.47l-.16-.44M142.54 73.63l-.43 1.33h-1.4l1.15.83-.44 1.32 1.14-.83 1.13.82-.43-1.34 1.13-.8h-1.4l-.43-1.35M138.72 112.6l-.28.9h-.94l.76.54-.3.9.76-.56.76.55-.3-.9.76-.53H139l-.28-.9M142.06 120.13l-.36 1.1h-1.17l.95.7-.36 1.1.94-.68.94.7-.36-1.13.95-.67h-1.18l-.36-1.12M145.28 112.6l-.28.9h-.94l.76.54-.3.9.76-.56.76.55-.3-.9.77-.53h-.93l-.3-.9M151.84 121.2l-.28.9h-.94l.76.54-.3.88.76-.55.76.55-.3-.9.77-.53h-.93l-.3-.9M151.84 117.13l-.35 1.1h-1.18l.95.7-.37 1.1.94-.68.95.68-.37-1.1.94-.7h-1.16l-.36-1.1M151.84 112.6l-.28.9h-.94l.76.54-.3.9.76-.56.76.55-.3-.9.77-.53h-.93l-.3-.9M155.56 112.6l-.3.9h-.93l.76.54-.3.9.76-.56.75.55-.28-.9.76-.53h-.94l-.28-.9M159.03 110.88l-.35 1.1h-1.18l.96.7-.37 1.1.93-.68.94.68-.36-1.1.96-.7h-1.17l-.37-1.1M160.67 107.6l-.35 1.1h-1.18l.96.7-.37 1.1.94-.7.95.7-.37-1.1.95-.7h-1.17l-.36-1.1M160.08 103.48l-.43 1.32h-1.4l1.13.83-.43 1.33 1.13-.82 1.13.82-.42-1.34 1.13-.8h-1.4l-.42-1.34M165.9 103.7l-.28.9h-.93l.75.55-.3.9.76-.56.76.54-.3-.9.77-.54h-.93l-.3-.9M140.28 86.55l-.28.9h-.94l.76.54-.3.87.76-.55.76.55-.3-.9.77-.53h-.93l-.3-.9M100.5 97.04l-.2.64h-.68l.54.4-.2.62.53-.4.53.4-.2-.64.54-.38h-.67l-.2-.64M89.66 102.96l-.3.88h-.93l.77.56-.3.88.76-.55.75.55-.28-.9.76-.53h-.93l-.3-.9M104.56 102.96l-.36 1.1h-1.17l.95.7-.36 1.1.94-.68.94.68-.36-1.1.95-.7h-1.18l-.36-1.1M102.92 107.8l-.36 1.1h-1.17l.94.7-.36 1.1.94-.68.94.7-.36-1.13.95-.7h-1.17l-.36-1.1M111.9 111.76l-.4 1.32h-1.42l1.14.83-.44 1.34 1.13-.82 1.14.82-.43-1.34 1.15-.8h-1.4l-.44-1.34"/>
</svg>
