<svg xmlns="http://www.w3.org/2000/svg" width="257.44" height="179.98">
  <path fill="#fff" d="M0 179.97h257.44V.28H0v179.7z"/>
  <path fill="#d53647" d="M103.06 14.1h154.38V.28H103.06V14.1zM103.06 41.78h154.38V27.94H103.06v13.84zM103.06 69.45h154.38V55.62H103.06v13.83zM103.06 97.13h154.38V83.3H103.06v13.83zM0 124.8h257.44v-13.84H0v13.84zM0 152.47h257.44v-13.84H0v13.84zM0 179.97h257.44V166.3H0v13.67z"/>
  <path fill="#003875" d="M0 97.22h137.06V.27H0v96.95z"/>
  <path fill="#fff" d="M11.78 4.5l-1.22 3.8H6.53l3.27 2.38-1.26 3.8 3.24-2.36 3.25 2.36-1.24-3.84 3.24-2.32h-4L11.77 4.5M34.6 4.5l-1.23 3.8h-4.03l3.27 2.38-1.25 3.8 3.25-2.36 3.24 2.36-1.24-3.84 3.26-2.32h-4.02L34.6 4.5M57.4 4.5L56.2 8.3h-4.03l3.28 2.38-1.26 3.8 3.24-2.36 3.25 2.36-1.24-3.84 3.27-2.32h-4.02L57.4 4.5M80.22 4.5L79 8.3h-4.04l3.28 2.38-1.26 3.8 3.24-2.36 3.25 2.36-1.25-3.84 3.26-2.32h-4.02L80.22 4.5M103.03 4.5l-1.22 3.8H97.8l3.27 2.38-1.26 3.8 3.23-2.36 3.25 2.36-1.24-3.84 3.25-2.32h-4.02l-1.25-3.83M125.85 4.5l-1.23 3.8h-4.03l3.26 2.38-1.26 3.8 3.25-2.36 3.24 2.36-1.25-3.84 3.26-2.32h-4l-1.25-3.83M11.78 23.83l-1.22 3.8H6.53l3.27 2.38-1.26 3.82 3.24-2.37 3.25 2.37-1.24-3.84 3.24-2.32h-4l-1.26-3.83M34.6 23.83l-1.23 3.8h-4.03l3.27 2.38-1.25 3.82 3.25-2.37 3.24 2.37-1.24-3.84 3.26-2.32h-4.02l-1.24-3.83M57.4 23.83l-1.22 3.8h-4.03l3.28 2.38-1.26 3.82 3.24-2.37 3.25 2.37-1.24-3.84 3.27-2.32h-4.02l-1.24-3.83M80.22 23.83L79 27.63h-4.04l3.28 2.38-1.26 3.82 3.24-2.37 3.25 2.37-1.25-3.84 3.26-2.32h-4.02l-1.24-3.83M103.03 23.83l-1.22 3.8H97.8l3.27 2.38-1.26 3.82 3.23-2.37 3.25 2.37-1.24-3.84 3.25-2.32h-4.02l-1.25-3.83M125.85 23.83l-1.23 3.8h-4.03l3.26 2.38-1.26 3.82 3.25-2.37 3.24 2.37-1.25-3.84 3.26-2.32h-4l-1.25-3.83M11.78 43.16l-1.22 3.82H6.53l3.27 2.37-1.26 3.8 3.24-2.36 3.25 2.35-1.24-3.84 3.24-2.3h-4l-1.26-3.83M34.6 43.16l-1.23 3.82h-4.03l3.27 2.37-1.25 3.8 3.25-2.36 3.24 2.35-1.24-3.84 3.26-2.3h-4.02l-1.24-3.83M57.4 43.16l-1.22 3.82h-4.03l3.28 2.37-1.26 3.8 3.24-2.36 3.25 2.35-1.24-3.84 3.27-2.3h-4.02l-1.24-3.83M80.22 43.16L79 46.98h-4.04l3.28 2.37-1.26 3.8 3.24-2.36 3.25 2.35-1.25-3.84 3.26-2.3h-4.02l-1.24-3.83M103.03 43.16l-1.22 3.82H97.8l3.27 2.37-1.26 3.8 3.23-2.36 3.25 2.35-1.24-3.84 3.25-2.3h-4.02l-1.25-3.83M125.85 43.16l-1.23 3.82h-4.03l3.26 2.37-1.26 3.8 3.25-2.36 3.24 2.35-1.25-3.84 3.26-2.3h-4l-1.25-3.83M11.78 62.5l-1.22 3.8H6.53L9.8 68.7l-1.26 3.8 3.24-2.36 3.25 2.37-1.24-3.85 3.24-2.32h-4l-1.26-3.83M34.6 62.5l-1.23 3.8h-4.03l3.27 2.38-1.25 3.8 3.25-2.36 3.24 2.37-1.24-3.85 3.26-2.32h-4.02L34.6 62.5M57.4 62.5l-1.22 3.8h-4.03l3.28 2.38-1.26 3.8 3.24-2.36 3.25 2.37-1.24-3.85 3.27-2.32h-4.02L57.4 62.5M80.22 62.5L79 66.3h-4.04l3.28 2.38-1.26 3.8 3.24-2.36 3.25 2.37-1.25-3.85 3.26-2.32h-4.02l-1.24-3.83M103.03 62.5l-1.22 3.8H97.8l3.27 2.38-1.26 3.8 3.23-2.36 3.25 2.37-1.24-3.85 3.25-2.32h-4.02l-1.25-3.83M125.85 62.5l-1.23 3.8h-4.03l3.26 2.38-1.26 3.8 3.25-2.36 3.24 2.37-1.25-3.85 3.26-2.32h-4l-1.25-3.83M11.78 81.84l-1.22 3.8H6.53l3.27 2.38-1.26 3.8 3.24-2.36 3.25 2.37L13.8 88l3.24-2.34h-4l-1.26-3.82M34.6 81.84l-1.23 3.8h-4.03l3.27 2.38-1.25 3.8 3.25-2.36 3.24 2.37L36.6 88l3.26-2.34h-4.02l-1.24-3.82M57.4 81.84l-1.22 3.8h-4.03l3.28 2.38-1.26 3.8 3.24-2.36 3.25 2.37L59.4 88l3.27-2.34h-4.02l-1.24-3.82M80.22 81.84L79 85.64h-4.04l3.28 2.38-1.26 3.8 3.24-2.36 3.25 2.37L82.22 88l3.26-2.34h-4.02l-1.24-3.82M103.03 81.84l-1.22 3.8H97.8l3.27 2.38-1.26 3.8 3.23-2.36 3.25 2.37-1.24-3.84 3.25-2.34h-4.02l-1.25-3.82M125.85 81.84l-1.23 3.8h-4.03l3.26 2.38-1.26 3.8 3.25-2.36 3.24 2.37-1.25-3.84 3.26-2.34h-4l-1.25-3.82M23.2 72.23l-1.23 3.8h-4.04l3.28 2.38-1.25 3.82 3.24-2.37 3.23 2.37-1.24-3.84 3.25-2.33h-4.02l-1.24-3.82M46 72.23l-1.22 3.8h-4.04l3.28 2.38-1.26 3.82L46 79.85l3.25 2.37L48 78.38l3.26-2.33h-4L46 72.23M68.82 72.23l-1.23 3.8h-4.04l3.27 2.38-1.26 3.82 3.25-2.37 3.24 2.37-1.24-3.84 3.25-2.33h-4l-1.25-3.82M91.63 72.23l-1.23 3.8h-4.03l3.27 2.38-1.25 3.82 3.23-2.37 3.24 2.37-1.24-3.84 3.26-2.33h-4.03l-1.24-3.82M114.44 72.23l-1.22 3.8h-4.04l3.28 2.38-1.26 3.82 3.24-2.37 3.24 2.37-1.24-3.84 3.26-2.33h-4.02l-1.24-3.82M23.2 52.85l-1.23 3.8h-4.04l3.28 2.38-1.25 3.8 3.24-2.35 3.23 2.36L25.2 59l3.25-2.32h-4.02l-1.24-3.83M46 52.85l-1.22 3.8h-4.04l3.28 2.38-1.26 3.8L46 60.5l3.25 2.36L48 59l3.26-2.32h-4L46 52.85M68.82 52.85l-1.23 3.8h-4.04l3.27 2.38-1.26 3.8 3.25-2.35 3.24 2.36L70.82 59l3.25-2.32h-4l-1.25-3.83M91.63 52.85l-1.23 3.8h-4.03l3.27 2.38-1.25 3.8 3.23-2.35 3.24 2.36L93.63 59l3.26-2.32h-4.03l-1.24-3.83M114.44 52.85l-1.22 3.8h-4.04l3.28 2.38-1.26 3.8 3.24-2.35 3.24 2.36-1.24-3.84 3.26-2.32h-4.02l-1.24-3.83M23.2 33.48l-1.23 3.8h-4.04l3.28 2.38-1.25 3.8 3.24-2.36 3.23 2.37-1.24-3.84 3.25-2.33h-4.02l-1.24-3.82M46 33.48l-1.22 3.8h-4.04l3.28 2.38-1.26 3.8L46 41.1l3.25 2.37L48 39.63l3.26-2.33h-4L46 33.48M68.82 33.48l-1.23 3.8h-4.04l3.27 2.38-1.26 3.8 3.25-2.36 3.24 2.37-1.24-3.84 3.25-2.33h-4l-1.25-3.82M91.63 33.48l-1.23 3.8h-4.03l3.27 2.38-1.25 3.8 3.23-2.36 3.24 2.37-1.24-3.84 3.26-2.33h-4.03l-1.24-3.82M114.44 33.48l-1.22 3.8h-4.04l3.28 2.38-1.26 3.8 3.24-2.36 3.24 2.37-1.24-3.84 3.26-2.33h-4.02l-1.24-3.82M23.2 14.1l-1.23 3.8h-4.04l3.28 2.38-1.25 3.8 3.24-2.36 3.23 2.37-1.24-3.85 3.25-2.32h-4.02L23.2 14.1M46 14.1l-1.22 3.8h-4.04l3.28 2.38-1.26 3.8L46 21.73l3.25 2.37L48 20.24l3.26-2.32h-4L46 14.1M68.82 14.1l-1.23 3.8h-4.04l3.27 2.38-1.26 3.8 3.25-2.36 3.24 2.37-1.24-3.85 3.25-2.32h-4L68.8 14.1M91.63 14.1l-1.23 3.8h-4.03l3.27 2.38-1.25 3.8 3.23-2.36 3.24 2.37-1.24-3.85 3.26-2.32h-4.03l-1.24-3.83M114.44 14.1l-1.22 3.8h-4.04l3.28 2.38-1.26 3.8 3.24-2.36 3.24 2.37-1.24-3.85 3.26-2.32h-4.02l-1.24-3.83"/>
</svg>
