<svg xmlns="http://www.w3.org/2000/svg" width="257.44" height="179.98">
  <path fill="#ee332b" d="M0 60.3h257.44V.25H0V60.3z"/>
  <path fill="#fff" d="M0 120.36h257.44V60.3H0v60.06z"/>
  <path fill="#363192" d="M0 179.97h257.44v-59.6H0v59.6z"/>
  <path fill="#ee332b" d="M126.2 136.92c19.27 0 35.03-15.75 35.03-35.02V60.3H91.18v41.6c0 19.27 15.76 35.02 35.02 35.02"/>
  <path fill="#fff" d="M126.2 136.36c18.9 0 34.36-15.46 34.36-34.35V60.97h-68.7V102c0 18.9 15.45 34.36 34.34 34.36"/>
  <path fill="#ee332b" d="M160.1 60.3l8.4-19.04-6.46-10.42-10.38 3.84-7.3-8.33-9.6 5.5-8.56-7-8.57 7-9.6-5.5-7.3 8.33-10.38-3.84-6.46 10.42 8.38 19.04c10.35-4.73 21.83-7.37 33.92-7.37 12.08 0 23.56 2.64 33.9 7.36"/>
  <path fill="#fff" d="M159.96 59.86l8.2-18.58-6.25-10.08-10.33 3.83-7.27-8.3-9.57 5.48-8.53-6.98-8.54 7-9.57-5.5-7.28 8.3-10.34-3.82-6.25 10.08 8.2 18.6c10.3-4.68 21.74-7.28 33.77-7.28 12.02 0 23.45 2.6 33.76 7.26"/>
  <path fill="#2690cf" d="M159.57 58.98l7.8-17.64-5.76-9.27-10.22 3.8-4.74 18.63c4.46 1.14 8.78 2.65 12.93 4.48"/>
  <path fill="#ee332b" d="M161.98 53.52l2-4.55c-4.7-2.07-9.6-3.78-14.65-5.07l-1.18 4.65c4.8 1.23 9.45 2.84 13.9 4.8l-.07.17"/>
  <path fill="#363192" d="M117.75 33.06h-.02l-9.5-5.43-7.18 8.22 4.73 18.65c4.4-1.12 8.92-1.88 13.56-2.27l-1.6-19.17M151.38 35.86h-.02l-7.2-8.23-9.48 5.43-1.6 19.18c4.64.38 9.17 1.15 13.56 2.26l4.74-18.64"/>
  <path fill="#2690cf" d="M101.05 35.85l-10.27-3.78-5.75 9.27 2.2 5L92.8 59c4.17-1.85 8.5-3.36 12.98-4.5l-4.73-18.65"/>
  <path fill="#fff" d="M126.18 134.96c18.17 0 33.04-14.87 33.04-33.04V62.26h-66.1v39.66c0 18.17 14.88 33.04 33.06 33.04"/>
  <path fill="#ee332b" d="M93.13 76.78h13.22V62.26H93.13v14.52zM106.35 91.3h13.22V76.78h-13.22V91.3zM93.13 101.93c0 1.32.08 2.62.24 3.9h12.98V91.3H93.13v10.63M119.57 105.83h13.22V91.3h-13.23v14.53zM132.8 120.35H146v-14.52h-13.2v14.52zM146 128.3c2.95-2.22 5.5-4.9 7.56-7.94H146v7.94M106.35 120.35h13.22v-14.52h-13.22v14.52zM98.8 120.35c2.06 3.05 4.62 5.74 7.55 7.96v-7.95H98.8M128.5 134.88c1.45-.1 2.9-.3 4.3-.6v-13.93h-13.23v13.94c1.4.28 2.84.48 4.3.58 1.54.1 3.08.1 4.62 0M159 105.83c.14-1.28.22-2.6.22-3.9V91.3h-13.2v14.53h12.97M132.8 91.3H146V76.78h-13.2V91.3zM119.57 76.78h13.22V62.26h-13.23v14.52zM146 76.78h13.22V62.26h-13.2v14.52z"/>
  <path fill="#fff" d="M100.46 45c.37.7.58 1.5.58 2.34 0 2.77-2.26 5.02-5.02 5.02-2.43 0-4.47-1.75-4.92-4.06.86 1.53 2.5 2.57 4.4 2.57 2.76 0 5.03-2.26 5.03-5.04 0-.28-.03-.55-.07-.82"/>
  <path d="M100.4 45.03l-.04-.32.15.3-.1.03zm.1-.04l-.1.04.1-.03.02.03v.14l.02.02v.14l.02.04V45.57l.02.02v.2h-.1V45.52l-.02-.03v-.22l-.02-.03v-.14l-.02-.02v-.1l.1-.03zm-.03.83h.1v.26l-.02.25-.03.26-.04.26-.06.24-.07.24-.08.24-.1.23-.1.24-.1.22-.13.2-.13.22-.13.2-.16.2-.15.17-.16.18-.2.17-.18.16-.2.15-.2.15-.2.14-.2.1-.23.12-.23.1-.24.1-.23.07-.24.06-.25.06-.24.04-.25.04-.25.02h-.26v-.1h.24l.25-.03.24-.04.25-.04.23-.06.24-.07.23-.08.22-.1.22-.1.22-.1.2-.12.2-.13.2-.14.2-.15.18-.16.17-.17.18-.17.15-.18.15-.2.14-.18.13-.2.12-.2.1-.23.1-.23.1-.23.08-.23.07-.22.05-.24.05-.25.03-.26.02-.25v-.27zm-4.98 5v.1h-.2l-.17-.02h-.17l-.17-.02-.18-.03-.17-.03-.17-.04-.16-.04-.17-.05-.16-.07-.17-.05-.15-.07-.15-.06-.15-.07-.15-.08-.15-.1-.14-.08-.14-.1-.13-.1-.13-.1-.13-.1-.12-.1-.12-.12-.1-.1-.13-.13-.1-.13-.1-.12-.12-.13-.08-.15-.1-.14-.1-.13-.07-.14.1-.05.07.14.1.14.08.13.1.12.1.13.1.13.1.12.12.12.1.1.13.12.13.1.12.1.13.1.13.1.14.1.14.08.14.08.14.08.15.07.15.07.15.06.16.06.15.05.16.04.16.04.17.03.16.05.17.02.17.02h.17l.17.02h.18zm-4.45-2.52l-.07-.3.16.28-.1.03zm.1-.02l-.1.05.1-.04.04.2.05.22.06.2.1.2.07.2.1.2.08.18.1.18.12.18.12.17.12.17.13.17.14.15.13.15.16.15.15.14.16.13.18.1.18.13.18.1.18.1.2.1.2.1.18.07.2.07.2.06.22.06.22.03.2.03.23.03h.45v.1h-.47l-.22-.03-.22-.04-.22-.04-.22-.07-.2-.06-.2-.07-.22-.08-.2-.1-.2-.1-.18-.1-.18-.1-.18-.12-.17-.13-.17-.13-.16-.14-.16-.15-.15-.15-.13-.16-.14-.17-.13-.17-.12-.18-.1-.18-.12-.2-.1-.18-.1-.2-.07-.2-.08-.2-.07-.2-.06-.23-.05-.22.1-.02zM96 52.4v-.1h.25l.26-.02.24-.03.25-.04.24-.05.23-.06.23-.1.22-.08.22-.1.2-.1.22-.13.2-.14.2-.14.17-.15.18-.15.18-.17.16-.17.15-.18.15-.2.13-.18.13-.2.12-.2.1-.22.1-.22.1-.23.08-.23.07-.24.05-.24.05-.24.03-.25.02-.25v-.25h.1v.26l-.02.26-.03.25-.05.26-.05.25-.07.25-.08.23-.1.23-.1.24-.1.22-.13.2-.13.2-.14.2-.15.2-.16.2-.17.16-.18.17-.18.15-.2.15-.2.14-.2.14-.2.12-.23.1-.2.1-.24.1-.23.08-.24.07-.26.06-.25.05-.26.04h-.52zm5.07-5.06h-.12v-.39l-.02-.08v-.14l-.03-.07v-.08l-.02-.07v-.07l-.02-.07v-.08l-.03-.07-.02-.06v-.07l-.03-.07-.02-.07-.03-.07-.02-.07-.02-.1-.02-.05-.03-.07-.02-.07-.03-.06-.03-.07-.03-.06-.03-.06-.02-.07-.03-.06-.04-.06.1-.05.04.06.03.07.04.06.04.06.03.07.03.07.03.07.02.07.03.07.03.08.03.07.02.07.03.08.02.07.02.07v.07l.03.1.02.06.02.08v.17l.03.07v.07l.02.08V46.87l.02.08v.26l.02.07v.07"/>
  <path fill="#ee332b" d="M104.6 49.87c4.65-1.18 9.44-2 14.34-2.4l-.4-4.84c-5.17.42-10.23 1.28-15.13 2.52l1.2 4.72M102.23 40.5c5.16-1.32 10.47-2.2 15.9-2.66l-.38-4.76c-5.7.47-11.3 1.4-16.7 2.8l1.18 4.62"/>
  <path fill="#fff" d="M164 48.97l.5-1.17c-4.76-2.1-9.72-3.83-14.85-5.14l-.32 1.24c5.06 1.3 9.96 3 14.66 5.07zm-15.85-.42c4.8 1.23 9.44 2.84 13.9 4.8l-.55 1.26c-4.4-1.93-8.96-3.52-13.7-4.72l.35-1.33"/>
  <path d="M92.6 37.44l.06.05 1.4 1.2 1.72-.6.08-.02v.08l-.36 1.8 1.38 1.2.06.06-.08.03-1.73.6-.36 1.8v.08l-.08-.06-1.4-1.2-1.72.6-.1.02.03-.1.36-1.8-1.38-1.2-.06-.06.08-.02 1.73-.6.35-1.8.02-.08"/>
  <path fill="#f3da34" d="M93.8 40.58l2.9.57-1.28-1.13-1.63.56M90.66 39.96l2.92.57-1.3-1.12-1.62.56M93.56 40.6l-2.9-.58 1.28 1.13 1.63-.56M96.7 41.2l-2.92-.57 1.3 1.13 1.6-.56M93.73 40.48l1.95-2.24-1.62.56-.33 1.68M91.63 42.9l1.96-2.25-1.64.55-.33 1.7M93.63 40.7l-1.95 2.22 1.62-.55.33-1.68M95.72 38.28l-1.95 2.24 1.63-.56.32-1.68M93.62 40.5l-.97-2.82-.33 1.68 1.3 1.13M94.65 43.5l-.96-2.8-.34 1.68 1.3 1.13M93.74 40.68l.97 2.8.34-1.67-1.3-1.12M92.7 37.66l.97 2.8.33-1.68-1.3-1.12"/>
  <path d="M160.57 35.15l-.06.06-1.4 1.22-1.74-.6-.08-.03.02.08.35 1.8-1.4 1.23-.06.06.07.03 1.75.6.35 1.8.02.1.06-.06 1.4-1.2 1.74.6h.08v-.07l-.37-1.82 1.4-1.2.07-.07-.08-.02-1.76-.6-.35-1.82-.03-.1"/>
  <path fill="#f3da34" d="M159.37 38.31l-2.94.6 1.3-1.15 1.64.56M162.52 37.7l-2.93.57 1.3-1.13 1.62.56M159.6 38.33l2.94-.57-1.3 1.13-1.64-.57M156.44 38.94l2.94-.57-1.3 1.14-1.64-.56M159.43 38.22l-1.96-2.26 1.63.56.33 1.7M161.54 40.65l-1.96-2.26 1.63.55.34 1.7M159.53 38.43l1.97 2.25-1.64-.55-.33-1.7M157.42 36l1.97 2.26-1.65-.56-.33-1.7M159.55 38.23l.97-2.83.33 1.7-1.3 1.13M158.5 41.27l.97-2.83.33 1.7-1.3 1.13M159.42 38.42l-.98 2.83-.33-1.7 1.32-1.13M160.47 35.38l-.98 2.83-.34-1.7 1.3-1.12"/>
  <path fill="#2690cf" d="M134.68 33.06h-.02l-8.46-6.92-8.45 6.92 1.6 19.17c2.25-.18 4.54-.28 6.85-.28 2.32 0 4.6.1 6.88.3l1.6-19.2"/>
  <path d="M126.18 41.68c-.02 0-.04 0-.06.04l-.5.65c-.16.05-.2.15-.14.3-.23-.02-.26.18-.27.4-.2-.35-.45-.44-.7-.3-.02-.2-.18-.3-.4-.33-.16 0-.28-.06-.4-.13-.04-.03-.1-.05-.14-.1-.1-.07-.2 0-.15.08.25.38.48.77.72 1.16 0 .07 0 .13.08.18l.12.35-.02.1c-.2-.1-.4-.1-.6-.12-.15 0-.25-.04-.32-.12-.04-.05-.08-.02-.08.07 0 .48.15.9.54 1.33-.2 0-.42 0-.62.02-.07 0-.1.04-.07.1.1.26.3.5.73.67-.18.1-.3.26-.3.47-.02.18-.08.32-.2.4-.06.02-.08.05-.02.08.22.17.5.18.8.1-.15.25-.2.5-.18.76.18.05.36 0 .54-.05-.02.05-.04.15-.04.27 0 .1-.04.2-.1.3-.02.03-.05.08 0 .1.3.08.58.04.82-.05 0 .22 0 .44.07.65 0 .05.06.1.1.02.15-.2.3-.36.48-.47.03.08.07.15.14.2.07.04.12.15.12.3 0 .03 0 .05.03.08.14.02.46-.33.53-.52.18.1.25.22.4.4.04.08.08.03.1 0 .06-.23.06-.44.06-.66.24.1.52.13.8.04.08 0 .05-.06.02-.1-.06-.1-.1-.2-.1-.3 0-.13-.02-.2-.04-.27.18.05.36.1.55.04.02-.27-.05-.52-.2-.76.3.07.6.07.82-.1.04-.03.02-.06-.04-.1-.12-.06-.18-.2-.18-.4-.03-.2-.14-.36-.32-.46.43-.16.62-.4.73-.68 0-.06 0-.1-.08-.1-.2 0-.42 0-.63-.02.38-.42.53-.85.53-1.32 0-.1-.03-.14-.08-.08-.07.08-.16.12-.3.13-.2.02-.4.02-.6.12 0-.04 0-.07-.02-.1.04-.12.1-.24.13-.36.07-.03.1-.1.08-.17l.7-1.15c.04-.07-.05-.15-.16-.07-.05.05-.1.07-.15.1-.1.08-.23.12-.4.13-.2.05-.36.15-.37.36-.26-.17-.5-.08-.72.26 0-.2-.04-.4-.27-.38.07-.15.02-.26-.16-.32-.15-.22-.4-.42-.56-.64l-.06-.04"/>
  <path fill="#f3da34" d="M128.43 42.92c-.05-.02-.1.02-.15.1-.03.06-.03.14.02.16.04.02.08 0 .1-.05l.02-.03c.04-.08.05-.15 0-.18M123.97 42.92c.05-.02.1.02.15.1.03.06.03.13 0 .16-.06.02-.1-.02-.14-.1-.03-.06-.05-.14 0-.16M128 43.73c-.02 0-.04.02-.04.05 0 .03.02.05.05.05.04 0 .06-.02.06-.05 0-.03-.02-.05-.05-.05M124.42 43.73c-.02 0-.05.02-.05.05 0 .03.02.05.05.05.03 0 .06-.02.06-.05 0-.03-.03-.05-.06-.05M128.24 43.46c-.67-.1-1.34-.12-2-.12-.68 0-1.35.03-2.02.1-.03 0-.02.08 0 .08.68-.07 1.35-.1 2-.1.68 0 1.34.03 2 .1.03 0 .04-.06.02-.06"/>
  <path fill="#f3da34" d="M124.2 43.38c.68-.07 1.36-.1 2.03-.1.67 0 1.34.04 2 .12l.1-.17h-.07c-.07-.04-.08-.14-.03-.24.05-.12.15-.17.2-.14.05.02.07.06.07.1l.4-.65c-.18.12-.3.2-.52.23-.25.04-.36.12-.32.27.03.14-.05.12-.18.05-.28-.15-.48.06-.58.32-.07.16-.14.16-.15 0v-.2c-.03-.2-.1-.25-.2-.2-.14.08-.16.03-.12-.05.02-.05.07-.1.06-.2-.02-.05-.07-.07-.15-.08-.16-.22-.4-.43-.58-.65l-.5.64c-.07 0-.12.03-.12.1-.02.07.04.13.07.18.03.07.02.12-.12.05-.12-.05-.17 0-.2.2v.2c0 .16-.08.16-.15 0-.1-.26-.3-.47-.6-.32-.12.07-.17.1-.15-.05.02-.15-.1-.23-.35-.27-.22-.03-.33-.1-.52-.22l.38.6c.02 0 .03-.03.05-.04.07-.03.17.02.22.13.05.1.03.2-.03.23h-.03l.1.15M128.1 44.2h-.02c-.04.02-.07.06-.12.1-.05.07-.1.12-.2.18 0 0 0 .02-.03 0v-.05c.08-.05.14-.1.2-.16l.06-.08-.26-.04c-.07.03-.14.05-.2.1-.05.02-.1.06-.12.1 0 0-.02.02-.04 0-.03 0-.02-.02 0-.03.02-.05.07-.1.13-.13l.1-.05c-.1 0-.2 0-.28-.02-.02 0-.04.03-.06.04l-.05.06s0 .02-.03 0c-.02 0 0-.02 0-.03 0-.03.03-.05.05-.07l-.2-.02v.02c-.03 0-.05.03-.06.05l-.03.06s0 .02-.04 0c-.03 0-.03 0-.02-.02 0-.02.02-.04.04-.06 0 0 0-.02.02-.03h-.3-.02l-.06.05c0 .02-.03.04-.04.06 0 .02 0 .03-.04.02-.02-.02-.02-.03 0-.04 0-.03.02-.05.04-.07h.02-.64.02l.05.08v.04h-.05c0-.03-.03-.05-.04-.07l-.06-.04h-.32l.02.04.04.07v.04h-.05c0-.03 0-.05-.02-.07 0-.02-.03-.04-.05-.05h-.23.02l.05.08s.02.02 0 .04h-.04l-.05-.07-.06-.04c-.1 0-.2 0-.3.02.04 0 .08.03.1.05.07.03.12.08.15.13 0 0 .02.02 0 .04H125c-.02-.05-.07-.1-.12-.12-.06-.04-.14-.07-.22-.1l-.24.03.08.1c.05.04.1.1.18.15 0 0 .02.02 0 .04 0 .03-.02.02-.04 0-.07-.05-.13-.1-.18-.16-.03-.02-.1-.1-.12-.1-.18-.1-.32-.13-.5-.14-.15-.02-.3 0-.42-.07l.1.2c.06.05.12.1.2.12 0 0 .02 0 .02.02.02.14.07.26.15.35l.17.12c-.06-.07-.1-.15-.15-.23-.06-.13-.08-.26-.07-.38 0 0 0-.03.03-.02.03 0 .03 0 .03.03 0 .1.02.22.07.34.05.1.15.2.26.3.02.03 0 .07-.02.06-.13-.04-.25-.1-.34-.2-.07-.1-.13-.22-.15-.36-.08-.03-.14-.08-.2-.14l-.1-.2c.03.4.16.72.4 1.02.06.07.16.17.24.2.08.03.08.08-.02.08h-.1c.08.03.15.06.2.1.12.06.2.14.2.24 0 .02 0 .03-.02.03s-.02 0-.03-.02c0-.08-.07-.15-.17-.2-.1-.06-.23-.1-.35-.14h-.4l.1.07c.08.05.17.1.3.12.1.02.16.05.22.08.06.04.1.08.15.14 0 0 .02.02 0 .04h-.04c-.04-.06-.08-.1-.14-.13-.06-.03-.12-.06-.2-.07-.14-.04-.24-.07-.3-.12-.08-.03-.13-.07-.18-.1.16.34.4.5.75.6l.06.02.25.05.24.04s.03 0 .02.03c0 .03 0 .02-.03.02-.08 0-.15-.02-.23-.03l-.15-.04h-.1c-.2.02-.37.2-.4.45v.02l.25-.2c.1-.04.22-.08.33-.05 0 0 .03 0 .02.04 0 .04-.02.03-.04.03-.08-.03-.18 0-.27.05-.1.06-.2.15-.28.23-.02.14-.07.26-.18.34.05.03.1.06.14.04l.25-.1c.08-.02.16-.04.25-.04 0 0 .03 0 .03.03 0 .02 0 .02-.03.03-.08 0-.16.02-.24.04l-.2.08c.2.04.42 0 .6-.07l.12-.03.15-.08.16-.04s.02 0 .02.02c0 .03 0 .03-.02.03-.1 0-.1.02-.2.07 0 .02-.06.05-.1.1-.04 0-.07.03-.1.05-.07.07-.12.16-.15.25-.03.06-.05.13-.06.2.03-.1.1-.2.16-.27.1-.1.2-.18.3-.23.02 0 .04-.02.05 0 .02.03 0 .04 0 .05-.12.05-.2.13-.3.22-.07.08-.14.2-.2.3 0 .05 0 0-.03.07.1-.1.2-.2.3-.27.1-.1.24-.14.36-.12.02 0 .03 0 .03.03 0 .04-.02.04-.04.04-.1-.02-.22.02-.32.1-.1.1-.22.2-.33.33.16.02.33-.03.48-.08.08-.04.17-.13.22-.15 0-.02.03-.04.05-.06l.08-.1h.05v.05l-.1.08-.07.1-.03.02c-.05.06-.13.14-.15.2-.05.2-.02.34-.1.52l.15-.1c.05-.07.08-.14.1-.22.05-.1.1-.17.16-.24.08-.06.16-.1.24-.14h.04c0 .04 0 .04-.02.05-.07.04-.15.1-.2.15-.07.06-.1.13-.15.22-.02.1-.06.16-.1.22l-.15.1h.1c.08 0 .2-.06.25-.1.06-.05.1-.1.14-.2 0 0 0-.02.04 0 .03 0 .02.02 0 .03-.02.1-.07.16-.14.2-.05.05-.1.08-.17.1.14 0 .27-.05.4-.1.07-.02.1-.15.12-.18.02-.05.05-.1.1-.14.03-.04.08-.08.13-.1.02 0 .03-.02.04 0 0 .04 0 .04-.02.05-.04 0-.08.05-.12.1l-.1.12c.02.07-.03.2-.03.27 0 .2 0 .37.04.55l.15-.18v-.02l.02-.3v-.28c0-.02 0-.03.02-.04.03 0 .03.02.03.03.02.1.02.2 0 .3 0 .1 0 .17-.02.25.05-.04.05-.04.07-.1.04-.06.05-.13.06-.2v-.2c0-.02-.02-.03 0-.04.04 0 .04.02.05.03 0 .07.02.15 0 .23 0 .05 0 .1-.04.17l.15-.1v-.2c0-.07 0-.13.02-.17 0-.02 0-.04.04-.04s.04.03.04.05l-.02.15v.22c0 .07.05.16.12.2.1.06.14.15.16.25.02-.14.02-.26 0-.37 0-.12-.04-.23-.1-.32 0 0 0-.02.02-.03.02-.02.03 0 .03 0 .06.1.1.22.1.36.03.13.02.27 0 .43.1-.07.34-.23.3-.53v-.06c-.02-.02-.02-.03 0-.04h.04c0 .04 0 .07.02.1v.08l.06-.03.07.05-.04-.16c0-.08 0-.15.02-.22 0-.02 0-.03.04-.02.03 0 .02.02.02.03-.02.06-.02.13 0 .2 0 .07.02.14.05.22v.02c.02 0 .04.02.06.04-.02-.07-.03-.15-.03-.22v-.3c0-.02 0-.03.04-.03.03 0 .03 0 .03.02v.3c0 .1 0 .2.03.3.05.05.1.1.14.17.05-.2.06-.37.06-.55 0-.07-.07-.2-.06-.27l-.1-.14c-.03-.04-.07-.08-.12-.1 0 0-.02 0 0-.03 0-.02 0 0 .02 0 .06.02.1.06.15.1l.1.14c.04 0 .06.16.12.2.14.04.26.08.4.08-.06 0-.12-.04-.17-.08-.07-.05-.12-.12-.15-.2 0-.02-.02-.03 0-.04.04-.02.04 0 .05 0 .03.1.08.15.13.2.08.05.26.1.36.1l-.15-.1c-.05-.07-.1-.14-.13-.23-.03-.08-.07-.16-.13-.22-.07-.06-.14-.1-.22-.14-.02 0-.03 0-.02-.03 0-.02.02-.02.04 0 .08.02.16.07.23.14.06.08.1.16.15.25.03.08.06.15.1.2.05.05.1.1.17.13-.1-.2-.06-.33-.1-.52-.04-.1-.22-.24-.18-.28.04-.05.12.08.22.1.15.06.3.1.47.1-.1-.14-.22-.25-.33-.33-.1-.1-.2-.13-.3-.1-.02 0-.04 0-.04-.04 0 0 0-.02.02-.02.12-.02.24.03.36.12.1.07.18.15.27.26 0-.04 0 0-.02-.06-.06-.1-.12-.22-.2-.3-.08-.1-.17-.18-.3-.23v-.04c0-.03.03-.02.04 0 .12.04.22.13.3.22.08.08.14.18.2.28l-.08-.2c-.04-.1-.1-.2-.17-.26-.06-.05-.2-.13-.2-.16h-.04c-.07-.04-.12-.05-.16-.06 0 0-.03 0-.02-.03 0-.02 0-.02.03 0 .04 0 .1 0 .16.03l.1.06c.04 0 .12.03.18.05.18.07.4.12.6.07l-.2-.08c-.08-.02-.16-.04-.24-.04 0 0-.03 0-.03-.03s.03-.03.04-.03c.1 0 .17.02.25.05.07.02.15.05.23.1.05 0 .08-.02.14-.05-.1-.1-.16-.2-.18-.34-.1-.07-.2-.16-.3-.2-.1-.07-.18-.1-.27-.07-.02 0-.03 0-.04-.02-.02-.02 0-.02 0-.02.12-.04.23 0 .33.06.1.05.17.1.25.2v-.03c-.02-.23-.2-.42-.4-.43-.06 0-.16.02-.15-.03 0-.05.08-.04.2-.07.34-.1.58-.27.74-.62-.04.04-.1.08-.16.1-.07.06-.17.1-.3.13-.08 0-.14.04-.2.07-.06.03-.1.08-.14.12 0 0-.02.02-.04 0-.02 0 0-.02 0-.03.04-.06.1-.1.15-.14l.2-.08c.15-.03.24-.07.3-.1l.13-.08h-.4c-.13.03-.26.08-.37.14-.1.05-.16.12-.16.2 0 0 0 .02-.04.02-.02 0-.02 0-.02-.03.02-.1.1-.18.2-.24l.22-.1h-.1c-.1 0-.1-.05-.02-.1.1 0 .17-.1.23-.18.24-.3.36-.63.4-1l-.1.17c-.05.07-.1.12-.2.15-.02.14-.08.26-.16.35-.08.1-.2.17-.32.2-.03 0-.05-.02-.03-.04.12-.1.2-.2.25-.3.05-.12.07-.24.06-.35 0-.02 0-.03.03-.03.02 0 .03 0 .03.02 0 .12-.02.25-.08.38l-.16.22c.07-.03.13-.08.17-.13.08-.1.13-.22.15-.36 0 0 0-.02.02-.02.08-.02.14-.07.2-.13l.1-.2c-.12.05-.27.05-.4.06-.2 0-.34.06-.5.13"/>
  <path fill="#f3da34" d="M128.05 44.03c-.6-.07-1.2-.1-1.82-.1-.6 0-1.2.04-1.83.1v.05c0 .02.02.03.1.02.57-.05 1.14-.08 1.72-.08.6 0 1.2 0 1.8.1.04 0 .08-.1.03-.08"/>
  <path fill="#f3da34" d="M125.24 43.66c-.03 0-.05.02-.05.05 0 .04 0 .06.04.06.03 0 .05-.02.05-.05 0-.02-.03-.04-.06-.04zm0-.06c-.06 0-.1.05-.1.1 0 .07.04.12.1.12.06 0 .1-.05.1-.1 0-.07-.04-.12-.1-.12zm.95.04c-.04 0-.07.02-.07.05 0 .02.03.04.06.04.02 0 .04-.02.04-.05 0-.04-.02-.06-.05-.06zm0-.06c-.07 0-.12.05-.12.1 0 .07.05.12.1.12.07 0 .1-.05.1-.1.02-.07-.03-.12-.1-.12zm.95.08c-.03 0-.05.02-.05.05 0 .04.02.07.05.07.03 0 .05-.03.05-.06 0-.02-.02-.04-.05-.04zm0-.06c-.06 0-.1.05-.1.1 0 .07.04.12.1.12.06 0 .1-.05.1-.1 0-.07-.04-.12-.1-.12zm-2.73.37c.6-.06 1.2-.1 1.8-.1.6 0 1.2.04 1.8.12l.04-.12H128c-.05 0-.1-.04-.1-.1 0-.06.05-.1.1-.1.06 0 .1.02.1.06l.07-.15c-.65-.1-1.3-.12-1.94-.12-.65 0-1.3.03-1.95.1l.05.14c.02-.03.06-.05.1-.05.05 0 .1.05.1.1 0 .07-.05.12-.1.12-.02 0-.03 0-.04-.02l.02.1"/>
  <path d="M126.25 42.8c.02-.03.05-.08.08-.1.02-.05.05-.07.1-.1-.06-.02-.1-.05-.14-.1-.04-.03-.06-.06-.08-.1 0 .05-.04.1-.06.14-.03.04-.06.08-.1.1.05.02.1.04.12.08.03.02.06.06.08.1zm-.02.12c0-.06-.05-.12-.1-.16-.04-.04-.1-.07-.16-.08-.03 0-.03-.05 0-.06.05 0 .1-.06.13-.1l.1-.24c0-.03.05-.03.05 0 0 .07.05.13.1.18.03.06.1.1.16.12.04.02.03.06 0 .07-.05 0-.1.03-.12.07-.05.06-.08.13-.1.2 0 .03-.05.03-.05 0M125.96 47.87h.35c.03 0 .05 0 .05.03s-.02.03-.03.03h-.36c-.02 0-.03 0-.04-.02 0-.03.02-.03.04-.03zm-.32-.18c.12.02.23.03.32 0 .08 0 .14-.04.17-.1v-.45c-.1 0-.2-.02-.27-.04-.1-.02-.15-.08-.18-.15-.04-.1-.02-.2 0-.3 0 0 0-.02.04-.02.03 0 .03.03.02.04-.02.08-.03.18 0 .26.02.05.06.1.14.12.08.02.17.03.27.03s.2 0 .27-.04c.07-.02.13-.06.17-.1.03-.05.05-.1.04-.16 0-.03-.02-.06-.04-.07-.03-.02-.07-.02-.1-.03-.06 0-.1 0-.14.02h-.07c-.03 0-.04 0-.05-.03 0-.03 0-.03.03-.04h.07c.04-.02.1-.02.14-.02.04 0 .1.02.14.05.03.03.06.07.07.12.02.07 0 .14-.06.2-.04.06-.1.1-.2.14-.07.03-.16.04-.24.04v.45c.03.06.1.1.16.1.1.03.2.02.32 0 .02-.02.04-.02.04 0 0 .04 0 .05-.02.05-.13.03-.25.05-.35.03-.08-.02-.14-.05-.2-.12-.03.07-.1.1-.18.12-.1.02-.2 0-.34-.03-.02 0-.04 0-.03-.04 0-.02.02-.02.04 0zm-.2-.4l.46.2s.03 0 .02.03c-.02.03-.03.02-.05.02l-.45-.2c-.02 0-.04 0-.02-.03 0-.03.02-.02.04-.02zm-.05-.28l.53.3c.02 0 .03 0 .02.03-.02.03-.04.02-.05 0l-.54-.28s-.03 0 0-.04c0-.03.02-.02.03 0zm1.62.05l-.54.3s-.03 0-.04-.02c-.02-.03 0-.04 0-.05l.55-.3s.02 0 .03.03c.02.03 0 .03 0 .04zm-.05.3l-.46.18s-.02 0-.03-.02c0-.03 0-.04.02-.05l.44-.18c.02 0 .03 0 .04.02.02.03 0 .04 0 .04M127.28 45.2c-.1.02-.2.05-.28.1-.1.04-.18.1-.28.16v.03c-.03.07-.05.15-.04.23l.08-.04.12-.06c.08-.03.15-.06.2-.1.06-.02.1-.06.12-.1.03-.02.05-.07.06-.1l.02-.13zm-.84-.63c-.04.05-.07.1-.1.18l-.02.23v.2c.02.08.04.14.08.2.03.04.07.06.1.07.05.02.1 0 .14 0l.03-.03h.02c.08-.08.18-.14.27-.18.1-.06.22-.1.33-.1l.18-.1.14-.12s.02-.02.04 0c.03.03 0 .04 0 .05l-.14.12-.17.1c0 .04 0 .1-.02.14l-.08.16c-.03.03-.07.07-.13.1l-.2.1h-.02l-.1.05-.12.05h-.05c-.04-.1-.02-.2 0-.28h-.14c-.06 0-.12-.05-.15-.1-.05-.07-.08-.14-.1-.22v-.22c0-.1 0-.17.04-.25 0-.07.04-.14.1-.2 0 0 0-.02.03 0s.02.03 0 .04zm-.7.9c-.08-.07-.17-.13-.26-.18-.1-.05-.2-.08-.28-.1v.13c.02.04.04.1.08.12l.1.1.2.1c.05 0 .1.02.13.04.04 0 .06 0 .1.03 0-.08-.02-.16-.04-.24v-.04zm.35-.94l.1.2.02.25v.22c-.02.08-.04.15-.1.22-.03.05-.08.1-.14.1h-.14c.02.08.04.18 0 .27h-.04l-.12-.05-.1-.05c-.1-.03-.16-.06-.22-.1-.06-.03-.1-.07-.13-.1-.04-.05-.07-.1-.08-.16l-.02-.15c-.06-.05-.12-.08-.17-.1-.06-.05-.1-.1-.15-.13v-.05c.04-.02.05 0 .06 0l.13.1c.05.05.1.08.18.12.1 0 .2.04.33.1.1.04.2.1.3.17v.02c.02 0 .03.02.03.02.05.02.1.03.14 0 .04 0 .08-.02.1-.06.05-.06.07-.12.08-.2V45c0-.1 0-.16-.02-.23-.03-.07-.06-.13-.1-.18v-.04c.04-.02.05 0 .06 0zm-.34 1.54c.03-.07.07-.13.12-.2l.15-.14s.03-.02.05 0c.02.03 0 .04 0 .05-.06.04-.1.1-.15.14-.05.06-.08.1-.1.18-.02.02-.03.03-.06.02-.03-.02-.02-.03 0-.05zm.2-.9l-.4-.27c-.13-.06-.25-.1-.33-.1-.02.02-.04.02-.04-.02 0-.03 0-.03.02-.03.1 0 .23.03.36.1.14.06.28.16.4.28.02 0 .04.02 0 .05 0 .02-.02 0-.03 0zm.52-.04c.14-.1.26-.2.38-.26.12-.07.22-.1.32-.1.02 0 .03 0 .03.04s0 .04-.02.04c-.1 0-.18.03-.3.1-.1.05-.22.13-.36.24 0 .02-.02.03-.04 0s0-.04 0-.05"/>
  <path d="M125.48 45.38c.04 0 .08.03.08.07 0 .04-.04.08-.08.08s-.08-.04-.08-.08.04-.08.08-.08zm0-.06c.07 0 .13.06.13.13s-.05.13-.12.13c-.07 0-.13-.05-.13-.13 0-.07.06-.13.13-.13zm0-.06c.1 0 .2.1.2.2s-.1.2-.2.2-.2-.1-.2-.2.1-.2.2-.2zm1.5.1c-.03 0-.07.04-.07.1 0 .03.05.07.1.07.03 0 .07-.04.07-.08 0-.05-.04-.08-.08-.08zm0-.04c-.06 0-.12.06-.12.13s.06.13.13.13c.06 0 .12-.06.12-.13s-.06-.13-.13-.13zm0-.06c-.1 0-.18.08-.18.2 0 .1.08.18.2.18.1 0 .18-.1.18-.2s-.1-.18-.2-.18M122.28 33.1c-.02 0-.04 0-.06.03l-.45.66c-.17.06-.2.16-.14.3-.23 0-.25.2-.24.4-.25-.32-.5-.4-.75-.23-.02-.2-.18-.3-.4-.33-.17 0-.3-.04-.4-.1l-.16-.1c-.12-.07-.2 0-.16.08l.77 1.12c0 .07.03.13.1.18l.14.34c0 .03 0 .07-.02.1-.2-.08-.4-.08-.6-.1-.15.02-.25-.02-.32-.1-.05-.05-.1 0-.08.1.02.46.2.88.6 1.28l-.62.05c-.07 0-.08.03-.06.1.13.25.33.5.77.63-.17.1-.27.27-.3.48 0 .2-.04.35-.15.42-.06.04-.08.07-.02.1.23.15.5.15.8.06-.13.25-.18.5-.14.76.18.04.36 0 .53-.07-.02.06-.03.16-.03.28 0 .1-.03.2-.08.3-.02.04-.05.08 0 .1.3.06.6.02.82-.1 0 .23.02.45.1.66.02.06.07.1.1.02.14-.2.28-.36.46-.48.03.08.07.15.15.2.08.03.14.13.15.28 0 .03 0 .06.03.08.14 0 .44-.36.5-.55.2.1.26.2.4.4.06.05.1 0 .12-.04.05-.2.04-.42.03-.64.24.08.52.1.8 0 .08-.02.04-.06 0-.1-.05-.1-.1-.2-.1-.3-.02-.12-.02-.2-.05-.26.18.05.36.08.54.02.02-.27-.07-.5-.22-.75.3.06.58.04.8-.14.05-.03.03-.06-.03-.1-.12-.05-.2-.2-.2-.38-.04-.2-.15-.36-.35-.45.43-.2.6-.44.7-.72.02-.06 0-.08-.07-.1-.2.02-.42 0-.63.02.37-.44.5-.88.47-1.35 0-.1-.04-.13-.1-.07-.05.08-.14.13-.3.14-.18.03-.37.04-.57.14l-.03-.1.12-.35c.07-.04.1-.1.07-.17l.64-1.2c.04-.07-.05-.14-.16-.05l-.14.1c-.1.07-.22.13-.38.14-.22.06-.36.17-.36.38-.27-.15-.5-.04-.7.3-.03-.2-.07-.4-.3-.36.06-.16 0-.26-.17-.3-.18-.22-.43-.4-.6-.62-.03-.03-.05-.04-.07-.04"/>
  <path fill="#f3da34" d="M124.6 34.2c-.06 0-.12.03-.15.1s-.02.16.02.18c.04 0 .08 0 .1-.06l.02-.03v-.02c.03-.07.03-.15 0-.17M120.14 34.43c.04-.02.1 0 .15.08.02.08.03.15-.02.18-.04.03-.1-.02-.13-.1-.03-.05-.05-.12 0-.15M124.2 35.03c-.02 0-.04.03-.04.06 0 .02.03.04.06.04.02 0 .05-.03.05-.05 0-.04-.03-.07-.06-.06M120.63 35.2c-.03.02-.05.04-.05.07 0 .03.02.05.05.05.03 0 .06-.03.05-.05 0-.03-.02-.06-.05-.06M124.43 34.75c-.67-.04-1.34-.05-2 0-.68.02-1.35.1-2.02.2-.02 0 0 .07.02.06.67-.08 1.34-.15 2-.2.66-.02 1.32-.02 1.98.03.04 0 .05-.07.03-.08"/>
  <path fill="#f3da34" d="M120.4 34.88c.66-.1 1.34-.17 2-.2.68-.04 1.35-.03 2.03 0l.1-.15h-.1c-.06-.04-.08-.14-.03-.25.04-.1.13-.16.2-.13.04.02.06.05.07.1l.36-.68c-.17.13-.28.2-.5.25-.25.05-.36.14-.32.3.05.13-.03.1-.16.05-.3-.14-.48.08-.57.34-.05.18-.13.18-.15 0v-.17c-.04-.2-.1-.25-.2-.2-.15.1-.17.04-.14-.04.02-.06.07-.12.05-.2 0-.07-.06-.08-.14-.1-.18-.2-.44-.4-.62-.6l-.46.67c-.07 0-.12.03-.13.1-.02.07.04.13.07.18.04.07.03.12-.12.06-.1-.04-.16 0-.17.2v.2c0 .17-.08.18-.15.02-.1-.25-.34-.45-.6-.3-.13.1-.2.1-.17-.03 0-.16-.1-.24-.36-.26-.23-.02-.34-.1-.53-.2l.4.6.05-.07c.07-.03.16.02.22.12.05.1.04.2-.02.23h-.03l.1.15M124.32 35.5h-.02c-.04.03-.06.07-.1.12l-.2.18s0 .02-.03 0c-.02-.02 0-.03 0-.04l.18-.17.06-.1h-.24c-.07 0-.14.04-.2.08-.05.03-.1.07-.1.12-.02 0-.03.02-.05 0-.02 0 0-.02 0-.03.03-.05.07-.1.13-.14l.1-.05h-.3l-.04.04c-.03 0-.05.04-.06.06 0 0-.02.03-.04 0-.02 0-.02-.02 0-.03 0-.03.02-.05.04-.07h-.2c-.03 0-.04.03-.06.05l-.03.06s0 .02-.03 0c-.03 0-.02 0-.02-.03l.04-.07s0-.02.02-.03h-.3l-.02.02c-.02 0-.04 0-.06.03 0 .02-.02.04-.04.06h-.03c-.02 0 0-.02 0-.04l.04-.07.02-.02h-.32c-.1.02-.22.02-.32.03 0 0 0 .02.02.02l.05.07-.02.03h-.04c0-.03-.02-.05-.04-.06l-.06-.04-.02-.02-.3.04.02.03.05.07s0 .03-.02.04h-.04c0-.04-.02-.06-.04-.07l-.05-.04h-.22v.02l.07.07v.04c-.03 0-.04 0-.05-.02 0-.02-.03-.04-.05-.06-.02 0-.04-.03-.06-.04l-.3.03.12.06c.06.04.1.08.14.13 0 0 .02 0 0 .03h-.04c-.03-.05-.08-.1-.13-.12l-.22-.07c-.08 0-.15.03-.23.04l.08.1c.05.04.1.1.2.14v.05c-.02.02-.03 0-.04 0l-.2-.15c-.02-.03-.08-.1-.12-.12-.17-.07-.32-.1-.5-.1-.15 0-.3 0-.42-.06.03.08.07.15.12.2.05.06.1.1.2.12v.02c.04.15.1.26.18.34.05.05.1.1.17.13-.07-.07-.12-.14-.16-.22-.07-.1-.1-.24-.1-.36 0 0 0-.03.04-.03s.04.03.04.04c0 .1 0 .23.08.34.05.1.15.2.27.3 0 .02 0 .06-.03.05-.14-.03-.27-.1-.35-.2-.1-.08-.15-.2-.18-.33-.08-.03-.15-.08-.2-.14-.05-.05-.1-.1-.12-.18.05.38.2.7.46 1 .05.06.15.15.23.17.1.03.1.1 0 .1h-.1l.22.08c.12.06.2.14.2.24v.03c-.04 0-.04 0-.05-.03 0-.08-.08-.14-.18-.2-.1-.04-.24-.08-.37-.1h-.4l.1.08c.1.03.18.07.32.1.08 0 .15.03.2.06l.18.14s.02.02 0 .04c-.03.02-.03 0-.04 0-.05-.05-.1-.1-.16-.12-.06-.03-.12-.05-.2-.06-.14-.03-.24-.06-.32-.1l-.17-.1c.18.34.42.5.77.57.02 0 .04 0 .06.02l.24.03.24.02s.02 0 .02.03 0 .03-.03.03c-.08 0-.15 0-.23-.02-.06 0-.1 0-.16-.02l-.1.02c-.2.02-.35.2-.36.45v.02c.08-.08.15-.15.24-.2.1-.07.2-.1.32-.08 0 0 .03 0 .02.03 0 .03-.02.03-.04.03-.1-.02-.18 0-.27.07-.1.06-.18.15-.27.24-.02.13-.06.25-.17.34.06.03.1.05.15.03l.23-.1c.1-.03.17-.05.26-.06 0 0 .02 0 .03.03 0 .02-.03.03-.04.03-.08 0-.16.03-.23.06l-.2.08c.2.04.4-.02.6-.1l.1-.04.16-.07.15-.06s.03 0 .03.02 0 .02-.02.03c-.1 0-.12.02-.2.08 0 .02-.05.06-.1.1l-.08.06c-.08.08-.12.17-.15.26-.03.07-.04.13-.05.2.04-.1.1-.2.16-.27.08-.1.18-.2.3-.25 0 0 .02-.02.04 0 0 .03 0 .04-.02.04-.1.06-.2.15-.27.24-.1.1-.15.2-.2.32l-.03.07c.1-.1.18-.2.28-.28.1-.1.24-.16.36-.15.03 0 .04 0 .04.03s-.02.03-.03.03c-.1 0-.22.04-.32.13-.1.1-.2.2-.3.34.16 0 .32-.04.47-.1.08-.03.16-.13.2-.15l.05-.06.1-.1h.03c.02.03 0 .04 0 .05l-.08.1-.08.1h-.02c-.05.08-.13.16-.14.24-.03.18 0 .32-.07.5.06-.02.1-.06.15-.1.04-.07.08-.14.1-.22.03-.1.08-.18.14-.25.06-.07.14-.13.22-.16.02 0 .03 0 .04.02 0 .03 0 .03-.02.04-.07.03-.14.08-.2.15-.05.07-.1.15-.12.23-.03.1-.07.17-.12.23-.03.05-.08.1-.13.12h.1c.07-.02.18-.08.24-.13.05-.05.1-.1.13-.2h.03c.03 0 .02.02.02.03-.04.1-.08.16-.14.2-.05.05-.1.1-.18.1.15 0 .28-.05.4-.1.07-.03.08-.16.12-.2l.08-.14c.05-.05.1-.1.14-.12h.04v.05c-.06.02-.1.06-.13.1l-.08.14-.03.28c0 .18 0 .37.07.54l.15-.18.02-.3c0-.1 0-.2-.02-.3 0 0 0-.03.02-.03.03 0 .03.02.03.03l.03.3c0 .1 0 .17-.02.25.06-.05.06-.05.08-.1.03-.07.04-.14.05-.2 0-.08 0-.15-.03-.22 0 0 0-.02.02-.03.03 0 .03 0 .04.02.02.07.03.14.02.22 0 .06 0 .12-.03.18l.15-.12v-.2-.17s0-.03.03-.03c.04 0 .04.03.03.04v.38c.02.07.07.16.13.2.1.05.14.13.17.23 0-.13 0-.25-.02-.35-.02-.13-.05-.24-.1-.33-.02 0-.03-.02 0-.04h.04c.05.1.1.22.1.36.03.12.04.27.02.43.1-.08.33-.25.3-.54l-.04-.06s-.02-.02 0-.04h.05c0 .04.03.07.04.1V40c.02 0 .05-.04.05-.04l.08.04-.05-.15v-.23s0-.03.04-.02v.25l.07.2v.02l.08.06-.04-.22v-.3c0-.02 0-.04.03-.03.03 0 .03 0 .03.03v.3c.02.1.03.2.06.28.05.06.1.1.14.18.04-.2.05-.37.03-.55 0-.08-.08-.2-.08-.27-.03-.05-.06-.1-.1-.13-.04-.05-.08-.08-.12-.1-.02 0-.03 0-.02-.03 0-.03.02-.02.04-.02.05.02.1.06.15.1l.1.14c.05 0 .07.15.13.17.14.05.27.07.4.07-.06 0-.12-.04-.17-.07-.07-.05-.12-.12-.16-.2 0 0-.02-.02 0-.04h.05c.03.1.08.15.14.2.08.05.26.1.36.1l-.14-.12c-.06-.05-.1-.12-.14-.2-.03-.1-.08-.16-.15-.22-.07-.06-.14-.1-.22-.13-.02 0-.03 0-.02-.03 0-.03.02-.03.03-.02.08.03.16.07.23.14.07.06.13.14.16.23.03.08.07.15.12.2.04.05.1.08.16.1-.1-.17-.07-.3-.13-.5-.04-.1-.22-.23-.2-.27.05-.05.13.07.24.1.15.05.3.08.47.05-.1-.1-.23-.23-.34-.3-.1-.08-.22-.12-.32-.1h-.02c0-.04 0-.04.02-.05.12-.02.24.02.36.1.1.07.2.15.3.25l-.04-.07c-.06-.1-.12-.2-.2-.3-.1-.08-.2-.15-.3-.2-.02 0-.03 0-.02-.04 0-.02.02-.02.03 0 .13.04.23.12.32.2l.2.27c-.02-.06-.04-.12-.08-.18-.04-.1-.1-.18-.18-.25-.06-.05-.2-.12-.2-.15-.02 0-.03 0-.05-.02-.06-.02-.1-.04-.15-.04-.02 0-.03 0-.03-.03s.02-.03.03-.03c.05 0 .1.02.17.05.03 0 .06.03.1.05l.17.05c.2.06.4.1.6.04l-.2-.08c-.08-.02-.16-.04-.24-.04 0 0-.03 0-.03-.02 0-.03.02-.03.03-.03.1 0 .17 0 .25.04l.24.08c.04.02.08 0 .13-.05-.1-.07-.17-.2-.2-.32-.1-.08-.2-.16-.3-.2-.08-.06-.18-.1-.27-.06h-.04c0-.04 0-.04.02-.05.1-.04.22 0 .33.05.08.04.17.1.25.17v-.02c-.02-.24-.2-.42-.4-.42-.08 0-.18.03-.18-.02s.1-.05.2-.1c.35-.1.58-.28.72-.64l-.16.12c-.07.04-.17.1-.3.13-.08.02-.15.05-.2.08l-.14.13s0 .02-.04 0c-.02 0 0-.02 0-.03.04-.06.1-.1.15-.14.06-.05.12-.08.2-.1.14-.04.23-.08.3-.13.05-.02.08-.05.12-.08h-.42c-.13.06-.26.1-.35.17-.1.06-.16.13-.16.2 0 .02 0 .03-.03.03s-.03 0-.03-.02c0-.1.1-.2.2-.26l.2-.1h-.1c-.1 0-.1-.05 0-.1.06-.02.15-.12.2-.2.23-.3.33-.64.35-1l-.1.17c-.04.05-.1.1-.18.14-.02.14-.07.27-.14.36-.08.1-.2.18-.32.22-.02 0-.04-.03-.02-.04.1-.1.2-.22.23-.32.06-.12.07-.24.06-.35 0 0 0-.02.02-.02.03 0 .03 0 .03.02.03.12.02.25-.04.38-.03.08-.07.15-.14.23.07-.03.12-.08.16-.13.07-.1.12-.2.13-.35.02 0 .03-.02.03-.03.08-.03.14-.08.18-.15.06-.06.1-.13.1-.2-.1.06-.25.07-.4.1-.18 0-.3.06-.47.15"/>
  <path fill="#f3da34" d="M124.26 35.34c-.6-.05-1.2-.04-1.8 0-.62.02-1.23.1-1.84.18-.02 0 0 .03 0 .04 0 .03.03.03.1.02.57-.08 1.14-.13 1.7-.16.6-.03 1.2-.05 1.83 0 .03 0 .06-.08 0-.08"/>
  <path fill="#f3da34" d="M121.44 35.1c-.03 0-.05.03-.05.06s.02.05.04.05c.03 0 .06-.02.05-.05 0-.02-.03-.05-.06-.05zm0-.05c-.06 0-.1.05-.1.1 0 .07.05.12.1.12.07 0 .1-.06.1-.12s-.04-.1-.1-.1zm.94-.02c-.02 0-.05.03-.05.06 0 .02.03.04.06.04.02 0 .04-.03.04-.06 0-.02-.03-.05-.06-.05zm0-.05c-.06 0-.1.05-.1.1 0 .07.05.12.1.12.07 0 .12-.06.12-.12s-.06-.1-.12-.1zm.97.03c-.03 0-.06.04-.05.07 0 .03.02.05.05.05.03 0 .05-.03.05-.06s-.02-.05-.05-.05zm0-.05c-.07 0-.1.06-.1.12s.04.1.1.1c.06 0 .1-.05.1-.1 0-.07-.05-.12-.1-.12zm-2.7.5c.6-.08 1.2-.15 1.8-.18.6-.03 1.2-.02 1.8.02l.02-.12c-.02 0-.03 0-.05.02-.06 0-.1-.05-.12-.1 0-.07.05-.12.1-.12s.1.02.1.06l.06-.15c-.65-.06-1.3-.06-1.93-.03-.65.03-1.3.1-1.95.2l.06.14c.02-.02.05-.04.1-.04s.1.04.1.1c0 .06-.04.1-.1.1h-.03l.04.1"/>
  <path d="M122.4 34.2l.08-.12.08-.08c-.04-.02-.1-.06-.13-.1l-.07-.1c0 .05-.03.1-.06.14-.02.05-.06.08-.1.1l.13.08c.03.02.06.05.08.1zm0 .12l-.1-.15c-.05-.04-.1-.07-.18-.07-.03 0-.03-.05 0-.06.05-.02.1-.07.13-.13.04-.05.06-.13.07-.22 0-.03.06-.03.06 0 .02.07.05.13.1.18.05.05.1.1.17.1.03.02.03.07 0 .07-.05 0-.1.04-.12.1-.04.04-.07.12-.08.2 0 .02-.05.02-.06 0M122.37 39.28l.35-.03c.02 0 .04 0 .04.04 0 .02-.02.02-.03.02l-.36.03c-.02 0-.03 0-.03-.03 0-.04 0-.04.03-.04zm-.33-.17c.13.03.23.04.32.02.08-.02.14-.06.16-.14l-.02-.44c-.1 0-.2 0-.27-.02-.1-.02-.16-.08-.2-.15-.03-.1-.02-.2 0-.3 0 0 0-.02.03 0 .04 0 .03 0 .03.03-.02.07-.03.17 0 .25.03.05.07.1.14.1.08.03.18.03.28.03.1 0 .2-.02.27-.05.06-.02.1-.07.15-.12.04-.04.05-.1.04-.15 0-.03-.03-.05-.05-.07-.04-.02-.08-.02-.12-.02-.04 0-.08 0-.12.02h-.06c-.02 0-.03.02-.04 0 0-.05 0-.05.02-.05.03 0 .05 0 .07-.02h.13c.05 0 .1 0 .15.03.04.02.07.06.08.1 0 .08 0 .16-.05.22-.04.06-.1.1-.2.14l-.23.04.02.43c.03.08.1.12.17.13.08 0 .2 0 .3-.04.03 0 .04 0 .05.02 0 .03 0 .04-.02.04-.13.04-.25.06-.34.05-.08-.02-.15-.05-.2-.1-.04.06-.1.1-.2.1-.08.04-.2.03-.33 0-.02 0-.03 0-.03-.04 0-.03.02-.03.04-.02zm-.22-.37l.47.16s.02 0 0 .04c0 .03-.02.02-.03.02l-.47-.16c-.02 0-.03 0-.02-.05 0-.03.03-.02.04-.02zm-.06-.28l.55.27c.03 0 .05 0 .03.04 0 .03-.03.02-.04 0l-.57-.25s-.02 0 0-.03c0-.03.02-.03.03-.02zm1.63-.02l-.53.32h-.05c-.02-.04 0-.05 0-.06l.53-.33c.02 0 .03-.02.05 0 .02.04 0 .05 0 .06zm-.05.3l-.45.2s-.03 0-.04-.02c-.02-.02 0-.03 0-.04l.46-.2h.05c0 .04 0 .05-.02.06M123.56 36.55c-.1.02-.2.05-.28.1-.1.05-.18.1-.27.2 0 .1-.04.18 0 .25l.07-.04.1-.06c.1-.03.15-.07.2-.1.06-.03.1-.07.12-.1l.04-.13.02-.12zm-.87-.6c-.05.06-.08.12-.1.2 0 .06-.02.14 0 .22v.2c.02.08.04.14.1.2.02.04.06.06.1.07.04 0 .1 0 .13-.02 0 0 .02 0 .02-.02l.03-.02c.1-.07.18-.14.27-.18.1-.06.2-.1.32-.12l.18-.1.13-.13s.02-.02.04 0c.03.02.02.03 0 .04l-.13.12-.18.1v.17c-.02.04-.04.1-.08.14-.03.04-.07.08-.13.12-.04.03-.1.07-.2.1l-.1.06-.1.06c-.03 0-.05 0-.06-.02-.05-.08-.03-.18 0-.27h-.15c-.07 0-.12-.04-.17-.1-.05-.06-.08-.13-.1-.2v-.23-.25l.1-.2s.02-.03.05 0c.03 0 .02.02 0 .04zm-.66.93l-.28-.15c-.1-.04-.2-.07-.28-.07 0 .04 0 .08.02.12 0 .04.03.08.07.1v.02c.03.03.07.06.12.08l.2.1.1.03.1.04c0-.07-.02-.15-.05-.23v-.02zm.3-.94c.04.05.07.12.1.2.03.06.04.14.05.24v.22c-.02.07-.04.15-.08.22-.04.06-.1.1-.15.1-.04.02-.1.02-.14 0 .03.1.05.2.02.28 0 .02-.03.03-.05.02-.04 0-.07-.03-.1-.05-.05 0-.1-.03-.13-.04-.1-.03-.16-.05-.22-.1-.05-.02-.1-.05-.13-.1-.04-.03-.07-.08-.1-.13v-.16l-.2-.1-.14-.1s-.02-.03 0-.05c.02-.03.03-.02.04 0l.14.1.2.1c.1 0 .2.02.32.07l.3.15s0 .02.02.02l.02.02c.05 0 .1.02.13 0 .05 0 .08-.03.1-.07.05-.07.07-.14.08-.2v-.22l-.05-.23-.1-.17s-.02-.02 0-.05c.03-.02.04 0 .05 0zm-.26 1.55c.03-.08.06-.15.1-.2l.15-.17c.02 0 .03-.02.05 0 .02.03 0 .04 0 .05l-.14.15-.1.2s0 .02-.04 0c-.03 0-.03-.02-.02-.04zm.14-.9c-.13-.12-.27-.2-.4-.27-.14-.05-.25-.08-.33-.07-.03 0-.05 0-.05-.03s0-.03.03-.03c.1-.02.22 0 .36.07.14.06.3.16.42.27.02 0 .03.02 0 .05h-.04zm.54-.1l.36-.27c.1-.07.22-.1.3-.1.03 0 .05 0 .05.03s-.02.03-.04.03c-.08 0-.17.03-.28.1-.1.06-.22.15-.35.27 0 0-.02.02-.05 0-.02-.03 0-.04 0-.05"/>
  <path d="M121.77 36.8c.04 0 .08.04.08.08s-.03.08-.08.08c-.04 0-.07-.03-.08-.07 0-.05.02-.1.07-.1zm0-.04c.07 0 .13.05.13.12 0 .07-.05.13-.12.14-.08 0-.14-.06-.14-.13 0-.08.05-.14.12-.14zm0-.07c.1 0 .2.07.2.17s-.08.2-.2.2c-.1 0-.2-.07-.2-.17s.08-.2.2-.2zm1.5.03c-.04 0-.07.04-.07.08 0 .05.04.08.08.08s.08-.04.07-.08c0-.04-.03-.07-.08-.07zm0-.06c-.07 0-.13.07-.12.14 0 .08.06.14.13.14.08 0 .13-.07.13-.14s-.06-.13-.13-.13zm0-.06c-.1.02-.2.1-.18.22 0 .1.08.18.2.18.1 0 .18-.1.17-.2 0-.1-.1-.2-.2-.2M130.15 33.1c.02 0 .04 0 .06.03l.47.66c.17.06.2.16.13.3.23 0 .25.2.25.4.24-.32.48-.4.73-.23.02-.2.18-.3.4-.33.17 0 .3-.04.4-.1l.16-.1c.12-.07.2 0 .15.08-.27.37-.52.74-.78 1.12 0 .07 0 .13-.1.18l-.13.34v.1c.2-.08.4-.08.6-.1.16.02.27-.02.34-.1.05-.05.08 0 .07.1 0 .46-.18.88-.6 1.28l.63.05c.07 0 .08.03.06.1-.13.25-.34.5-.77.63.18.1.28.27.3.48 0 .2.04.35.16.42.04.04.06.07 0 .1-.23.15-.5.15-.8.06.13.25.18.5.14.76-.2.04-.37 0-.54-.07.02.06.03.16.03.28 0 .1.03.2.08.3.04.04.06.08 0 .1-.3.06-.58.02-.8-.1-.02.23-.03.45-.1.66-.03.06-.08.1-.12.02-.13-.2-.27-.36-.45-.48-.03.08-.07.15-.15.2-.08.03-.13.13-.15.28 0 .03 0 .06-.03.08-.14 0-.44-.36-.5-.55-.2.1-.26.2-.4.4-.06.05-.1 0-.12-.04-.05-.2-.04-.42-.03-.64-.24.08-.52.1-.8 0-.07-.02-.04-.06 0-.1.05-.1.1-.2.1-.3.02-.12.03-.2.06-.26-.18.05-.36.08-.54.02 0-.27.07-.5.22-.75-.3.06-.58.04-.8-.14-.05-.03-.03-.06.02-.1.13-.05.2-.2.2-.38.05-.2.17-.36.35-.45-.42-.2-.6-.44-.7-.72 0-.06 0-.08.08-.1.2.02.42 0 .63.02-.37-.44-.5-.88-.47-1.35 0-.1.03-.13.08-.07.06.08.15.13.3.14.2.03.38.04.58.14l.03-.1c-.05-.1-.1-.23-.13-.35-.07-.04-.08-.1-.07-.17l-.63-1.2c-.05-.07.04-.14.15-.05l.15.1c.1.07.22.13.38.14.22.06.36.17.36.38.28-.15.52-.04.72.3.02-.2.06-.4.3-.36-.07-.16 0-.26.16-.3.18-.22.43-.4.6-.62.03-.03.05-.04.07-.04"/>
  <path fill="#f3da34" d="M127.84 34.2c.05 0 .1.03.15.1.02.07 0 .16-.04.18-.04 0-.07 0-.1-.06l-.02-.03v-.02c-.04-.07-.04-.15 0-.17M132.3 34.43c-.05-.02-.12 0-.16.08-.03.08-.04.15 0 .18.05.03.1-.02.14-.1.04-.05.06-.12 0-.15M128.22 35.03c.03 0 .05.03.05.06 0 .02-.02.04-.05.04-.03 0-.05-.03-.05-.05 0-.04.02-.07.05-.06M131.8 35.2c.03.02.05.04.05.07 0 .03-.02.05-.05.05-.03 0-.05-.03-.05-.05 0-.03.03-.06.05-.06M128 34.75c.67-.04 1.34-.05 2.02 0 .66.02 1.33.1 2 .2.03 0 .02.07 0 .06-.68-.08-1.34-.15-2-.2-.67-.02-1.33-.02-2 .03-.03 0-.04-.07-.02-.08"/>
  <path fill="#f3da34" d="M132.05 34.88c-.68-.1-1.36-.17-2.03-.2-.67-.04-1.34-.03-2.02 0l-.1-.15h.1c.06-.04.08-.14.04-.25-.05-.1-.14-.16-.2-.13-.05.02-.07.05-.08.1l-.36-.68c.18.13.28.2.5.25.25.05.36.14.32.3-.04.13.04.1.18.05.28-.14.48.08.56.34.06.18.13.18.15 0 .02-.05.02-.1.03-.17.02-.2.1-.25.2-.2.14.1.15.04.12-.04-.02-.06-.07-.12-.05-.2 0-.07.06-.08.14-.1.17-.2.44-.4.6-.6l.47.67c.08 0 .14.03.14.1s-.05.13-.08.18c-.04.07-.03.12.12.06.12-.04.16 0 .17.2v.2c0 .17.08.18.15.02.12-.25.34-.45.6-.3.14.1.2.1.18-.03-.02-.16.1-.24.35-.26.23-.02.35-.1.53-.2l-.4.6c0-.04-.03-.05-.05-.07-.05-.03-.15.02-.2.12-.06.1-.05.2 0 .23h.04l-.1.15M128.1 35.5h.03c.04.03.07.07.1.12l.2.18s0 .02.03 0c.02-.02 0-.03 0-.04l-.17-.17-.08-.1h.26c.07 0 .13.04.2.08.04.03.08.07.1.12 0 0 .02.02.04 0 .03 0 .02-.02 0-.03 0-.05-.06-.1-.12-.14l-.1-.05h.3l.05.04c.02 0 .03.04.05.06 0 0 0 .03.03 0 .03 0 .02-.02 0-.03 0-.03-.02-.05-.04-.07h-.02.22c.02 0 .04.03.05.05l.03.06s0 .02.03 0c.04 0 .04 0 .03-.03l-.03-.07-.03-.03h.3s.02 0 .02.02c0 0 .03 0 .05.03 0 .02.03.04.04.06h.03c.02 0 0-.02 0-.04l-.04-.07c-.02 0-.02-.02-.03-.02h.33c.1.02.2.02.32.03l-.02.02-.06.07v.03h.05c0-.03.02-.05.03-.06l.06-.04v-.02l.3.04v.03c-.03.02-.05.04-.06.07 0 0 0 .03.02.04h.03c0-.04 0-.06.03-.07.02 0 .03-.03.05-.04h.23v.02l-.07.07v.04c.03 0 .04 0 .05-.02l.05-.06c.02 0 .04-.03.06-.04l.3.03-.12.06c-.06.04-.12.08-.15.13 0 0-.02 0 0 .03h.05c.02-.05.07-.1.12-.12l.23-.07c.08 0 .16.03.23.04l-.08.1c-.05.04-.1.1-.2.14v.05c.02.02.04 0 .05 0l.2-.15c.03-.03.08-.1.12-.12.18-.07.32-.1.52-.1.13 0 .28 0 .4-.06l-.1.2c-.07.06-.13.1-.2.12l-.03.02c-.03.15-.08.26-.16.34-.05.05-.1.1-.18.13.07-.07.13-.14.17-.22.06-.1.1-.24.08-.36 0 0 0-.03-.03-.03s-.03.03-.02.04c0 .1-.02.23-.08.34-.06.1-.16.2-.28.3-.02.02 0 .06.03.05.14-.03.26-.1.35-.2.08-.08.14-.2.17-.33.08-.03.14-.08.2-.14.04-.05.08-.1.1-.18-.03.38-.2.7-.44 1-.06.06-.16.15-.24.17-.08.03-.1.1 0 .1h.1l-.2.08c-.12.06-.2.14-.22.24 0 0 0 .02.03.03.03 0 .03 0 .03-.03 0-.08.08-.14.18-.2.1-.04.24-.08.36-.1h.4c-.02.03-.06.06-.1.08-.08.03-.18.07-.32.1-.08 0-.15.03-.2.06l-.17.14v.04c.03.02.04 0 .05 0 .04-.05.1-.1.15-.12.05-.03.12-.05.2-.06.13-.03.24-.06.3-.1.08-.03.14-.07.18-.1-.17.34-.42.5-.77.57 0 0-.03 0-.04.02-.1 0-.17.02-.25.03l-.22.02c-.02 0-.03 0-.03.03s.02.03.03.03c.1 0 .16 0 .24-.02.05 0 .1 0 .15-.02.02 0 .06 0 .1.02.2.02.36.2.36.45v.02c-.07-.08-.15-.15-.23-.2-.1-.07-.2-.1-.32-.08-.02 0-.03 0-.03.03s.02.03.04.03c.08-.02.18 0 .27.07.1.06.18.15.26.24.02.13.06.25.17.34-.06.03-.1.05-.15.03l-.22-.1c-.08-.03-.16-.05-.25-.06-.02 0-.03 0-.03.03 0 .02 0 .03.02.03.08 0 .16.03.24.06l.2.08c-.2.04-.4-.02-.6-.1l-.1-.04-.15-.07-.16-.06c-.03 0-.04 0-.05.02 0 .02 0 .02.03.03.1 0 .1.02.2.08 0 .02.05.06.1.1l.07.06c.08.08.12.17.16.26.03.07.05.13.06.2-.05-.1-.1-.2-.17-.27-.1-.1-.18-.2-.3-.25 0 0-.03-.02-.04 0v.04c.12.06.2.15.3.24.06.1.12.2.17.32l.03.07-.27-.28c-.12-.1-.26-.16-.38-.15 0 0-.03 0-.02.03 0 .03.02.03.03.03.1 0 .22.04.32.13.1.1.2.2.3.34-.15 0-.3-.04-.47-.1-.08-.03-.15-.13-.2-.15l-.05-.06-.08-.1h-.05v.05l.1.1c0 .03.04.06.06.1h.02c.05.08.13.16.14.24.05.18 0 .32.1.5-.07-.02-.12-.06-.16-.1-.05-.07-.08-.14-.1-.22-.03-.1-.08-.18-.14-.25-.07-.07-.14-.13-.23-.16-.02 0-.03 0-.04.02-.02.03 0 .03 0 .04.1.03.16.08.2.15.07.07.1.15.14.23.03.1.06.17.1.23.05.05.1.1.15.12h-.1c-.08-.02-.2-.08-.25-.13-.06-.05-.1-.1-.13-.2h-.04c-.02 0-.02.02 0 .03.02.1.07.16.13.2.05.05.1.1.17.1-.14 0-.27-.05-.4-.1-.07-.03-.08-.16-.1-.2l-.1-.14c-.04-.05-.1-.1-.14-.12h-.05c0 .04 0 .05.02.05.04.02.08.06.12.1l.06.14c0 .07.04.2.04.28 0 .18-.02.37-.08.54-.04-.06-.1-.12-.13-.18l-.03-.3c0-.1 0-.2.02-.3 0 0 0-.03-.04-.03-.02 0-.03.02-.03.03-.02.1-.02.2-.02.3l.02.25-.06-.1c-.03-.07-.05-.14-.05-.2 0-.08 0-.15.03-.22 0 0 0-.02-.02-.03-.02 0-.02 0-.02.02-.02.07-.03.14-.03.22 0 .06.02.12.04.18l-.16-.12v-.2-.17s0-.03-.04-.03-.03.03-.03.04v.38c-.02.07-.06.16-.13.2-.1.05-.15.13-.17.23v-.35c.03-.13.07-.24.13-.33v-.04h-.05c-.06.1-.1.22-.13.36-.02.12-.02.27 0 .43-.1-.08-.33-.25-.3-.54l.04-.06v-.04h-.05c0 .04-.02.07-.03.1V40c-.03 0-.05-.04-.06-.04l-.06.04c.02-.05.04-.1.04-.15.02-.08.02-.16 0-.23 0 0 0-.03-.03-.02-.03 0-.02.02-.02.03v.22c0 .06-.03.13-.07.2v.02l-.07.06.03-.22v-.3c0-.02 0-.04-.03-.03-.02 0-.02 0-.02.03v.3l-.06.28c-.05.06-.1.1-.14.18-.04-.2-.05-.37-.04-.55 0-.08.08-.2.08-.27.02-.05.06-.1.1-.13.03-.05.07-.08.12-.1 0 0 .03 0 .02-.03 0-.03-.03-.02-.04-.02-.06.02-.1.06-.15.1l-.1.14c-.05 0-.08.15-.14.17-.14.05-.26.07-.4.07.06 0 .12-.04.18-.07.07-.05.13-.12.17-.2v-.04h-.05c-.04.1-.1.15-.15.2-.08.05-.26.1-.36.1.07-.04.12-.08.16-.12.05-.05.1-.12.13-.2.03-.1.08-.16.14-.22.06-.06.14-.1.22-.13 0 0 .02 0 .02-.03s-.02-.03-.04-.02c-.1.03-.17.07-.24.14-.06.06-.12.14-.16.23-.03.08-.07.15-.12.2-.05.05-.1.08-.17.1.1-.17.08-.3.14-.5.03-.1.2-.23.17-.27-.03-.05-.12.07-.22.1-.16.05-.32.08-.5.05.13-.1.24-.23.36-.3.1-.08.22-.12.32-.1h.04c0-.04 0-.04-.02-.05-.12-.02-.24.02-.37.1-.1.07-.18.15-.3.25l.04-.07.22-.3c.1-.08.2-.15.3-.2.02 0 .03 0 .02-.04 0-.02-.03-.02-.04 0-.12.04-.23.12-.32.2l-.2.27.08-.18c.04-.1.1-.18.18-.25.06-.05.2-.12.2-.15l.05-.02c.05-.02.1-.04.14-.04 0 0 .03 0 .02-.03 0-.03 0-.03-.03-.03-.04 0-.1.02-.16.05-.03 0-.06.03-.1.05-.04 0-.1.03-.18.05-.2.06-.4.1-.6.04l.2-.08c.08-.02.15-.04.24-.04 0 0 .02 0 .02-.02 0-.03 0-.03-.02-.03-.1 0-.18 0-.26.04l-.23.08c-.06.02-.1 0-.14-.05.12-.07.17-.2.2-.32.1-.08.2-.16.3-.2.1-.06.18-.1.28-.06h.03c.02-.04 0-.04 0-.05-.12-.04-.22 0-.33.05-.1.04-.17.1-.25.17v-.02c.02-.24.2-.42.4-.42.07 0 .17.03.17-.02s-.1-.05-.2-.1c-.35-.1-.58-.28-.72-.64l.15.12c.08.04.18.1.32.13l.2.08c.04.04.1.08.12.13 0 0 .02.02.04 0 .03 0 .03-.02.02-.03-.04-.06-.1-.1-.15-.14-.06-.05-.13-.08-.2-.1-.14-.04-.24-.08-.3-.13-.05-.02-.1-.05-.12-.08h.4c.13.06.26.1.36.17.1.06.17.13.17.2 0 .02 0 .03.03.03s.03 0 .02-.02c0-.1-.07-.2-.18-.26l-.2-.1h.1c.1 0 .1-.05 0-.1-.07-.02-.15-.12-.2-.2-.23-.3-.34-.64-.36-1l.1.17c.04.05.1.1.2.14 0 .14.05.27.13.36.1.1.2.18.33.22.02 0 .04-.03.03-.04-.12-.1-.2-.22-.23-.32-.06-.12-.07-.24-.05-.35 0 0 0-.02-.03-.02-.02 0-.03 0-.03.02 0 .12 0 .25.05.38.03.08.08.15.14.23-.05-.03-.1-.08-.15-.13-.07-.1-.1-.2-.13-.35 0 0 0-.02-.02-.03-.08-.03-.13-.08-.18-.15l-.1-.2c.12.06.27.07.4.1.2 0 .33.06.5.15"/>
  <path fill="#f3da34" d="M128.17 35.34c.6-.05 1.2-.04 1.82 0 .6.02 1.2.1 1.8.18.03 0 .02.03.02.04 0 .03-.03.03-.1.02-.58-.08-1.15-.13-1.72-.16-.6-.03-1.2-.05-1.82 0-.03 0-.06-.08 0-.08"/>
  <path fill="#f3da34" d="M131 35.1c.02 0 .04.03.04.06s-.02.05-.05.05c-.04 0-.06-.02-.06-.05 0-.02.02-.05.05-.05zm0-.05c.05 0 .1.05.1.1 0 .07-.05.12-.12.12-.06 0-.1-.06-.1-.12s.05-.1.1-.1zm-.95-.02c.03 0 .05.03.05.06 0 .02-.03.04-.06.04s-.05-.03-.05-.06c0-.02.02-.05.05-.05zm0-.05c.06 0 .1.05.1.1 0 .07-.05.12-.1.12-.07 0-.12-.06-.12-.12s.06-.1.12-.1zm-.96.03c.02 0 .04.04.04.07 0 .03-.03.05-.06.05s-.05-.03-.05-.06.03-.05.06-.05zm0-.05c.05 0 .1.06.1.12s-.06.1-.12.1-.1-.05-.1-.1c0-.07.05-.12.1-.12zm2.7.5c-.6-.08-1.2-.15-1.8-.18-.6-.03-1.2-.02-1.82.02l-.02-.12c.02 0 .03 0 .05.02.07 0 .12-.05.13-.1 0-.07-.05-.12-.1-.12s-.1.02-.1.06l-.06-.15c.65-.06 1.3-.06 1.94-.03.66.03 1.3.1 1.95.2l-.06.14c-.02-.02-.06-.04-.1-.04-.05 0-.1.04-.1.1 0 .06.03.1.1.1h.03l-.04.1"/>
  <path d="M130.02 34.2l-.07-.12-.08-.08c.05-.02.1-.06.13-.1l.07-.1.06.14c.03.05.06.08.1.1l-.13.08c-.03.02-.06.05-.08.1zm.02.12c.02-.06.05-.1.1-.15.05-.04.1-.07.17-.07.04 0 .05-.05.02-.06-.05-.02-.1-.07-.14-.13-.03-.05-.06-.13-.07-.22 0-.03-.04-.03-.05 0-.02.07-.05.13-.1.18-.05.05-.1.1-.17.1-.03.02-.03.07 0 .07.05 0 .1.04.12.1.04.04.07.12.08.2 0 .02.06.02.06 0M130.07 39.28l-.36-.03s-.02 0-.02.04c0 .02 0 .02.03.02l.36.03c.02 0 .03 0 .04-.03 0-.04-.02-.04-.03-.04zm.32-.17c-.13.03-.24.04-.33.02-.07-.02-.13-.06-.16-.14l.03-.44c.1 0 .2 0 .27-.02.1-.02.16-.08.2-.15.03-.1.03-.2 0-.3 0 0 0-.02-.03 0-.03 0-.03 0-.03.03.02.07.03.17 0 .25-.03.05-.07.1-.15.1-.1.03-.2.03-.28.03-.1 0-.2-.02-.27-.05-.07-.02-.13-.07-.17-.12-.03-.04-.05-.1-.04-.15 0-.03.02-.05.05-.07.02-.02.06-.02.1-.02.04 0 .1 0 .13.02h.07s.03.02.03 0c0-.05 0-.05-.02-.05l-.06-.02h-.14c-.05 0-.1 0-.15.03-.04.02-.07.06-.07.1-.02.08 0 .16.05.22.04.06.1.1.2.14l.24.04-.03.43c-.04.08-.1.12-.17.13-.1 0-.2 0-.32-.04-.02 0-.03 0-.04.02 0 .03.02.04.03.04.13.04.25.06.35.05.08-.02.15-.05.2-.1.04.06.1.1.18.1.1.04.2.03.34 0 .02 0 .04 0 .03-.04 0-.03-.02-.03-.04-.02zm.2-.37l-.46.16s-.03 0-.02.04c0 .03.03.02.05.02l.46-.16c.02 0 .03 0 .02-.05 0-.03-.03-.02-.04-.02zm.07-.28l-.55.27c-.02 0-.03 0-.02.04.02.03.03.02.05 0l.55-.25s.03 0 0-.03c0-.03-.02-.03-.03-.02zm-1.63-.02l.53.32h.04c.03-.04.02-.05 0-.06l-.52-.33c-.02 0-.03-.02-.05 0v.06zm.04.3l.45.2c.02 0 .03 0 .04-.02.02-.02 0-.03 0-.04l-.46-.2h-.03c-.02.04 0 .05 0 .06M128.88 36.55c.1.02.18.05.27.1.1.05.18.1.27.2.03.1.05.18.03.25-.03 0-.06-.03-.08-.04l-.12-.06-.2-.1-.1-.1c-.03-.04-.05-.08-.06-.13-.02-.03-.02-.08-.02-.12zm.87-.6c.03.06.06.12.08.2.02.06.02.14.02.22 0 .07 0 .14-.02.2 0 .08-.04.14-.08.2-.03.04-.07.06-.1.07-.06 0-.1 0-.15-.02l-.02-.02-.02-.02-.28-.18c-.1-.06-.2-.1-.32-.12-.07-.04-.12-.08-.18-.1l-.12-.13s-.03-.02-.05 0c-.02.02 0 .03 0 .04l.14.12.17.1c0 .06 0 .12.02.17 0 .04.04.1.07.14.02.04.06.08.12.12l.2.1.12.06.1.06c.02 0 .05 0 .05-.02.04-.08.02-.18 0-.27h.15c.05 0 .1-.04.15-.1.05-.06.08-.13.1-.2v-.23c.02-.1 0-.17 0-.25l-.1-.2s-.02-.03-.05 0c-.02 0 0 .02 0 .04zm.64.93l.28-.15c.1-.04.2-.07.28-.07 0 .04 0 .08-.02.12-.02.04-.04.08-.07.1v.02c-.03.03-.07.06-.12.08l-.2.1c-.05 0-.1.02-.13.03l-.08.04c-.02-.07 0-.15.04-.23v-.02zm-.3-.94c-.04.05-.08.12-.1.2-.03.06-.05.14-.05.24 0 .07-.02.14 0 .22 0 .07.02.15.07.22.03.06.08.1.14.1.05.02.1.02.14 0-.02.1-.05.2 0 .28 0 .02 0 .03.03.02.04 0 .08-.03.12-.05.04 0 .07-.03.1-.04.1-.03.17-.05.23-.1.06-.02.1-.05.14-.1.04-.03.06-.08.08-.13.02-.05.02-.1.03-.16l.18-.1c.07-.03.1-.06.15-.1.02 0 .03-.03 0-.05-.02-.03-.03-.02-.04 0l-.13.1c-.05.02-.12.05-.18.1-.12 0-.24.02-.35.07l-.3.15v.02c-.02 0-.03 0-.04.02-.03 0-.08.02-.12 0-.04 0-.08-.03-.1-.07-.05-.07-.06-.14-.07-.2v-.22c.02-.08.03-.16.06-.23.02-.06.06-.12.1-.17 0 0 .02-.02 0-.05-.03-.02-.04 0-.05 0zm.26 1.55l-.1-.2-.16-.17s-.03-.02-.05 0c-.02.03 0 .04 0 .05l.14.15.1.2s0 .02.04 0c.03 0 .02-.02 0-.04h.02zm-.15-.9c.14-.12.3-.2.42-.27.13-.05.24-.08.33-.07 0 0 .03 0 .04-.03 0-.03-.03-.03-.04-.03-.1-.02-.23 0-.37.07-.15.06-.3.16-.43.27 0 0-.03.02 0 .05h.04zm-.52-.1c-.13-.1-.25-.2-.37-.27-.1-.07-.2-.1-.3-.1-.02 0-.03 0-.03.03s0 .03.03.03c.08 0 .18.03.28.1.1.06.23.15.35.27 0 0 .02.02.05 0 .02-.03 0-.04 0-.05"/>
  <path d="M130.67 36.8c-.05 0-.08.04-.08.08-.02.04.02.08.06.08.04 0 .08-.03.08-.07 0-.05-.03-.1-.07-.1zm0-.04c-.07 0-.13.05-.14.12 0 .07.06.13.13.14.07 0 .13-.06.13-.13 0-.08-.06-.14-.13-.14zm0-.07c-.1 0-.2.07-.2.17s.08.2.18.2c.1 0 .2-.07.2-.17s-.07-.2-.18-.2zm-1.5.03c.03 0 .07.04.06.08 0 .05-.04.08-.08.08s-.08-.04-.07-.08c0-.04.04-.07.08-.07zm0-.06c.07 0 .12.07.12.14-.02.08-.08.14-.15.14-.07 0-.13-.07-.13-.14s.07-.13.14-.13zm0-.06c.1.02.18.1.18.22 0 .1-.1.18-.2.18s-.2-.1-.2-.2c.02-.1.1-.2.2-.2M136.55 37.04c.33-.08.65-.1.97.1.14.05.24.12.3.22.15-.1.3-.22.45-.3.22-.17.44-.3.67-.4.35-.16.68-.27 1.02-.3.36-.06.72-.06 1.08-.04.3.02.6.1.87.26l.76.37c.27.15.53.28.8.4.33.13.7.17 1.1.2.2 0 .4 0 .6-.06.15-.05.25.05.07.15-1.24.77-2.22.1-3.05-.2.3.2.58.4.8.62.32.3.67.62 1.3.9.38.18.8.3 1.32.32.18 0 .38-.02.6-.05.1-.02.14 0 .14.04 0 .03 0 .1-.07.15-.32.2-.63.27-.96.3-.63.03-1.32-.18-1.95-.52-.5-.27-.84-.6-1.24-.9-.4-.28-.73-.45-1.1-.53-.37-.07-.77-.07-1.1.04.1.02.18.06.24.12.17.1.4.15.7.2.17 0 .12.12-.14.26-.15.2-.35.3-.6.28-.38.24-.5.1-.64-.07 0 .1-.04.2-.08.3 0 .05.02.1 0 .16.05.08.08.17.06.26 0 .06.03.1.08.15.08.08.13.16.14.26 0 .06.03.12.08.17.08.06.15.1.23.2.22.08.32.25.36.47.17.06.24.18.27.32.1.04.18.1.23.17.34 0 .68 0 1 .03.28.03.52.2.73.45.15.02.3.03.44 0 .16-.07.32-.12.5-.14.3-.03.58-.04.86.03.2.04.34.14.46.28.17.2.44.17.67.07.3-.13.56-.13.88 0 .14-.04.27-.06.4-.05.12-.13.25-.16.38-.16.2 0 .35.04.3.3 0 .07-.04.14-.1.17-.1.2-.27.26-.5.24-.03.15-.08.26-.18.33.1.32 0 .45-.23.45-.05.1-.13.15-.26.13-.1.13-.2.2-.34.2.02.1.05.13.12.22.16.25-.1.35-.3.36.05.16.05.33.03.5.24.13.27.28.06.42.16.27.1.47-.2.62 0 .15-.02.3-.12.4-.07.05-.17.06-.1.17.12.2.1.43-.08.44-.04 0-.07 0-.08.06 0 .02 0 .04-.05.06-.2.12-.4.25-.6.4 0 0-.04.02-.07 0-.13.3-.37.58-.65.87-.03.22-.15.36-.35.44 0 .06-.06.1-.12.12.1.1.16.24.05.35-.14.15-.32.3-.5.34-.37.1-.6.07-.76-.08-.13-.12-.08-.22 0-.26-.22.02-.27-.1-.26-.27 0-.1.04-.08.12-.08.12 0 .24-.06.36-.1.04-.08.1-.14.18-.2.04-.27.2-.4.43-.5.2-.07.36-.24.53-.47l.3-.54c-.06-.08-.08-.18-.08-.27-.1-.06-.17-.12-.2-.2-.18 0-.24-.08-.27-.2h-.12c-.07.05-.15.1-.25.1-.13.13-.27.24-.4.33-.06.14-.16.2-.28.2-.33.05-.53.47-.72.64-.07.05-.12.15-.15.27-.02.22-.06.4-.18.4-.1 0-.12-.02-.12-.03h-.15c.1.1.1.23.02.34-.08.1-.2.14-.3.15-.25.02-.45 0-.63-.08-.17-.07-.2-.17-.18-.27-.13-.06-.15-.12-.14-.18.02-.07.1-.1.17-.1l.22-.06c.2-.23.44-.43.68-.53.07-.07.16-.15.26-.22.03-.2.16-.37.33-.53 0-.07.03-.15.08-.22v-.1c-.07-.14-.1-.3-.06-.42-.02-.05-.03-.13-.02-.2-.4.25-.53.16-.57-.03-.15.12-.3.18-.4 0-.13.05-.28.1-.42.04-.08.04-.18.08-.28.08-.05.1-.1.18-.18.26 0 .18-.07.36-.2.55-.06.18-.14.37-.25.57 0 .06-.02.12-.05.2.03.2-.04.32-.17.37-.03.1-.08.18-.15.27v.1c.04.13.04.26-.1.4l-.33.2c-.13.06-.26.02-.37-.02-.2-.07-.18-.14-.15-.2-.07.02-.14.02-.2 0l-.13-.1c-.04-.08-.05-.15.05-.2.13-.06.22-.1.32-.2.04-.1.08-.15.15-.16.06-.15.14-.25.24-.28.1-.18.17-.38.27-.55.03-.06.05-.12.04-.17 0-.05 0-.1.05-.13.02-.02.07-.03 0-.06-.03-.16 0-.32.07-.44.1-.15.23-.54.12-.72-.02-.1-.05-.23-.03-.33-.03 0-.06 0-.1-.02-.08-.05-.15 0-.22.1-.05.1-.1.22-.14.22-.04.3-.2.54-.35.6-.05.15-.07.3-.05.43 0 .15 0 .26-.07.28-.08 0-.15.06-.2.18 0 .04-.03.08-.03.13.1.1.08.25-.03.36-.23.23-.52.2-.83.1-.23-.1-.3-.18-.27-.27-.3-.03-.25-.27 0-.35.3-.07.52-.25.7-.5.03-.3.1-.52.26-.55 0-.2.07-.36.15-.52.08-.14.13-.3.1-.5-.18-.1-.18-.22-.02-.33.05-.04.05-.07-.02-.1-.1 0-.08-.1-.08-.2 0-.06-.03-.08-.07-.08-.24-.04-.18-.14-.08-.24.04-.05.07-.12.03-.15-.04-.02-.07-.1-.07-.17-.15-.1-.1-.22 0-.33-.08-.07-.12-.17-.13-.3-.27 0-.38-.14-.23-.34.06-.1.14-.17.24-.25.07-.1.13-.2.1-.3-.08-.2.17-.35.38-.5-.03-.05-.04-.1-.04-.16-.12-.12-.1-.23.04-.33-.03-.05-.04-.1-.05-.15-.3.05-.3-.12-.16-.4-.17-.1-.12-.28.2-.55 0-.06 0-.1.02-.14-.15 0-.28.05-.38.1-.12.1-.24.08-.35.03-.04-.06-.1-.1-.16-.15-.07-.06-.1-.14-.07-.23-.35.02-.42-.23-.2-.4.1-.08.2-.18.22-.28.1-.25.3-.42.5-.58 0-.07 0-.14.03-.2-.1-.07-.18-.1-.28-.12-.03-.1-.1-.18-.2-.24-.08-.03-.1-.07-.06-.16-.18-.16-.14-.26-.1-.36"/>
  <path fill="#ee332b" d="M144.5 37.63c.24 0 .45 0 .64-.03-.2.14-.45.24-.72.28.05-.04.1-.1.1-.13.02-.04 0-.08 0-.12M143.98 37.57c.15.03.3.04.45.05.03.05.03.08.02.1 0 .04-.04.08-.1.12 0 0-.03.02 0 .05H143.88c.06-.07.1-.13.1-.2 0-.04 0-.08-.02-.13"/>
  <path fill="#ee332b" d="M140.05 36.44c.25-.03.5-.04.76-.03.1.04.16.1.2.16.04.07.06.17.04.3 0 0 0 .03.03.03.04 0 .04-.02.04-.04.03-.14 0-.25-.04-.34-.02-.04-.05-.08-.1-.1h.07c.3 0 .54.1.8.23.06.06.08.12.07.18 0 .07-.05.14-.1.2-.03.02-.04.04 0 .06.02.02.03 0 .04 0 .07-.1.12-.18.13-.26v-.13c.2.12.43.22.64.34h.03v.02c.02.06 0 .1-.02.16-.02.05-.08.1-.17.12 0 0-.03 0-.02.04.02.04.04.03.06.03.1-.03.17-.08.2-.14.05-.05.06-.1.05-.17l.44.22c.03.05.04.1 0 .14 0 .04-.06.1-.13.12 0 0-.03.02 0 .05 0 .04.02.03.04.02.1-.05.15-.1.18-.16.02-.05.03-.1.02-.14l.15.06c.13.05.3.1.5.13.03.06.04.1.03.15 0 .04-.04.1-.08.13 0 .02-.03.03 0 .05-.54-.04-1.04-.3-1.56-.5l-.2-.08-.57-.25h-.02c0-.02-.02-.02-.03-.02h-.03c-.17-.07-.35-.1-.53-.13-.18-.03-.4-.04-.6 0l-.03-.02c.02-.1 0-.2-.05-.28-.04-.06-.1-.12-.18-.16M139.14 36.7c.25-.13.5-.2.78-.24.1.05.2.1.24.18.04.06.05.14.04.24h-.33c-.13 0-.24.04-.36.08-.05-.12-.13-.2-.22-.24l-.14-.04"/>
  <path fill="#f3da34" d="M142.87 46.02h-.06c-.08.1-.2.18-.3.26-.08-.1-.2 0-.08.07l-.06.05c-.04.1-.08.15-.2.17h-.06v-.12c0-.06.02-.1.03-.16v-.03h-.03l-.03.17v.15c-.3.1-.5.4-.7.63-.08.08-.13.2-.16.3 0 .06-.02.33-.08.34h-.1c-.02-.05-.07-.05-.13 0h-.38c-.08.1.13.06.25.13.05.03.07.1.05.18-.1.25-.68.17-.88.06-.1-.04-.1-.1-.1-.18h.13c.07 0 .14-.03.2-.07.03-.02.05-.03.03-.07-.02-.04-.04-.03-.06-.02-.06.04-.12.06-.18.07h-.18c-.05 0-.07-.04-.06-.06 0 0 .07 0 .08.02l.27-.1c.2-.2.4-.4.7-.53.08-.1.17-.2.28-.26.04-.24.15-.38.33-.54.02-.1.05-.17.1-.26v-.15c-.07-.13-.1-.24-.06-.4-.03-.1-.03-.16 0-.26v-.05c.04-.06.1-.1.15-.13l.15-.1c0 .1 0 .2.02.3l-.08.1c0 .04-.03.07-.02.1 0 .02 0 .03.02.03s.02 0 0-.02c0-.03.02-.06.04-.1 0-.02.04-.05.07-.08.1 0 .2-.06.28-.13l.25-.25v.4c-.1.07-.15.16-.2.26 0 0-.02.02 0 .03.02.02.02 0 .02 0 .05-.1.12-.18.2-.24v-.02c.02 0 .04-.02.05-.03.1-.06.2-.12.3-.16 0 .12-.02.23 0 .34.02.12.08.24.2.34"/>
  <path fill="#ee332b" d="M141.94 38.1c-.07-.04-.14-.1-.22-.12-.34-.2-.74-.3-1.14-.33.16-.15.2-.3.14-.4-.04-.1-.12-.2-.24-.3.13 0 .25 0 .4.03.2.03.44.1.67.2.06.12.07.23.05.32-.02.1-.1.18-.22.24 0 0-.03.02 0 .05 0 .02.02.02.04 0 .14-.07.22-.17.25-.28.03-.1.02-.2-.02-.3.15.06.3.15.4.24.12.1.25.18.38.27 0 .16-.05.25-.13.3-.08.05-.2.05-.32.04-.02 0-.04 0-.04.03"/>
  <path fill="#ee332b" d="M142.7 38.67c-.23-.18-.46-.37-.7-.53.13 0 .25 0 .34-.05.1-.07.15-.16.16-.3.14.1.28.22.42.34l.2.2c0 .05.02.1 0 .14 0 .04 0 .07-.03.1s-.07.04-.1.06c-.08.02-.16.02-.26 0-.02 0-.04 0-.04.04"/>
  <path fill="#ee332b" d="M143.5 39.2c-.1-.04-.16-.08-.24-.13-.17-.1-.34-.22-.5-.35h.25c.07-.03.1-.06.15-.1.03-.03.05-.08.05-.13v-.1c.16.14.33.27.5.38l.3.16v.02c0 .07-.03.12-.1.15-.1.04-.23.06-.37.07-.02 0-.04 0-.04.03"/>
  <path fill="#ee332b" d="M144.35 39.53c-.27-.07-.54-.17-.77-.3.13 0 .25-.02.34-.05.1-.04.15-.1.15-.2.16.08.32.15.48.2.03.07.03.12 0 .17-.03.05-.1.1-.2.13 0 0-.02.02 0 .05"/>
  <path fill="#ee332b" d="M146.12 39.35c.02 0 .17-.04.1.02-.53.34-1.2.34-1.82.18.1-.05.18-.1.22-.16.03-.06.03-.12.02-.18.2.06.4.1.6.14 0 .03 0 .06-.02.1-.04.03-.1.07-.2.1 0 .02-.02.03 0 .06 0 .03.03.03.04.02.1-.05.17-.1.2-.14.05-.05.06-.1.06-.13.26.02.52.02.8-.02"/>
  <path fill="#f3da34" d="M137.06 42.64c.02-.03.06-.07.07-.06l.14-.22c.06-.1.12-.16.18-.23h.03v.03c-.06.06-.12.13-.18.22l-.13.2c0 .03.02.06 0 .08.03.12.04.2.1.26l.02-.02c0-.05.04-.1.07-.14.05-.05.1-.1.18-.13.04-.04.08-.08.1-.12.04-.03.06-.07.08-.1 0-.02 0-.03.03-.02v.02c0 .05-.04.1-.07.13-.04.05-.08.1-.13.13-.07.04-.12.08-.16.12-.03.04-.06.08-.07.13.02.03.04.08 0 .12-.07.12-.17.18-.02.28 0 .08.03.14.1.2.02.03.02.16-.07.25-.08.08-.02.06.06.07l.12-.15.12-.14c.06-.06.1-.12.14-.2.03-.05.05-.12.06-.18 0 0 0-.02.02-.02s.02.02.02.03c0 .06-.03.13-.06.2-.04.07-.1.14-.15.2l-.12.13-.1.14c.1.06.07.17.08.27.02 0 .04.02.05.03l.06-.1.1-.15h.03v.02l-.1.15c0 .03-.03.06-.05.1.06.05.06.14 0 .2-.16.12-.12.15.02.24.02.12.02.23 0 .34v.25c-.03 0-.03-.02-.03-.03v-.1-.04c0 .02 0 .04-.02.06-.1.2-.2.38-.23.63-.24.05-.2.3-.22.5-.18.25-.4.46-.7.56-.06 0-.2.04-.2.1-.02.04.08.1.14.06.17-.16.25-.07.06.1-.02.02 0 .06.03.1.17.14.6.2.8.07.14-.1.22-.2.1-.33 0-.2.07-.38.28-.44.03-.04.02-.13 0-.17 0-.18.02-.33.06-.5 0-.02.02-.03.05-.04.08-.02.23-.24.28-.46l.03-.15c0-.07.04-.1.08-.04.03-.04.03-.07.05-.13.08-.1.2-.2.32-.14l-.06-.3c0-.14 0-.28.04-.4 0-.02 0-.04.04-.03l.12-.28.12-.28s0-.02.02 0c.02 0 .02 0 0 .02l-.1.28-.12.27c.02.02 0 .04 0 .06-.03.1-.04.23-.03.35 0 .14.04.27.1.37v.03c.06.04.06.04.05.13 0 .07 0 .13.03.2.12.25 0 .64-.13.84-.06.1-.08.2-.05.3.07.08.02.16-.04.2v.07c.02.07 0 .14-.05.2-.1.2-.2.4-.27.6-.15.03-.18.1-.24.26-.1.02-.1.05-.14.13-.1.1-.2.16-.33.22-.1.05 0 .1.08.15.06.05.15-.06.2-.15.07-.1.13-.06.1 0-.05.1-.08.2-.1.26 0 .08.23.13.27.13.15 0 .34-.14.46-.2.1-.1.08-.2.04-.32h-.18l-.2-.08c-.02 0-.03 0-.02-.03 0-.03 0-.02.02-.02l.2.07c.06 0 .12.02.18 0v-.08c.1-.1.14-.2.18-.3.17-.08.17-.16.15-.33.03-.08.04-.12.04-.2.1-.2.2-.4.26-.6.13-.17.2-.33.18-.54 0-.08.04-.12.1-.12.04-.06.08-.12.1-.2h.03c0-.05.03-.1.04-.13l.07-.08c.02-.06.03-.12.02-.17 0-.06-.03-.1-.06-.17l-.05-.07c-.02-.03 0-.05.02-.08h.03v.03c-.02.02-.02.04-.02.05 0 .02.02.04.04.06.03.07.06.13.06.2 0 .06 0 .12-.03.2-.02 0-.04.04-.05.07 0 .03-.03.07-.04.1v.02c.1 0 .18-.04.27-.08.05-.04.1-.1.14-.16.04-.07.07-.14.08-.22 0 0 0-.02.02-.02s.02 0 .02.02c-.02.1-.04.17-.08.23-.03.06-.07.1-.1.14.14.05.27 0 .4-.03-.02-.2-.02-.34 0-.45.03-.12.07-.2.12-.28h.03v.03c-.06.06-.1.14-.12.26-.02.1-.02.24 0 .43.06.1.1.16.2.1l.13-.1c.03-.02.02-.03.03-.04l.34-.33c.1-.1.22-.2.33-.26h.03v.03c-.12.07-.23.16-.34.25l-.3.28s.02.04.02.1c0 .12.03.2.22.13l.2-.1c.06-.03.1-.06.13-.06l.18-.14.18-.1c0-.08.03-.15.05-.2.06-.2.15-.34.28-.5.1-.05.2-.12.25-.2.08-.06.13-.15.17-.24 0-.02 0-.03.02-.02V44c-.04.1-.1.2-.16.26-.07.08-.15.15-.26.2-.1.15-.2.3-.26.47-.02.06-.04.1-.05.18v.02c.02.02 0 .02 0 .02v.3c.1 0 .17-.04.26-.1.1-.08.18-.18.27-.28l.1-.2c.03-.05.08-.1.14-.12h.03v.04c-.07.02-.1.06-.15.1-.03.05-.06.12-.08.2v.4c.1-.1.23-.15.36-.2 0 0 .02 0 .02.03-.02.13-.03.26 0 .37 0 .1.06.2.15.3.04-.07.08-.13.13-.18l.05-.06c.04-.05.08-.08.12-.1l.08-.1c.03 0 .06-.04.1-.07h.02v.03l-.1.08-.08.08c-.04.03-.08.06-.1.1v.16c.08.02.13.02.2.02.04.17.05.2.2.2v-.17c0-.07.02-.13.04-.2h.03c.02 0 0 0 0 .02 0 .05-.03.1-.03.17v.17c.06.1.13.17.25.22.02-.05.05-.1.06-.16.02-.05.03-.12.03-.17-.02 0-.02-.02 0-.03.02 0 .02 0 .02.02 0 .07 0 .13-.02.2-.02.06-.05.12-.1.18v.02c0 .06 0 .1.03.17l.06-.13c.02-.05.06-.1.1-.14h.02c.02.02 0 .03 0 .03-.03.04-.06.1-.1.13l-.06.13c0 .02.03.05.05.07-.22.4-.46.93-.9 1.1-.24.1-.34.22-.4.47-.08.07-.14.14-.2.23-.15.05-.3.13-.45.12 0 .1.03.15.14.15.2-.1.24-.12.26-.1.02.02-.03.16-.2.28-.03.02-.02.03 0 .05.13.22.5.15.7.1.15-.05.4-.2.47-.36.03-.06-.03-.15-.1-.22-.28.05-.22-.23.02-.1.08-.04.1-.04.12-.13.22-.1.3-.2.36-.42.22-.24.44-.48.6-.76.04-.06.06-.15.05-.2.04-.04.06-.1.08-.16l.02-.17c0-.02 0-.03.02-.03s.02 0 .02.02c0 .05 0 .1-.03.17l-.05.14c0 .05.02.07.05.06.2-.15.38-.26.6-.4 0-.07.06-.12.15-.12.03 0 .04 0 .06-.04.05-.12 0-.2-.07-.3-.05-.15.05-.2.14-.26.1-.07.1-.27.1-.38v-.06l-.05-.12s0-.02.02-.02h.02l.04.13v.04c.1-.05.2-.1.24-.2.03-.13-.03-.24-.1-.34l-.06.03-.15.07s-.02 0-.03-.02v-.02l.16-.06.1-.05c.05-.03.1-.06.13-.1.06-.1-.13-.2-.2-.23-.08-.1-.18-.18-.27-.26v-.03c0-.02.02 0 .03 0l.25.23c.03-.14.03-.28 0-.42l-.06-.14c-.1-.05-.15-.1-.18-.15-.04-.06-.06-.12-.06-.2h.04c0 .07.02.13.05.18.02.05.07.1.15.13.07.04.24.02.33-.03.13-.07-.04-.22-.08-.3-.03-.07-.04-.13-.05-.2h.04l-.06-.06-.07-.05s-.02 0-.02-.02.02-.02.03 0c.03 0 .06 0 .08.04l.07.07h.04c.13-.02.2-.1.28-.18-.04-.06-.1-.1-.14-.15-.04-.05-.1-.1-.15-.13 0 0-.02-.02 0-.03h.02l.16.14.15.16c.13.02.15 0 .2-.1 0-.06-.03-.1-.07-.16-.02-.05-.06-.1-.1-.14 0 0-.02-.02 0-.03h.02c.05.05.1.1.13.15.03.05.06.1.07.16.06 0 .12 0 .16-.02.1-.06.02-.28 0-.37l-.04-.04c-.03 0-.05-.03-.08-.04v-.03c0-.03.02-.02.02-.02l.08.05c.02 0 .03.02.05.03.02 0 .03 0 .03-.02.08-.06.1-.14.13-.22.04-.13.04-.07.2-.1.15-.02.24-.04.33-.23.04-.03.07-.05.08-.1 0-.13 0-.18-.12-.2-.18 0-.3.03-.4.15l.04.07v.03h-.03l-.05-.08c-.16 0-.3 0-.44.07 0 0-.03 0-.05-.02.04.04.06.08.08.12.04.06.05.1.05.17 0 .02 0 .03-.02.03s-.02 0-.02-.02c0-.04 0-.1-.02-.14l-.12-.17c-.12-.05-.24-.07-.36-.07l.06.06c.03 0 .05.04.08.06V42H146l-.07-.1c-.02 0-.05-.04-.07-.06-.1 0-.2.03-.33.07-.07.04-.15.07-.22.08.07.05.1.1.15.18l.08.22v.02h-.03c-.02-.1-.05-.16-.1-.23-.02-.06-.07-.12-.12-.17h-.2l.07.12v.02h-.03l-.07-.16c-.06 0-.12-.03-.18-.07l.04.24c.03.1.04.22.04.34 0 0 0 .02-.02.02s-.02 0-.02-.02c0-.12 0-.23-.03-.34 0-.1-.03-.18-.05-.26l-.08-.08c-.06-.07-.13-.12-.2-.17v.1c-.02.06-.05.12-.1.18 0 0 0 .02-.02 0-.02 0 0 0 0-.02.04-.05.06-.1.07-.15 0-.04 0-.08-.02-.12-.12-.04-.25-.07-.4-.08l.1.14c.05.06.08.12.1.18.07.05.1.1.12.17 0 .07 0 .13.02.2l-.02.02c-.02 0-.02 0-.02-.02 0-.07 0-.13-.02-.18-.02-.06-.04-.1-.1-.15l-.1-.18-.12-.18h-.14l.02.03c0 .02.03.05.03.1h-.04c0-.04 0-.06-.02-.08 0-.02-.02-.04-.04-.05h-.3c.1.14.2.27.25.4.06.15.1.3.13.46 0 0 0 .02-.02.02-.03-.17-.08-.32-.15-.46-.06-.14-.14-.27-.24-.4-.08 0-.16.02-.23.04l.08.06.1.1h-.02c0 .03-.02.02-.02 0s-.04-.04-.07-.07l-.1-.07c-.05 0-.1.02-.13.04-.02 0-.04 0-.06.02l.2.16.2.24v.02c-.03.02-.04 0-.04 0-.06-.1-.13-.17-.2-.24l-.2-.17c-.1.02-.17.02-.25.02.05.1.1.2.12.3.04.1.06.2.07.32 0 0 0 .02-.02.02s-.02 0-.02-.02c0-.1-.03-.2-.06-.32l-.14-.3-.15-.03.08.28.06.35s0 .02-.03.02c-.02 0-.02 0-.02-.02l-.06-.34-.1-.3c-.13-.15-.3-.3-.48-.38l.1.15c.03.1.04.18.04.27 0 0 0 .02-.02.02s-.02 0-.02-.02c0-.1 0-.17-.04-.25-.03-.07-.07-.14-.13-.2l-.14-.02c-.1-.02-.24-.03-.36-.03.1.1.17.17.16.26 0 0 0 .02-.02.02s-.02 0-.02-.02c0-.1-.08-.17-.18-.26h-.23c.04.03.08.08.1.12.05.05.07.1.08.17 0 .08.03.16.07.22.04.06.1.1.17.15 0 0 .02 0 0 .02-.1-.04-.16-.1-.2-.16-.04-.07-.06-.15-.07-.24 0-.06-.04-.1-.08-.16-.03-.05-.07-.1-.13-.15h-.26c.04.1.06.2.08.3.02.12.03.25.03.38 0 0 0 .02-.02.02s-.02 0-.02-.02c0-.13 0-.26-.02-.38-.02-.1-.04-.2-.08-.3h-.02c-.05-.1-.1-.14-.18-.17v.02c0 .03-.02.05-.04.08 0 0 0 .02-.03 0-.02 0 0 0 0-.02l.02-.06V41h-.03c-.04-.17-.08-.24-.2-.3 0 .05-.02.1-.03.14l-.07.18s0 .02-.03 0c-.02 0 0 0 0-.02.03-.05.05-.1.06-.16v-.16h-.02c-.03-.24-.07-.37-.32-.46v.1c0 .04 0 .1-.03.15 0 0-.02.02-.03 0h-.02l.04-.16-.02-.13c-.05-.06-.13-.1-.2-.18 0 .08 0 .16-.02.25-.03.1-.08.2-.15.3v.02c-.03 0-.03-.02-.02-.03.06-.1.1-.2.14-.3.03-.1.04-.2.03-.3l-.07-.08c0 .03-.02.05-.03.07 0 0 0 .02-.03 0 0-.04 0-.06.02-.08l.02-.05v-.03c0-.08-.05-.14-.1-.18v-.02c0 .03-.02.05-.03.08l-.07.1s0 .02-.03 0v-.02c.03-.03.05-.07.06-.1l.02-.1-.05-.08-.04.07-.07.07h-.03v-.03l.07-.07.03-.06c.02-.04.02-.02 0-.07.03-.1 0-.18-.07-.27-.03 0-.07 0-.12.02l-.17.1h-.02v-.03c.07-.05.13-.1.18-.1.06-.03.1-.05.15-.05v-.08c-.17.06-.3.1-.43.1-.12 0-.2 0-.28-.04 0 0-.02 0 0-.03.08.02.17.04.28.03.1 0 .25-.03.43-.1l.07-.2h-.2s-.02 0-.02-.02h.02c.08 0 .14 0 .2-.03l.02-.07c0-.08.1-.1.16-.02l.16.14c.1.05.22 0 .3-.07-.02 0-.05 0-.08-.02 0 0-.02 0 0-.03h.02c.03 0 .06 0 .1.02l.02-.02c.22.02.36-.03.5-.17h-.33c-.1-.02-.2-.05-.26-.08 0 0-.02 0 0-.02 0-.02 0-.02.02 0 .05.02.13.04.23.05.1 0 .23.02.37 0l.04-.03.17-.1c-.25-.03-.5-.08-.73-.2-.06-.07-.15-.1-.25-.14-.2 0-.35.04-.5.12l-.12-.1c-.05-.02-.1-.05-.17-.05h-.24c-.02 0-.03 0-.02-.03 0-.02 0-.02.02-.02h.24l.22.06c.25-.1.46-.15.64-.14.2-.06.43-.1.65-.08-.03-.04-.02-.05 0-.06.1-.12.14-.23.1-.33-.04-.1-.15-.2-.3-.3-.15.03-.3-.02-.47 0-.1 0-.2.04-.3.07.07.03.15.08.2.15.08.08.14.2.16.35 0 .02 0 .04-.03.04-.02 0-.03-.02-.03-.04-.02-.13-.07-.24-.14-.32-.07-.1-.23-.14-.28-.16-.17.02-.33.03-.48.07-.1.03-.2.07-.28.12.1-.02.22 0 .3.03.1.05.2.14.24.28 0 .02 0 .03-.03.05-.02 0-.03 0-.03-.03-.04-.12-.1-.2-.2-.23-.14-.08-.46 0-.6.1l-.23.2c0 .03-.03.04-.06.02-.03-.04-.02-.06 0-.08.08-.1.16-.17.24-.23.1-.07.17-.1.26-.14.1-.1.22-.15.37-.2l.5-.07c-.06-.1-.13-.17-.2-.2-.08-.04-.17-.04-.27-.04-.2.08-.4.2-.57.3h.06c.05.02.1 0 .14.03.02 0 .04 0 .02.03 0 .05-.13.02-.17.02h-.15s0 .02-.02 0c-.22.15-.37.28-.55.43h-.03c-.16 0-.27.03-.34.08-.06.05-.06.12-.05.2l-.06.3c-.2.17-.4.33-.5.56-.02.07-.05.13-.1.2.04 0 .07 0 .1.02 0 0 0 .02.02.03 0-.04 0-.08.02-.12 0-.06.03-.1.06-.15 0 0 0-.02.02 0 .02 0 .02 0 0 .02 0 .04-.03.1-.04.14-.02.06-.03.13-.03.2h-.05c0-.04-.02-.07-.04-.1l-.1-.02c-.03.05-.08.1-.12.12-.04.03-.07.07-.08.1 0 .1.1.1.2.12.22 0 .04.14.17.26.06.04.1.1.16.15.08.02.14 0 .2-.02 0-.15 0-.23.06-.23v-.06l.07-.1h.02v.03l-.05.08c0 .03 0 .05-.02.07.02.03 0 .07 0 .15.14-.06.26-.08.4-.08.24-.3.34-.22.13 0-.02 0-.03.04-.04.06-.04.07-.06.12-.07.22-.06.06-.37.3-.26.4.07 0 .13 0 .1.06-.04.08-.16.25-.12.34 0 .03.06.03.1.02h.02l.25-.24c.08-.1.15-.2.2-.3.02 0 .03-.03.05-.02l.08-.27.12-.27h.03c.03.05.07.08.1.1.03.03.06.04.1.04 0 0 .04 0 .07-.03l.1-.1s0-.02.03 0v.02c-.03.05-.07.1-.1.1-.04.04-.08.05-.1.05-.05 0-.1 0-.12-.03l-.08-.1-.1.25-.08.27c.02 0 0 .03 0 .04-.06.12-.14.22-.23.32-.05.07-.13.14-.2.2 0 .06.03.12.06.2l.37-.36c.1-.13.2-.25.28-.38.02 0 .02-.02.04 0v.02l-.13.2c.02 0 .02 0 0 .02l-.02.12v.27h-.03v-.28-.05l-.1.1c-.1.12-.23.24-.37.36v.02c-.1.1-.2.12-.07.24l.14-.1.14-.1h.03c.02.02 0 .02 0 .03l-.14.1-.13.1c0 .06 0 .1.03.14h.03l.3-.2c0-.02 0-.02.02 0v.02l-.3.2-.03.06c-.1.07-.45.28-.42.42.1-.02.17-.05.25-.1.08-.03.15-.1.23-.16 0 0 0-.02.03 0v.03c-.1.07-.17.13-.26.18v.07s0 .02-.02.02-.02 0-.02-.02v-.04-.04c-.07.04-.14.06-.2.08.02.14-.05.26-.12.38-.05.03-.4.3-.24.4l.12.02"/>
  <path d="M143.05 45.95c-.06.03-.1.06-.16.07.03-.08.08-.14.13-.2 0 0 0-.02.02-.02V45.95M143.8 47.52l-.15.16-.18.14h-.03v-.03l.18-.14c.05-.05.1-.1.13-.16h.03c.02 0 0 0 0 .02M144.27 46.94l-.07.1c0 .02 0 .03-.03.02v-.03l.07-.1c0-.02 0-.03.03 0M144 46.9c0 .06-.02.12-.06.16-.03.05-.1.1-.16.13 0 0-.02 0-.03-.02v-.03c.08-.03.13-.07.16-.1.04-.05.06-.1.07-.15 0 0 0-.02.02-.02v.02M144.5 46.32c-.03.02-.05.04-.06.07-.02 0-.03.04-.04.07 0 0 0 .02-.03 0-.02 0 0 0 0 0 0-.04 0-.07.03-.1l.06-.07s0-.02.03 0v.02M144.88 46.36l-.06.17-.08.17h-.02c-.02 0 0-.02 0-.02l.07-.17c0-.04.02-.1.04-.15 0 0 0-.02.02 0 .02 0 .02 0 0 0M144.7 44.08c.12.18.15.36.15.55 0-.07.03-.14.05-.2.05-.08.08-.15.1-.22.02-.06.02-.13 0-.2 0 0 0-.02.02-.03.02 0 .02 0 .02.02.02.06.02.14 0 .22-.02.07-.05.15-.1.22-.04.12-.06.25-.08.37v.04c0 .02-.05 0-.05 0v-.05c.02-.24.02-.47-.13-.7v-.02h.03M144.4 44.46v.1s0 .02-.03.02c-.02 0-.02 0-.02-.02v-.04-.04l.03-.02c.02 0 .02 0 .02.02M144.32 44.98l.07.3v.22l.04-.04c.03-.04.07-.08.12-.1h.03c0 .02 0 .02-.02.03-.04.02-.08.05-.1.08-.04.04-.05.08-.06.13 0 .03-.04.02-.04 0 0-.1 0-.2-.03-.3 0-.1-.04-.2-.07-.3 0-.02 0-.03.02-.03h.02M144.73 45.17c.02.08.03.15.03.23v.2c0 .02 0 .03-.03.03-.02 0 0 0 0-.02v-.2c0-.08-.02-.15-.04-.23v-.02c.03 0 .03 0 .03.02M145.1 45.1v.2c0 .08 0 .15-.04.2-.03.08-.03.16 0 .23 0 .07.03.15.06.22v.03h-.03c-.05-.08-.08-.16-.1-.24 0-.08 0-.16.02-.24.03-.06.04-.12.04-.2v-.2s-.02 0 0 0c.02-.02.03 0 .03 0M145.26 44.5c0 .05-.02.1-.03.12 0 .04-.02.08-.03.1 0 .02 0 .03-.02.03s-.02-.02-.02-.02l.03-.12c0-.02 0-.06.02-.1 0 0 0-.02.03 0M145.08 43.54l.03.1c.02 0 .02.02 0 .02h-.02c0-.04-.02-.08-.03-.1v-.04c.03 0 .03 0 .03.02M145.17 42.8v.3c-.04.03-.07.07-.1.13v.24h-.03c-.02-.1-.02-.18 0-.25.02-.06.06-.12.1-.16v-.12-.14-.02c.03 0 .03 0 .03.02M144.44 42.54c.1.07.2.16.28.25.07.1.1.2.1.34l-.03.02-.2-.1c.04.3.03.5-.03.68-.06.18-.18.3-.35.37-.02.02-.03 0-.03 0 .03-.12.05-.22.05-.33v-.3-.04c.02 0 .03 0 .03.02.02.1.02.22 0 .33 0 .1 0 .18-.04.28.14-.07.24-.18.3-.33.05-.17.06-.4 0-.68 0-.02.03-.03.04-.03l.2.1c0-.12-.04-.22-.1-.3-.06-.1-.16-.18-.27-.25v-.03h.03M146.36 42.16v.04c-.02 0-.02.02-.03.04 0 0 0 .02-.02 0v-.02-.03l.03-.05s0-.02.02 0c.02 0 .02 0 0 0M145.9 42.15l.1.06.06.1v.02h-.03l-.05-.08-.08-.05-.02-.04h.03M145.24 42.34c.05.06.08.12.1.2 0 .06.02.14 0 .22 0 .02 0 .03-.02.02-.02 0-.02 0 0-.02 0-.08 0-.15-.02-.22-.02-.06-.05-.12-.1-.17v-.03h.04M142.97 42.56v.08c-.02.03-.02.05-.02.08 0 0 0 .02-.02 0h-.02c.02-.03.02-.06.02-.08v-.08s0-.02.03-.02c.02 0 .02 0 .02.02M143.4 42.34c0 .04 0 .07.02.1v.07h-.03l-.02-.04c0-.04-.02-.07-.03-.1v-.03h.04M144.25 42.92v.1h-.03v-.05-.04-.02c.02 0 .03 0 .03.02M144.55 42.26l.03.06v.06s-.02.02-.03 0c-.02 0 0 0 0 0v-.05l-.03-.04v-.04h.03M142.5 42.37v.13l.08.12c.05.05.07.1.08.15l.02.15s0 .02-.02.02-.02 0-.02-.02c0-.05 0-.1-.02-.14 0-.05-.03-.1-.07-.14-.04-.04-.06-.08-.08-.13-.02-.03-.02-.08-.02-.13 0 0 0-.02.02-.02s.02 0 .02.02M143.32 42.93c.05.1.07.17.08.26v.25c-.02.1 0 .2.06.3.05.1.13.17.24.25-.04-.12-.06-.23-.05-.34 0-.13.04-.25.13-.37.04-.05.07-.1.08-.16l.04-.16s0-.02.02-.02.02.02.02.03c0 .04-.02.1-.04.15-.02.06-.05.1-.1.17-.07.1-.1.22-.1.34-.02.12 0 .25.05.38 0 .02-.02.03-.03.02-.13-.1-.24-.2-.3-.3-.06-.1-.08-.2-.07-.32.02-.1.02-.17 0-.25 0-.1-.02-.17-.06-.25-.02 0-.02-.02 0-.03h.02M143 43.44c0 .1-.04.2-.1.28-.02.07-.07.15-.13.22.03 0 .06-.03.1-.04.04-.02.1-.05.15-.1.03-.02.07-.05.1-.1.04-.02.08-.07.1-.12.02 0 .03-.02.04 0 .02 0 0 .02 0 .02-.03.06-.07.1-.1.14l-.1.1v.11c.02 0 .02.02 0 .02h-.02c0-.04 0-.06-.02-.08v-.04l-.15.07-.15.07c-.02 0-.03-.02-.02-.03.07-.1.14-.18.18-.27.04-.1.07-.17.07-.26 0 0 0-.02.02-.02s.02 0 .02.02M142.58 43.4v.1s0 .02-.02.02-.02 0-.02-.02v-.1h.04"/>
  <path d="M142.32 42.9c.05.14.07.26.05.38-.02.1-.08.22-.16.3v.02c-.07.06-.12.14-.17.23l-.07.2.07-.08c.05-.05.1-.1.2-.12.08-.04.15-.1.22-.15.08-.06.14-.12.2-.2h.04v.04l-.22.2-.24.15c-.08.02-.13.06-.18.1-.05.05-.08.1-.12.17 0 0-.04 0-.04-.02.02-.1.05-.2.1-.3.04-.1.1-.18.18-.25.08-.1.13-.2.15-.3.02-.1 0-.22-.05-.35v-.02h.04M143.15 44.24c0 .03 0 .07.07.14l.03.04c.07.1.1.2.1.3 0 .12-.02.23-.04.34 0 .02-.03.02-.03 0-.02-.12-.07-.23-.14-.32-.08-.1-.18-.18-.3-.26 0 0-.02 0 0-.03h.02c.12.08.23.17.3.27.07.07.1.15.14.24v-.23c0-.1 0-.2-.08-.28 0-.02-.02-.04-.03-.05-.07-.08-.1-.12-.1-.17.02 0 .02-.02.04 0 .02 0 .02 0 0 0M143.5 44.22c.02 0 .03.03.05.04 0 .02.03.03.04.05v.04h-.04c0-.02-.03-.03-.04-.05l-.05-.06v-.02c.02-.02.03 0 .03 0M143.94 44.36l-.08.26-.08.26s0 .02-.03 0c-.02 0 0 0 0 0 .02-.1.04-.2.07-.27l.08-.26h.03c.02 0 0 0 0 .02M144.2 45.8c-.02.04-.02.06 0 .08 0 0 0 .02-.03.02h-.02v-.1s0-.02.02 0h.02M143.93 45.38l-.04.14-.05.14s0 .02-.02 0c-.02 0-.02 0 0 0 0-.06 0-.1.02-.15l.04-.13h.03M143.55 45.38l.04.04v.02c-.03.02-.03 0-.04 0l-.04-.03v-.02h.03M143.12 45.17c0 .03-.02.06-.03.08l-.04.08s0 .02-.02 0c-.02 0-.02 0 0-.02v-.06l.04-.08s0-.02.02 0h.02M142.5 45.84c-.03.02-.05.05-.06.08l-.02.1h-.04c0-.05 0-.08.03-.1l.06-.1c0-.02.02-.03.03 0v.02M140.7 47.6l-.03.05-.06.06s0 .02-.02 0v-.03c.02 0 .04-.03.06-.05l.03-.05s0-.02.02 0v.02M140.98 47.44c0 .02-.02.04-.04.05l-.06.02h-.02v-.03l.06-.04.03-.04h.02c.02 0 .02 0 0 .02M141.35 47.2c0 .02 0 .03-.02.05l-.04.03h-.04v-.04c.03 0 .04 0 .04-.02l.02-.03s0-.02.03 0c.02 0 0 0 0 0M141.9 45.76l-.02.15v.19c-.02 0-.03-.02-.03-.03 0-.05-.02-.1 0-.16 0-.05 0-.1.03-.16 0 0 0-.02.02 0 .02 0 .02 0 0 .02M142.3 41.9c0 .03-.02.07-.04.1-.02.06-.05.1-.1.14h-.02v-.03c.04-.02.07-.06.08-.1l.04-.12s0-.02.02 0h.02M141.9 41.54c.04.06.06.12.07.18V41.92c-.03 0-.03 0-.03-.02v-.17l-.07-.17v-.02c.03-.02.03 0 .04 0M141.4 42.18c-.08-.05-.13-.1-.16-.15-.03-.06-.04-.1-.04-.17 0 0 0-.02.03 0 .02 0 0 0 0 0 0 .05.02.1.04.15.03.05.08.1.14.15.02 0 .03 0 .02.03 0 .02-.02 0-.03 0M141.96 43.15v.08h-.04v-.05-.05s0-.02.02-.02.02 0 .02.02M141.23 42.4c.12.13.18.25.22.4l.04.28c.04 0 .08-.06.1-.13.04-.08.06-.2.06-.33.04-.08.07-.14.08-.2l.03-.2c0-.03.03-.04.04-.02.08.1.14.2.18.3.05.1.08.2.1.33 0 0 0 .02-.03.02h-.02c0-.13-.04-.24-.08-.34l-.14-.24c0 .05 0 .1-.02.16 0 .07-.04.14-.08.2 0 .15-.02.26-.05.34-.03.1-.08.14-.14.16l-.02.15s0 .02-.02.02l-.02-.04c.02-.16 0-.3-.02-.45-.04-.13-.1-.25-.2-.35-.02 0-.03-.02 0-.03 0-.02 0 0 0 0M141.66 44.24c0 .05 0 .1-.03.16 0 .05 0 .1-.02.15v.02c-.03 0-.03-.02-.03-.03l.03-.15c0-.06 0-.1.02-.16 0 0 0-.02.02-.02s.02 0 .02.02M140.84 44.6c0 .03 0 .07.02.1v.03c-.03 0-.04 0-.04-.02 0-.03 0-.06-.02-.1 0 0 0-.02.02-.03.02 0 .02 0 .02.02M141.55 43.65c0 .08-.03.15-.06.22l-.14.2c-.07.1-.1.17-.12.25 0 .08 0 .17.03.26 0 0 0 .02-.02.02h-.02c-.02-.1-.04-.2-.02-.28.02-.1.05-.18.13-.26.05-.07.1-.13.12-.2l.06-.2c0-.02 0-.03.03-.03.02 0 .02 0 .02.02M141.36 43.37c.02.08 0 .15-.03.23-.03.07-.08.14-.14.2v.02c-.08.05-.13.1-.16.18l-.1.2h-.02c-.02 0 0 0 0-.02.02-.07.04-.14.08-.2.04-.07.1-.13.16-.2.06-.06.1-.13.14-.2.03-.07.04-.13.02-.2 0 0 0-.02.02-.02h.02M140.46 43.8c.02.15 0 .28-.06.4-.05.1-.14.2-.25.3 0 0-.02 0-.03-.02v-.03c.1-.08.2-.17.25-.28.05-.1.07-.22.05-.36l.02-.02c.02 0 .02 0 .02.02M139.3 44.44c0 .03.03.05.04.07 0 .04.02.06.03.08v.03c-.02.02-.03 0-.03 0l-.04-.07c0-.03-.02-.05-.03-.07v-.03h.03M138.84 44.45c0 .1 0 .18.03.26.03.1.06.17.12.25l.05.2v.12c.07-.06.1-.12.14-.18.03-.1.05-.16.05-.24 0 0 0-.02.02-.02s.02 0 .02.02c0 .08-.03.16-.07.24-.04.08-.1.16-.17.23 0 0-.03 0-.03-.02 0-.04 0-.1-.02-.16 0-.05 0-.1-.04-.17-.06-.08-.1-.16-.12-.25-.03-.1-.03-.18-.03-.27 0 0 0-.02.03-.02.02 0 .02 0 .02.02M138.9 46l.03-.13c0-.05.03-.1.04-.14 0 0 0-.02.03 0 .02 0 0 0 0 0 0 .06-.02.1-.03.15l-.02.14s0 .02-.02 0h-.02M138.85 46.45c0-.06.02-.12.03-.17 0 0 0-.02.02-.02s.02 0 .02.02l-.02.18s0 .02-.03 0h-.02M138.56 47.18l.08-.1.07-.12c.02 0 .02-.02.04 0 .02 0 0 0 0 .02l-.07.13c-.03.04-.06.08-.1.1 0 .02 0 .02 0 0-.03 0-.02 0 0-.02M138.12 44.73v.07s0 .02-.02.02-.02 0-.02-.02v-.07s0-.02.02-.02.02.02.02.03M137.4 46.42v-.06l-.02-.05h.04V46.45c-.03 0-.03 0-.03-.02M139.23 43.42c-.04.13-.07.26-.06.37 0 .1.03.2.1.25.1.06.14.15.18.24l.04-.13c0-.06 0-.1-.02-.16l.02-.02c.02 0 .02 0 .02.02v.17c0 .07-.02.14-.04.2h-.03l-.03-.07c-.04-.08-.08-.16-.16-.22-.1-.06-.13-.16-.13-.3 0-.1.02-.24.06-.37h.02v.02M139.1 42.92v.3c-.02.08-.05.18-.1.28-.04.12-.06.24-.06.37s.04.25.1.37v.03H139c-.06-.13-.1-.27-.1-.4s.02-.26.07-.4c.04-.08.07-.18.08-.27.02-.1.02-.17 0-.27 0 0 0-.02.03-.02.02 0 .02 0 .02.02M138.25 44.14c-.03.06-.04.12-.03.18 0 .06.04.12.08.18v.03h-.04c-.04-.08-.06-.14-.07-.2-.02-.07-.02-.14 0-.2l.04-.02c.02.02 0 .03 0 .04M137.87 44v.12c0 .04 0 .07-.02.1-.02.04-.02.07 0 .1 0 .04 0 .07.04.1 0 .02 0 .03-.02.04h-.03l-.05-.13c0-.04 0-.08.02-.12l.02-.08v-.1-.03h.03M140.05 40.78c0 .1 0 .2.02.3.02.08.05.17.1.25v.03h-.03c-.05-.1-.1-.18-.1-.28-.03-.1-.04-.2-.03-.3.02 0 .02-.02.03-.02.02 0 .02 0 .02.02M139.78 41.04c.05.1.1.2.13.3.04.1.06.22.07.35h-.04c0-.13-.03-.25-.06-.35-.03-.1-.08-.2-.13-.3.03-.02.03 0 .04 0M138.43 41.1c-.13.17-.2.32-.2.46 0 .12.02.23.07.33.04.1.05.2.05.3 0 .1-.02.2-.06.3 0 .02 0 .03-.03.02-.02 0-.02 0 0-.02.02-.1.04-.2.04-.3.02-.1 0-.2-.03-.3-.06-.1-.1-.2-.08-.35 0-.13.06-.3.2-.48 0 0 0-.02.02 0 .02 0 0 0 0 .02M139.7 40.55c0 .06 0 .1-.03.17-.02.05-.06.1-.12.15-.07.05-.1.1-.12.18-.02.08 0 .17 0 .27v.02c-.03 0-.03 0-.03-.02-.02-.1-.02-.2 0-.27 0-.1.05-.15.12-.2.05-.05.1-.1.1-.14.03-.04.04-.1.03-.14v-.02h.04M138.35 40.66c.03.1.03.17 0 .25-.02.1-.07.17-.14.25-.06.06-.1.13-.13.2-.03.1-.04.2-.04.3H138c0-.1 0-.2.03-.3.03-.1.07-.17.15-.23.07-.07.1-.15.14-.22.02-.07.02-.15 0-.22v-.03c.02 0 .03 0 .03.02M139.12 40.7v.1c0 .02 0 .05.03.07v.03h-.03c-.03-.04-.04-.07-.04-.1v-.1s0-.02.02-.02.02.02.02.03M139.08 40.5c-.07.03-.12.08-.16.15-.04.07-.06.17-.07.28.05.06.07.12.1.2v.26c-.03 0-.03-.02-.03-.03 0-.1 0-.17-.02-.24-.02-.06-.04-.12-.07-.16-.14.14-.2.28-.22.45 0 .17.07.35.2.55V42h-.03c-.13-.2-.2-.4-.2-.58 0-.18.08-.34.24-.48.02-.12.04-.22.08-.3.05-.08.1-.14.18-.17h.03c0 .03 0 .03-.02.04M138.86 40.22v.05c0 .1-.02.2-.1.26l-.07.1c-.03.06-.04.1-.05.16h-.02c-.02 0-.02 0-.02-.02l.05-.15c.02-.05.05-.1.1-.13.05-.06.06-.15.07-.24v-.04s0-.02.02-.02c.03 0 .02 0 .02.02M141 42.5c0 .04.03.1.04.14.02.05.02.1.02.16 0 0 0 .02-.02.02s-.02 0-.02-.02c0-.05 0-.1-.02-.15 0-.05-.03-.1-.05-.14v-.02h.04M141 43.2v.23c-.02.08-.05.17-.1.25l-.08.2c0 .02 0 .03-.03.02-.03 0-.02 0-.02-.02l.1-.22c.04-.08.06-.16.08-.23v-.23-.03c.03 0 .03 0 .03.02M140.55 42.54c.13.14.2.3.25.45.04.14.03.3 0 .48l-.04.02c-.02 0 0-.02 0-.03.04-.16.04-.32 0-.47-.04-.16-.12-.3-.24-.44v-.02c.02-.02.02 0 .03 0M140.5 43.32c-.03.08-.07.17-.13.25-.05.08-.1.16-.2.25h.02c-.06.05-.1.1-.13.15l-.1.2c0 .02-.03 0-.02 0 0-.07 0-.12-.02-.18l-.08-.2c-.07-.1-.1-.2-.1-.3 0-.1.05-.22.12-.32.05-.07.08-.15.1-.22.02-.07.03-.14.03-.22 0 0 0-.02.02-.02s.02 0 .02.02c0 .08 0 .16-.03.23-.02.08-.05.16-.1.23-.06.1-.1.2-.1.3 0 .1.02.2.08.3.04.05.07.1.08.18l.02.1.06-.12c.03-.06.07-.12.12-.17l.2-.25.12-.24h.02c.02 0 .02 0 0 .02M139.35 42.95c0 .1 0 .2.03.27.02.1.05.17.1.24v.02h-.04c-.05-.08-.08-.16-.1-.25-.02-.1-.03-.18-.03-.28 0 0 0-.02.03-.02.02 0 .02 0 .02.02M138.7 43.3v.11c0 .03 0 .03-.03.03-.02 0-.02 0-.02-.02v-.04-.06s0-.02.02-.02.02 0 .02.02M138.9 42.7c0 .06 0 .13-.02.2l-.1.17h-.03v-.03l.1-.16.02-.18s0-.02.02-.02v.02M138.3 43.87c-.1-.27-.12-.47-.1-.65.03-.17.1-.3.22-.4.07-.08.13-.15.17-.24.03-.1.05-.2.04-.34v-.02h.03c.02.16 0 .28-.04.37-.04.1-.1.16-.18.24-.1.1-.18.22-.2.4-.03.15 0 .36.1.62v.02h-.04M137.97 43.43c-.02.05-.02.1-.02.13 0 .05.02.1.05.13v.02h-.03c-.03-.05-.05-.1-.05-.15 0-.05 0-.1.02-.15 0 0 0-.02.02 0 .02 0 0 0 0 0M139.66 42.23c.07.1.1.2.12.3 0 .12-.02.23-.08.34 0 0 0 .02-.02 0-.02 0-.02 0 0 0 .04-.12.07-.23.06-.32 0-.1-.05-.2-.1-.3-.02 0-.02 0 0-.02h.02M140.2 41.82l.06.3c0 .12-.02.22-.05.33 0 .02-.02 0-.03 0 0-.1-.02-.2-.06-.27-.02-.08-.08-.14-.15-.2v-.03h.03c.07.06.13.13.17.2l.05.18.02-.2c0-.1-.03-.2-.07-.3v-.02c.03 0 .03 0 .04.02M140.5 41.4c.07.06.12.15.15.26.03.1.04.25.03.4v.18c0 .05.02.1.05.15v.02h-.03l-.06-.18v-.2c0-.13 0-.26-.03-.37-.02-.1-.06-.18-.13-.25v-.03c.02-.02.02 0 .03 0M139.67 41.3c-.05.07-.07.13-.1.2v.25s.02 0 0 .02c-.02 0-.02 0-.03-.02v-.25c.02-.08.05-.15.1-.2 0-.02 0-.03.02-.02.02.02 0 .03 0 .03M138.04 42.4c0 .17-.05.3-.13.4-.07.12-.17.2-.3.28h-.02v-.04c.12-.07.23-.15.3-.25.07-.1.1-.24.12-.4h.04M138 41.85v.18l-.08.17s0 .02-.02 0c-.02 0 0 0 0-.02l.05-.16c.02-.06.02-.1 0-.17 0 0 0-.02.03-.02.02 0 .02 0 .02.02M139.1 41.77v.05c0 .1 0 .2.02.3 0 .02 0 .03-.02.03h-.04v-.33-.07-.02h.03v.04M139.37 41.28c-.08.1-.1.18-.1.27-.02.1 0 .18.05.27.1.15.12.3.1.45 0 .14-.04.3-.1.44 0 .02 0 .02-.03.02s-.03-.02-.02-.03c.06-.15.1-.3.12-.44 0-.14-.02-.28-.1-.42-.06-.1-.1-.2-.08-.3 0-.1.03-.2.12-.3h.03v.03"/>
  <path fill="#f3da34" d="M137.22 37.83c-.07-.05-.16-.1-.25-.12-.05-.07-.1-.15-.2-.2-.06-.04-.06-.04-.03-.08.07 0 .1-.03.1-.05h.1c.04.02.06.04.08.07h.03v-.03l-.1-.06h-.13c-.04-.02-.08-.03-.14-.03-.05-.04-.1-.1-.07-.16h.02c.04 0 .08.02.1.04.04 0 .07.03.08.05h.03c.02 0 0-.02 0-.03l-.08-.06-.1-.03c.3-.05.57-.05.83.1.14.07.2.13.28.24l-.08.06c-.17 0-.3.02-.37.08-.06.05-.08.15-.08.24"/>
  <path d="M137.66 38.22c.13-.1.25-.15.38-.16.13-.02.27 0 .42.08h.31s.02 0 .02.02 0 .02-.02.02h-.28c-.16.14-.3.22-.4.24-.14.03-.24 0-.34-.07 0 0-.02 0 0-.03 0-.02.02-.02.03 0 .08.05.18.08.3.05.1-.02.2-.08.35-.2-.12-.06-.24-.08-.35-.07-.12.02-.24.07-.36.16-.02 0-.03.02-.05 0v-.03"/>
  <path d="M138.04 38.15c.05 0 .1.05.1.1s-.05.1-.1.1-.1-.05-.1-.1.04-.1.1-.1M138.7 38.74c.08-.03.14-.07.18-.1l.1-.13h.04c.02 0 0 .02 0 .03l-.1.13c-.06.04-.1.08-.2.12h-.02v-.04M140.1 38.17h.1c.04 0 .08.03.1.06.02 0 .03 0 .02.02-.02.02-.02 0-.03 0-.04-.02-.07-.04-.1-.04h-.1c-.02-.03 0-.03 0-.03M139.3 38.2c.04-.07.08-.13.15-.16.06-.03.14-.05.24-.04v.04c-.1 0-.18 0-.23.03-.06.03-.1.08-.13.14 0 .02 0 .03-.02.02-.02 0-.02 0 0-.02M139.4 38.33c0-.04.02-.07.04-.1l.1-.05s.02 0 .02.02v.02c-.04 0-.07.03-.1.05l-.02.07h-.03M138.07 38.77l-.05.1-.02.13s0 .02-.02.02-.02 0-.02-.02c0-.05 0-.1.02-.14l.06-.1c0-.02 0-.03.03-.02v.03M138.45 38.94v.08c-.04 0-.04 0-.04-.02v-.06s0-.02.03-.02c.02 0 .02 0 .02.02M138.2 38.5c.05.03.1.03.12.04.04 0 .08 0 .12-.02 0 0 .02 0 .03.02 0 0 0 .02-.02.02l-.13.02c-.04 0-.08 0-.13-.03-.02 0-.02 0-.02-.02s.02-.02.03-.02M138.45 37.8c-.03 0-.06 0-.08.03l-.05.07s0 .02-.02 0c-.02 0-.02 0 0 0 0-.04.02-.07.05-.1.02-.02.06-.03.1-.03 0 0 .02 0 .02.02h-.02M138.06 37.85c-.03 0-.05.02-.07.03-.03.02-.04.03-.04.05 0 0 0 .02-.03 0-.02 0 0 0 0 0 0-.04 0-.05.03-.07l.08-.05s.02 0 .03.02v.03M137.8 37.85c0 .02-.03.04-.05.06l-.04.07V38c-.03-.02-.03-.03-.02-.04 0-.03.02-.05.04-.08l.07-.06h.02v.03M137.5 38.1l-.07.07-.07.08h-.03v-.03l.07-.08.08-.07h.03c.02.02 0 .02 0 .03M137.53 38.45l-.05.06-.06.07h-.03c-.02-.02-.02-.02 0-.03l.05-.06.06-.06s.02-.02.03 0c.02 0 0 .02 0 .03M137.22 38.54v.12s0 .02-.02.02-.02 0-.02-.02v-.12s0-.02.02-.02.02 0 .02.02M137.62 39.07c0 .07 0 .13-.02.2v.02h-.02c-.02 0-.02 0-.02-.02v-.02l.02-.2h.04M137.38 38.9V39s0 .02-.02.02-.02 0-.02-.02v-.13c0-.02 0-.03.03-.03.02 0 0 0 0 .02M137.16 37.2l.1.07c.04.03.06.07.08.1v.04h-.04c0-.04-.03-.07-.06-.1l-.1-.06v-.02c0-.02.02-.02.02 0M139.1 39.73c.04.1.06.17.06.26 0 .07-.02.16-.05.24 0 0 0 .02-.02 0v-.02c.03-.07.04-.15.04-.23 0-.1-.02-.17-.06-.25v-.03h.04M138.47 40.46l.1-.25.17-.2c.06-.08.1-.16.12-.25.02-.1.02-.2 0-.28 0 0 0-.02.02-.03.02 0 .02 0 .02.02.02.1.02.2 0 .3-.03.1-.07.18-.13.27l-.15.2c-.05.08-.1.16-.1.25 0 0-.02.02-.04 0v-.02M137.66 40.25c0-.04.03-.07.06-.1l.1-.06c0-.02 0-.02.02 0v.02l-.1.06-.05.08s0 .02-.03.02c-.02 0 0-.02 0-.03M137.5 40.2c.03-.05.06-.08.1-.1.03-.05.07-.07.12-.1 0 0 .02 0 .02.02v.02l-.12.07-.1.12h-.02v-.03M138.34 39.36l.1.02h.1c.02.02 0 .03 0 .03-.03.02-.07.02-.1.02-.04 0-.07 0-.1-.03-.02 0-.03 0-.02-.03 0-.02 0 0 .02 0M137.92 39.3l.03-.03s.02-.02.03 0c.02 0 0 .02 0 .02l-.03.03s0 .02-.03 0v-.02M146.98 41.92l.05.06c0 .03.02.05.03.07v.03h-.03c0-.04-.02-.06-.04-.08l-.05-.06v-.02c.02-.02.02 0 .03 0M150.78 47.44c.13-.08.28-.06.42-.04.12-.04.25-.06.4-.05.06-.04.13-.06.2-.07.06-.04.06-.07.02-.1-.04-.06-.06-.1-.06-.15-.23-.13-.32-.34-.4-.54-.14-.04-.2-.1-.2-.14-.08 0-.14 0-.2-.02-.3.04-.38-.06-.5-.14-.08-.03-.15-.08-.2-.17l-.1-.13c-.08-.1-.06-.24.07-.23.08 0 .17 0 .25-.02.1-.05.23-.05.34-.04.12 0 .2-.07.32-.2v-.13c-.02-.06 0-.08.08-.07.16 0 .26.08.32.2.2.02.34.1.44.27.25 0 .42.1.44.2.02.06-.06.14-.17.22v.04c.07.06.1.12.14.18.13.05.26.12.4.23.35-.04.96.22 1.78.74.53.1 1.05.24 1.55.45h.3c.9-.12 1.76-.02 2.56.6.3.03.56.12.83.23.2.08.4.1.6.13.3.04.64.12.97.27.36.1.7.2.92.46.15.18.1.35-.08.42-.1.24-.35.25-.7.13-.23.04-.5-.15-.73-.33-.32-.1-.62-.3-.92-.5-.16-.1-.3-.18-.47-.22-.1-.02-.2-.04-.3 0-.02.02-.02.04 0 .06.1.06.16.17.17.3.02.1 0 .23 0 .37.02.14.1.25.25.33.1.06.2.13.38.15.08.02.1.07.1.13.05.2.1.43.17.63.02.07.07.1.13.14.22.16.1.34-.1.37-.17.17-.32.27-.5.3-.14.06-.2 0-.25-.07-.1 0-.13-.03-.17-.1-.17-.12-.02-.34.4-.25 0-.05.04-.06.08-.06-.03-.1-.04-.23 0-.34-.03-.03-.07-.06-.12-.07-.15-.04-.3-.1-.4-.22-.22-.2-.56-.37-.88-.54-.27 0-.46-.13-.67-.24h-.3c-.08-.03-.15 0-.2.06-.08.1-.18.08-.3.07-.12-.02-.26 0-.4 0-.05 0-.12.03-.2.03-.14 0-.28 0-.38.07-.08.1-.16.08-.25.05-.06-.03-.1-.06-.13-.1-.1 0-.17-.04-.2-.07-.16-.04-.2-.1-.2-.14-.23-.05-.12-.23.03-.24.17 0 .33.03.5.05.15.04.33.02.45-.1.07-.06.1-.12.2-.17-.3-.02-.52-.07-.68-.17-.44-.28-.8-.34-1.07-.1-.07.03-.13.05-.2.02-.07-.03-.16-.03-.22 0-.16.02-.32 0-.48-.05-.23.05-.45.07-.7.02-.18.1-.32.1-.4.03-.1-.04-.18-.1-.26-.14-.1 0-.16-.04-.17-.1-.16 0-.18-.06-.18-.12-.06-.08-.04-.14.03-.2.12-.04.24-.05.37.02.1.03.15.07.2.1.08 0 .16 0 .23.04.05-.08.2-.1.34-.08.08-.05.17-.1.3-.1 0-.02 0-.03-.02-.05-.15-.03-.23-.14-.3-.26-.25 0-.42-.1-.6-.2-.13 0-.25-.04-.36-.1-.08 0-.18 0-.28-.02-.18.05-.36.04-.52 0h-.3c-.12.1-.24.13-.37.07-.08-.1-.18-.17-.32-.2-.1-.03-.13-.07-.15-.12-.12-.08-.1-.15.03-.2.08-.05.2-.06.37.02.05.02.1.04.18.04"/>
  <path fill="#fff" d="M156.64 49.23c0-.02-.03-.07-.12-.02-.28 0-.6 0-.83-.14-.25-.14-.5-.3-.77-.28.08-.08.18-.13.3-.16.15-.04.33-.04.54 0 .28.04.53.1.72.16.18.07.3.16.37.27 0 0 0 .02.02.02l.18.15c.04.04.08.08.1.12-.08 0-.17 0-.26-.02-.1 0-.2-.05-.28-.1"/>
  <path fill="#ee332b" d="M142.5 48.36l-.1.14c-.15.05-.3.13-.45.12 0 .1.03.15.14.15.2-.1.24-.12.26-.1.02.02-.03.16-.2.28-.03.02-.02.03 0 .05.13.23.5.15.7.1.15-.04.4-.2.47-.36.03-.06-.03-.14-.1-.2-.15 0-.2-.06-.18-.1-.17-.07-.35-.1-.54-.08M136.82 46.57c-.12.1-.25.17-.4.22-.05 0-.2.04-.2.1 0 .04.1.1.15.06.17-.16.25-.07.06.1-.02.03 0 .06.03.1.17.14.6.2.8.07.14-.1.22-.2.1-.33v-.1h-.24l-.15-.1-.15-.13M140.56 47.87h-.04c-.08.1.13.06.25.13.05.03.07.1.05.18-.1.25-.68.17-.88.07-.1-.05-.1-.1-.1-.18h.13c.07-.02.14-.04.2-.08.03-.02.05-.03.03-.07-.02-.04-.04-.03-.06-.02-.06.04-.12.06-.18.07h-.18c-.05 0-.07-.04-.06-.06l.08.02.27-.1.03-.03c.18 0 .35.03.46.07M137.88 47.72c-.04.02-.05.05-.08.1-.1.1-.2.17-.33.23-.1.05 0 .1.08.15.06.05.15-.06.2-.15.07-.1.13-.06.1 0-.05.1-.08.2-.1.27 0 .06.23.1.28.1.14.02.33-.13.45-.2.1-.1.08-.2.04-.3v-.02h-.18l-.2-.08c-.02 0-.03 0-.02-.03v-.02l-.24-.06"/>
  <path d="M136.93 46.64l.13.1c.05.02.1.03.16.03 0 0 .02 0 .02.03h-.02c-.06 0-.12 0-.18-.03l-.14-.1s-.02-.02 0-.03c0-.02.02 0 .03 0"/>
  <path fill="#ee332b" d="M138.06 37.66v-.04l.26-.23c.08-.08.17-.12.26-.14.1-.1.22-.16.37-.2.15-.04.32-.06.5-.07-.06-.1-.13-.17-.2-.2-.08-.04-.17-.05-.27-.04-.2.07-.4.18-.57.3h.06c.05 0 .1 0 .14.02.02 0 .04 0 .02.05 0 .04-.13.02-.17 0-.04 0-.1 0-.15.03h-.02c-.2.1-.33.23-.48.36.12.04.2.1.26.14zm.86.16h.12c.07 0 .15.04.22.05.25-.1.46-.14.64-.14.2-.06.43-.08.65-.08-.03-.03-.02-.04 0-.06.1-.13.14-.24.1-.34-.04-.1-.15-.2-.3-.3-.15.03-.3 0-.47 0-.1.02-.2.04-.3.08.07.03.15.08.2.15.08.08.14.2.16.35 0 0 0 .03-.02.04-.04 0-.04-.02-.05-.04-.02-.14-.07-.25-.14-.33-.07-.1-.23-.13-.28-.15-.17 0-.33.03-.48.07-.1.02-.2.06-.27.12.1-.02.22-.02.32.03s.17.14.22.28c0 0 0 .03-.03.04-.02 0-.03 0-.03-.02-.04-.12-.1-.2-.2-.23-.14-.08-.46 0-.6.1l-.23.2c0 .02 0 .03-.02.03.28.02.57.03.8.12"/>
</svg>
