<svg xmlns="http://www.w3.org/2000/svg" width="257.44" height="179.98" viewBox="0 0 600 400" version="1" xmlns:xlink="http://www.w3.org/1999/xlink">
  <path fill="red" d="M240 400h360V0H240v400z"/>
  <path fill="#060" d="M0 400h240V0H0v400z"/>
  <path fill="#ff0" fill-rule="evenodd" d="M318.24 262.04c-30.2-.9-168.74-87.38-169.7-101.15l7.66-12.77C169.94 168.1 311.56 252.2 325.47 249.2l-7.23 12.84"/>
  <path fill="#ff0" fill-rule="evenodd" d="M154.6 146.4c-2.72 7.3 36.14 31.32 82.9 59.75s87.06 46 90.05 43.5c.18-.34 1.47-2.55 1.35-2.53-.56.84-1.93 1.1-4.05.5-12.63-3.65-45.58-18.77-86.38-43.5-40.8-24.75-76.3-47.55-81.8-57.24-.4-.68-.67-1.9-.6-2.85h-.15l-1.17 2.05-.16.32zm164.35 116.03c-.5.93-1.47.96-3.28.76-11.3-1.26-45.6-17.93-86.16-42.22-47.2-28.26-86.2-54-81.96-60.75l1.15-2.03.22.07c-3.8 11.4 76.94 57.58 81.7 60.52 46.72 28.94 86.1 45.84 89.6 41.45l-1.27 2.18"/>
  <path fill="none" stroke="#000" stroke-width=".57" d="M154.6 146.4c-2.72 7.3 36.14 31.32 82.9 59.75 46.74 28.44 87.06 46 90.05 43.5.18-.34 1.47-2.55 1.35-2.53-.56.84-1.93 1.1-4.05.5-12.63-3.65-45.58-18.77-86.38-43.5-40.8-24.75-76.3-47.56-81.8-57.24-.4-.67-.66-1.9-.6-2.85h-.14l-1.18 2.05-.16.32zm164.35 116.04c-.5.93-1.47.96-3.28.76-11.3-1.25-45.6-17.92-86.16-42.2-47.2-28.27-86.2-54.02-81.96-60.75l1.15-2.04.2.08c-3.8 11.4 76.96 57.58 81.72 60.53 46.72 28.95 86.1 45.86 89.6 41.46l-1.27 2.2v-.02z" stroke-linejoin="round" stroke-linecap="round"/>
  <path fill="#ff0" fill-rule="evenodd" d="M240.17 169.23c30.24-.24 67.55-4.13 89.02-12.7l-4.63-7.5c-12.7 7.02-50.2 11.64-84.66 12.33-40.72-.38-69.48-4.17-83.88-13.84l-4.37 8c26.48 11.2 53.62 13.6 88.52 13.7"/>
  <path fill="#ff0" fill-rule="evenodd" d="M330.44 156.7c-.74 1.2-14.74 6.02-35.37 9.58-14 2.14-32.24 3.96-55 3.98-21.64.02-39.3-1.52-52.7-3.33-21.65-3.4-32.83-8.12-36.96-9.8.4-.78.66-1.33 1.04-2.06 11.9 4.74 23.13 7.6 36.28 9.62 13.3 1.8 30.75 3.35 52.28 3.33 22.66-.03 40.7-2 54.6-4.06 21.17-3.4 32.72-7.8 34.35-9.84l1.5 2.58zm-4.06-7.6c-2.3 1.83-13.72 5.88-33.82 9.1-13.42 1.9-30.47 3.63-52.27 3.66-20.7.02-37.63-1.38-50.5-3.26-20.4-2.66-31.27-7.47-35.2-8.87l1.2-2.02c3.05 1.55 13.54 5.8 34.23 8.74 12.72 1.8 29.66 3.14 50.26 3.12 21.68-.02 38.55-1.77 51.88-3.68 20.2-2.78 31.07-7.95 32.73-9.25l1.48 2.46"/>
  <path fill="none" stroke="#000" stroke-width=".57" d="M330.44 156.7c-.74 1.2-14.74 6.02-35.37 9.6-14 2.12-32.24 3.94-55 3.96-21.64.02-39.3-1.52-52.7-3.33-21.65-3.4-32.82-8.12-36.96-9.8.4-.78.66-1.33 1.04-2.06 11.9 4.74 23.13 7.6 36.28 9.62 13.3 1.8 30.75 3.35 52.28 3.33 22.66-.03 40.7-2 54.62-4.06 21.15-3.4 32.7-7.8 34.33-9.84l1.5 2.58zm-4.06-7.6c-2.3 1.83-13.72 5.88-33.82 9.1-13.4 1.9-30.47 3.63-52.26 3.66-20.7.02-37.62-1.38-50.5-3.25-20.4-2.66-31.27-7.47-35.2-8.87l1.2-2c3.06 1.52 13.54 5.78 34.23 8.7 12.72 1.8 29.67 3.16 50.27 3.13 21.7-.02 38.55-1.77 51.88-3.68 20.2-2.78 31.08-7.95 32.73-9.25l1.48 2.46z" stroke-linejoin="round" stroke-linecap="round"/>
  <path fill="#ff0" fill-rule="evenodd" d="M140.88 205.66c18.6 10 59.9 15.04 99 15.4 35.59.05 81.95-5.5 99.3-14.7l-.5-10c-5.4 8.47-55.1 16.6-99.2 16.26-44.1-.33-85.03-7.14-98.68-15.95l.08 9"/>
  <path fill="#ff0" fill-rule="evenodd" d="M340.12 204.22v2.4c-2.6 3.1-18.95 7.8-39.44 11.13-15.6 2.4-35.92 4.2-61.26 4.2-24.07 0-43.26-1.72-58.15-4-23.52-3.43-38.57-9.43-41.6-11.22l.02-2.8c9.06 6.04 33.65 10.46 41.9 11.8 14.8 2.28 33.87 3.98 57.82 3.98 25.22 0 45.44-1.78 60.93-4.15 14.7-2.13 35.65-7.65 39.77-11.33zm0-8.5v2.4c-2.6 3.1-18.94 7.82-39.43 11.14-15.6 2.4-35.93 4.2-61.27 4.2-24.07 0-43.26-1.72-58.15-4-23.52-3.43-38.57-9.43-41.6-11.23l.02-2.78c9.07 6.03 33.66 10.45 41.9 11.8 14.8 2.27 33.88 3.97 57.83 3.97 25.22 0 45.44-1.8 60.93-4.17 14.7-2.12 35.65-7.64 39.77-11.32"/>
  <path fill="none" stroke="#000" stroke-width=".57" d="M340.12 204.22v2.4c-2.6 3.1-18.95 7.8-39.44 11.13-15.6 2.4-35.92 4.2-61.26 4.2-24.07 0-43.26-1.72-58.15-4-23.53-3.43-38.58-9.43-41.6-11.22l.02-2.8c9.06 6.04 33.65 10.46 41.9 11.8 14.8 2.28 33.87 3.98 57.82 3.98 25.22 0 45.44-1.78 60.93-4.15 14.7-2.13 35.65-7.65 39.77-11.33zm0-8.5v2.4c-2.6 3.1-18.94 7.82-39.43 11.14-15.6 2.4-35.93 4.2-61.27 4.2-24.07 0-43.26-1.72-58.15-4-23.53-3.44-38.58-9.44-41.6-11.23l.02-2.78c9.07 6.03 33.66 10.44 41.9 11.8 14.8 2.26 33.88 3.97 57.83 3.97 25.22 0 45.44-1.8 60.93-4.17 14.7-2.12 35.65-7.65 39.77-11.32z" stroke-linejoin="round" stroke-linecap="round"/>
  <path fill="#ff0" fill-rule="evenodd" d="M239.8 260.32c-42.78-.25-79.43-11.66-87.17-13.54l5.64 8.83c13.67 5.76 49.43 14.33 81.93 13.38 32.5-.95 60.9-3.46 80.93-13.2l5.78-9.17c-13.63 6.44-60.05 13.65-87.1 13.72"/>
  <path fill="#ff0" fill-rule="evenodd" d="M323.3 253.72c-.85 1.3-1.72 2.58-2.6 3.83-9.44 3.33-24.32 6.82-30.6 7.84-12.82 2.64-32.66 4.6-50.27 4.6-37.9-.56-68.9-7.98-83.5-14.3l-1.17-2.03.2-.3 2 .77c25.94 9.28 55.08 13 82.7 13.65 17.52.05 35.08-2.02 49.28-4.56 21.77-4.36 30.57-7.65 33.27-9.14l.7-.38zm5.02-8.28l.06.08c-.63 1.07-1.3 2.17-1.96 3.26-5.04 1.8-18.7 5.8-38.66 8.6-13.15 1.78-21.32 3.52-47.48 4.03-49-1.24-80.75-10.82-88.3-13.2l-1.1-2.13c28.4 7.4 57.42 12.6 89.4 13.12 23.93-.52 34.1-2.28 47.15-4.06 23.27-3.62 35-7.45 38.52-8.56l-.16-.2 2.52-.94"/>
  <path fill="none" stroke="#000" stroke-width=".55" d="M323.3 253.72c-.85 1.3-1.72 2.58-2.6 3.83-9.44 3.33-24.32 6.82-30.6 7.84-12.82 2.64-32.66 4.6-50.27 4.6-37.9-.56-68.9-7.98-83.5-14.3l-1.17-2.03.2-.3 2 .77c25.94 9.3 55.08 13 82.7 13.66 17.52.06 35.08-2 49.28-4.55 21.77-4.37 30.57-7.65 33.27-9.14l.7-.38zm5.02-8.28l.06.08c-.63 1.08-1.3 2.17-1.96 3.26-5.04 1.8-18.7 5.8-38.66 8.6-13.15 1.8-21.32 3.52-47.48 4.03-49-1.24-80.75-10.82-88.3-13.2l-1.1-2.13c28.4 7.42 57.42 12.6 89.4 13.12 23.93-.52 34.12-2.28 47.16-4.06 23.27-3.62 35-7.45 38.5-8.55-.03-.08-.1-.15-.14-.2l2.52-.96z" stroke-linejoin="round" stroke-linecap="round"/>
  <path fill="#ff0" fill-rule="evenodd" d="M328.83 197.76c.14 28.14-14.26 53.4-25.86 64.53-16.4 15.74-38.16 25.88-63.57 26.35-28.37.52-55.12-17.98-62.3-26.1-14.02-15.9-25.44-36.06-25.8-63.24 1.73-30.7 13.8-52.1 31.26-66.76s40.74-21.82 60.12-21.3c22.36.6 48.48 11.55 66.52 33.33 11.83 14.26 16.95 29.74 19.63 53.2zm-89.2-96.34c54.5 0 99.3 44.34 99.3 98.7s-44.8 98.7-99.3 98.7-98.9-44.33-98.9-98.7 44.43-98.7 98.9-98.7"/>
  <path fill="none" stroke="#000" stroke-width=".57" d="M239.9 101.08c54.54 0 99.02 44.48 99.02 99.02s-44.48 99.02-99 99.02c-54.54 0-99.02-44.48-99.02-99.02s44.48-99.02 99-99.02zm0 2.18c53.1 0 96.84 43.58 96.84 96.84 0 53.26-43.73 96.84-96.83 96.84s-96.82-43.58-96.82-96.84 43.73-96.84 96.83-96.84z" stroke-linejoin="round" stroke-linecap="round"/>
  <path fill="none" stroke="#000" stroke-width=".57" d="M240 109.3c49.72 0 90.68 40.83 90.68 90.7 0 49.9-40.96 90.72-90.7 90.72s-90.68-40.82-90.68-90.7c0-49.9 40.96-90.7 90.7-90.7zm0 2.2c48.53 0 88.5 39.83 88.5 88.5 0 48.7-39.97 88.54-88.5 88.54S151.47 248.7 151.47 200c0-48.67 39.97-88.5 88.5-88.5z" stroke-linejoin="round" stroke-linecap="round"/>
  <path fill="#ff0" fill-rule="evenodd" d="M243.12 99.53v1.1h-6.25v-1.07h-2.16v201.22h2.17v-.94h6.28v.97h2.16l-.02-201.27h-2.16z"/>
  <path fill="none" stroke="#000" stroke-width=".57" d="M237.02 100.68h6.02M237.03 299.64h6.05M243.13 99.55h2.16V300.8h-2.15l-.02-201.25zm-8.42 0h2.2V300.8h-2.2V99.55z" stroke-linejoin="round" stroke-linecap="round"/>
  <path fill="#ff0" fill-rule="evenodd" d="M140.54 195.88c12.42-11.43 58.23-18.84 98.87-18.65 40.66.2 88.8 8.54 99.26 18.4l.1 8.53c-8.76-8.25-46.16-18.08-99.27-18.2-53.12-.1-91.68 10-98.96 18.42v-8.5"/>
  <path fill="none" stroke="#000" stroke-width=".57" d="M140.52 196.28v7.36M339 196.58v7.36" stroke-linejoin="round" stroke-linecap="round"/>
  <path fill="#ff0" fill-rule="evenodd" d="M239.95 184.77c23.38-.04 46.07 2.22 64.06 5.72 18.58 3.7 31.65 8.35 36.12 13.56v2.58c-5.4-6.5-22.98-11.24-36.52-13.96-17.86-3.48-40.4-5.72-63.65-5.68-24.54.05-47.4 2.37-64.98 5.8-14.12 2.8-32.96 8.37-35.3 13.86v-2.7c1.28-3.78 15.3-9.47 34.98-13.4 17.73-3.46 40.62-5.74 65.3-5.8zm0-8.5c23.4-.03 46.08 2.23 64.07 5.73 18.57 3.7 31.64 8.35 36.1 13.57v2.58c-5.38-6.5-22.97-11.25-36.5-13.97-17.87-3.47-40.4-5.7-63.66-5.67-24.54.06-47.28 2.38-64.88 5.8-13.62 2.6-33.22 8.38-35.4 13.87v-2.7c1.28-3.75 15.6-9.63 34.98-13.4 17.73-3.46 40.62-5.75 65.3-5.8"/>
  <path fill="none" stroke="#000" stroke-width=".57" d="M239.95 184.77c23.38-.04 46.07 2.22 64.06 5.72 18.58 3.7 31.65 8.35 36.12 13.56v2.58c-5.4-6.5-22.98-11.25-36.52-13.97-17.86-3.47-40.4-5.7-63.65-5.67-24.54.05-47.4 2.37-64.98 5.8-14.12 2.8-32.95 8.37-35.3 13.86v-2.7c1.3-3.8 15.3-9.47 34.98-13.4 17.73-3.46 40.62-5.75 65.3-5.8zm0-8.5c23.4-.03 46.08 2.23 64.07 5.73 18.57 3.7 31.64 8.35 36.1 13.57v2.58c-5.38-6.5-22.97-11.25-36.5-13.97-17.87-3.47-40.4-5.7-63.66-5.67-24.54.06-47.28 2.38-64.88 5.8-13.62 2.6-33.22 8.38-35.4 13.87v-2.7c1.28-3.75 15.6-9.63 34.98-13.4 17.73-3.46 40.62-5.75 65.3-5.8z" stroke-linejoin="round" stroke-linecap="round"/>
  <path fill="#ff0" fill-rule="evenodd" d="M239.48 132.96c36.85-.18 69 5.15 83.7 12.7l5.36 9.26c-12.78-6.88-47.46-14.05-89-12.97-33.86.2-70.03 3.72-88.18 13.4l6.4-10.7c14.9-7.73 50.02-11.65 81.72-11.7"/>
  <path fill="none" stroke="#000" stroke-width=".57" d="M324.1 147.15l3.66 5.86" stroke-linejoin="round" stroke-linecap="round"/>
  <path fill="#ff0" fill-rule="evenodd" d="M239.97 140.62c21.02-.06 41.33 1.13 57.48 4.04 15.04 2.8 29.38 7 31.43 9.27l1.6 2.8c-5-3.25-17.4-6.88-33.35-9.9-16-3-36.3-4-57.2-3.95-23.72-.08-42.15 1.17-57.97 3.93-16.72 3.14-28.33 7.6-31.2 9.73l1.56-2.97c5.57-2.83 14.4-6.25 29.23-8.93 16.35-2.98 34.98-3.88 58.42-4zm0-8.48c20.1-.06 39.96 1.06 55.44 3.85 12.22 2.36 24.3 6.08 28.72 9.38l2.32 3.7c-3.95-4.4-18.83-8.57-31.97-10.9-15.36-2.65-34.4-3.7-54.5-3.87-21.12.07-40.63 1.37-55.76 4.12-14.43 2.75-23.75 6-27.7 8.54l2.05-3.08c5.44-2.87 14.23-5.5 25.3-7.65 15.25-2.77 34.88-4.04 56.1-4.1"/>
  <path fill="none" stroke="#000" stroke-width=".57" d="M239.97 140.62c21.02-.06 41.33 1.13 57.48 4.04 15.04 2.8 29.38 7 31.43 9.26l1.6 2.8c-5-3.24-17.4-6.87-33.35-9.9-16-3-36.3-4-57.2-3.94-23.72-.08-42.15 1.17-57.97 3.93-16.72 3.14-28.33 7.6-31.2 9.73l1.57-2.97c5.56-2.84 14.4-6.26 29.22-8.93 16.36-3 34.98-3.88 58.42-4zm0-8.48c20.1-.06 39.96 1.06 55.44 3.85 12.22 2.36 24.3 6.07 28.72 9.38l2.32 3.7c-3.95-4.4-18.83-8.57-31.97-10.9-15.36-2.65-34.4-3.7-54.5-3.87-21.12.07-40.62 1.37-55.76 4.12-14.43 2.75-23.75 6-27.7 8.54l2.05-3.08c5.44-2.87 14.23-5.5 25.3-7.65 15.25-2.78 34.88-4.04 56.1-4.1z" stroke-linejoin="round" stroke-linecap="round"/>
  <path fill="#ff0" fill-rule="evenodd" d="M289.15 241.26c-18.22-3.4-36.47-3.9-49.22-3.74-61.4.7-81.24 12.6-83.66 16.2l-4.6-7.48c15.64-11.33 49.08-17.68 88.6-17.03 20.5.34 38.22 1.7 53.1 4.6l-4.22 7.46"/>
  <path fill="none" stroke="#000" stroke-width=".57" d="M152.7 247.28l3 5.2" stroke-linejoin="round" stroke-linecap="round"/>
  <path fill="#ff0" fill-rule="evenodd" d="M239.58 236.46c17.08.25 33.85.96 50.03 3.98l-1.16 2.07c-15.03-2.77-31.05-3.83-48.8-3.74-22.66-.18-45.6 1.94-65.54 7.66-6.3 1.75-16.72 5.8-17.8 9.15l-1.15-1.92c.33-1.98 6.63-6.08 18.4-9.4 22.87-6.54 44.25-7.64 66.03-7.8zm.78-8.6c17.7.33 35.97 1.15 53.74 4.67l-1.23 2.16c-16.04-3.2-31.36-4.26-52.4-4.58-22.74.04-46.86 1.66-68.8 8.03-7.07 2.07-19.28 6.52-19.7 10.05l-1.16-2.06c.28-3.2 10.85-7.4 20.37-10.16 22.1-6.42 46.28-8.08 69.2-8.12"/>
  <path fill="none" stroke="#000" stroke-width=".55" d="M239.58 236.46c17.08.25 33.85.96 50.03 3.98l-1.16 2.07c-15.03-2.77-31.05-3.83-48.8-3.74-22.67-.18-45.6 1.94-65.54 7.66-6.3 1.76-16.72 5.8-17.8 9.15l-1.15-1.92c.33-1.98 6.63-6.08 18.4-9.4 22.87-6.54 44.25-7.64 66.03-7.8zm.78-8.6c17.7.33 35.97 1.15 53.74 4.67l-1.23 2.16c-16.04-3.2-31.36-4.26-52.4-4.58-22.75.04-46.86 1.66-68.8 8.03-7.07 2.06-19.3 6.52-19.7 10.05l-1.16-2.06c.28-3.2 10.85-7.4 20.37-10.16 22.1-6.42 46.27-8.07 69.2-8.12z" stroke-linejoin="round" stroke-linecap="round"/>
  <path fill="#ff0" fill-rule="evenodd" d="M156.9 144.52c30.42-.4 170.9 85.85 171.32 101.73l-8.7 13.34c-3.93-18.45-146.48-102.38-170-100.8l7.38-14.28"/>
  <path fill="none" stroke="#000" stroke-width=".57" d="M327.58 247.38l-7.38 11.45M156.67 145.27L149.8 158" stroke-linejoin="round" stroke-linecap="round"/>
  <path fill="#ff0" fill-rule="evenodd" d="M148.65 158.3c5.65-3.83 47.14 14.65 90.56 40.83 43.3 26.26 84.68 55.92 80.95 61.48l-1.23 1.94-.56.44c.12-.08.74-.84-.07-2.9-1.85-6.07-31.2-29.5-79.9-58.9-47.47-28.3-87.04-45.37-91-40.5l1.25-2.38zm180.44 88.92c3.56-7.05-34.93-36.04-82.64-64.27-48.8-27.66-84-43.95-90.42-39.1l-1.43 2.6c0 .15.06-.17.36-.4 1.17-1.02 3.1-.96 3.98-.97 11.07.16 42.67 14.7 87 40.13 19.44 11.32 82.08 51.5 81.84 62.8.02.97.08 1.17-.3 1.65l1.6-2.43"/>
  <path fill="none" stroke="#000" stroke-width=".57" d="M148.65 158.3c5.65-3.84 47.14 14.64 90.56 40.82 43.3 26.26 84.68 55.92 80.95 61.48l-1.23 1.93-.57.44c.13-.08.75-.84-.06-2.9-1.85-6.07-31.2-29.5-79.9-58.9-47.47-28.3-87.04-45.37-91-40.5l1.25-2.38zM329.1 247.2c3.56-7.06-34.93-36.05-82.64-64.28-48.8-27.66-84-43.95-90.42-39.1l-1.43 2.6c0 .15.06-.17.36-.4 1.17-1.02 3.1-.95 3.98-.97 11.07.17 42.67 14.7 87 40.13 19.44 11.32 82.08 51.5 81.84 62.8.02.96.08 1.16-.28 1.64l1.6-2.42z" stroke-linejoin="round" stroke-linecap="round"/>
  <path fill="#fff" fill-rule="evenodd" d="M180.6 211c0 16.28 6.66 31 17.46 41.75 10.8 10.78 25.5 17.58 41.8 17.58 16.4 0 31.25-6.65 42.02-17.4 10.77-10.72 17.45-25.54 17.45-41.87v-79.2l-118.74-.13V211"/>
  <path fill="none" stroke="#000" stroke-width=".67" d="M180.6 211c0 16.28 6.66 31 17.46 41.75 10.8 10.78 25.5 17.58 41.8 17.58 16.4 0 31.25-6.65 42.02-17.4 10.77-10.72 17.45-25.54 17.45-41.87v-79.2l-118.74-.13V211z"/>
  <path fill="red" fill-rule="evenodd" d="M182.82 211.12v.04c0 15.56 6.44 29.73 16.78 40 10.35 10.32 24.6 16.73 40.2 16.73 15.7 0 29.92-6.37 40.23-16.64s16.7-24.43 16.7-40.05v-76.8l-113.84-.03-.08 76.75m91.02-53.75v48.9l-.04 5.16c0 1.37-.08 2.92-.24 4.24-.92 7.73-4.48 14.46-9.74 19.7-6.17 6.14-14.67 9.95-24.05 9.95-9.33 0-17.64-3.94-23.83-10.1-6.35-6.32-10.03-15-10.03-23.95v-54.02l67.94.12"/>
  <path fill="none" stroke="#000" stroke-width=".51" d="M182.82 211.12v.04c0 15.56 6.44 29.73 16.77 40 10.35 10.32 24.6 16.73 40.2 16.73 15.7 0 29.92-6.37 40.23-16.64 10.3-10.27 16.7-24.43 16.7-40.04V134.4l-113.84-.03-.08 76.75m91.02-53.75v48.9l-.04 5.17c0 1.36-.08 2.9-.24 4.23-.92 7.73-4.48 14.47-9.74 19.7-6.17 6.14-14.67 9.95-24.05 9.95-9.33 0-17.64-3.94-23.83-10.1-6.35-6.32-10.03-15-10.03-23.95v-54.02l67.94.12z"/>
  <use id="c" width="600" height="400" xlink:href="#a" transform="translate(-20.75 -.04)"/>
  <use id="d" width="600" height="400" xlink:href="#b" transform="translate(-.07 51.8)"/>
  <use width="600" height="400" xlink:href="#c" transform="translate(-20.8 .05)"/>
  <use id="a" width="600" height="400" xlink:href="#d" transform="translate(20.82 -25.74)"/>
  <path id="b" fill="#039" d="M232.63 176.4c0 2.2.85 4.22 2.2 5.68 1.38 1.47 3.26 2.38 5.3 2.38 2.08 0 3.96-.9 5.32-2.36 1.35-1.46 2.2-3.48 2.2-5.7v-10.76l-15-.02-.02 10.77"/>
  <use width="600" height="400" xlink:href="#e" transform="translate(10.61)"/>
  <path fill="#ff0" fill-rule="evenodd" d="M190.2 154.43c.12-5.52 4.04-6.83 4.07-6.85.03-.02 4.23 1.4 4.22 6.9l-8.3-.05"/>
  <path fill="#ff0" fill-rule="evenodd" d="M186.8 147.68l-.67 6.35h4.14c.04-5.24 3.97-6.12 4.07-6.1.1 0 4 1.16 4.1 6.1h4.14l-.75-6.4-15.02.05"/>
  <path fill="none" stroke="#000" stroke-width=".5" d="M186.8 147.7l-.67 6.33h4.14c.04-5.24 3.97-6.1 4.07-6.1.1 0 4 1.17 4.1 6.1h4.14l-.75-6.38-15.02.04z"/>
  <path fill="#ff0" fill-rule="evenodd" d="M185.85 154.06h16.95c.35 0 .64.35.64.78 0 .43-.3.8-.64.8h-16.95c-.36 0-.65-.37-.65-.8 0-.43.3-.78.65-.78"/>
  <path fill="none" stroke="#000" stroke-width=".5" d="M185.85 154.06h16.95c.35 0 .65.35.65.78 0 .43-.3.8-.65.8h-16.95c-.36 0-.65-.37-.65-.8 0-.43.3-.78.65-.78z"/>
  <path fill="#ff0" fill-rule="evenodd" d="M192 154.03c.03-3.3 2.27-4.25 2.28-4.25 0 0 2.35.97 2.36 4.25H192"/>
  <path fill="none" stroke="#000" stroke-width=".5" d="M192 154.03c.03-3.3 2.27-4.25 2.28-4.25 0 0 2.35.97 2.36 4.25H192"/>
  <path fill="#ff0" fill-rule="evenodd" d="M186.2 145.06h16.26c.34 0 .62.32.62.7 0 .4-.28.7-.63.7h-16.24c-.33 0-.6-.3-.6-.7 0-.38.27-.7.6-.7"/>
  <path fill="none" stroke="#000" stroke-width=".5" d="M186.2 145.05h16.26c.34 0 .62.32.62.7 0 .4-.28.7-.63.7h-16.24c-.33 0-.6-.3-.6-.7 0-.38.27-.7.6-.7z"/>
  <path fill="#ff0" fill-rule="evenodd" d="M186.55 146.47h15.54c.32 0 .6.32.6.7 0 .4-.28.7-.6.7h-15.55c-.33 0-.6-.3-.6-.7 0-.38.27-.7.6-.7"/>
  <path fill="none" stroke="#000" stroke-width=".5" d="M186.55 146.47h15.54c.32 0 .58.32.58.7 0 .4-.26.7-.6.7h-15.53c-.33 0-.6-.3-.6-.7 0-.38.27-.7.6-.7z"/>
  <use width="600" height="400" xlink:href="#f" transform="translate(-5.28 -3.16)"/>
  <path fill="none" stroke="#000" stroke-width=".5" d="M191.57 135.88h1.23v.87h.9v-.9l1.25.02v.88h.9v-.9h1.25v2.02c0 .32-.25.53-.55.53h-4.4c-.3 0-.58-.24-.58-.53v-2z"/>
  <path fill="#ff0" fill-rule="evenodd" d="M196.2 138.57l.27 6.45h-4.3l.28-6.46h3.74"/>
  <path fill="none" stroke="#000" stroke-width=".5" d="M196.2 138.57l.27 6.45h-4.3l.28-6.47 3.74.02"/>
  <use id="f" width="600" height="400" xlink:href="#g" transform="translate(10.61)"/>
  <use width="600" height="400" xlink:href="#h" transform="translate(10.61)"/>
  <use width="600" height="400" xlink:href="#i" transform="translate(10.61 -.01)"/>
  <path id="g" fill="#ff0" fill-rule="evenodd" d="M186.3 139.04h1.2v.87h.88v-.88h1.23v.9h.9v-.9h1.22v2.02c0 .3-.25.52-.54.52h-4.32c-.3 0-.56-.24-.56-.53v-2"/>
  <path id="i" fill="none" stroke="#000" stroke-width=".5" d="M186.3 139.04h1.2v.88h.88v-.9h1.23v.9h.9v-.9h1.22v2.02c0 .3-.25.52-.54.52h-4.32c-.3 0-.56-.24-.56-.53v-2z"/>
  <path id="e" fill="#ff0" fill-rule="evenodd" d="M190.94 141.56l.13 3.48h-4.12l.1-3.48h3.9"/>
  <path id="h" fill="none" stroke="#000" stroke-width=".5" d="M190.94 141.56l.13 3.48h-4.12l.1-3.48h3.9z"/>
  <path fill-rule="evenodd" d="M193.9 140.6c-.03-.62.88-.62.87 0v1.55h-.87v-1.54"/>
  <use width="600" height="400" xlink:href="#j" transform="translate(10.64)"/>
  <path id="j" fill-rule="evenodd" d="M188.57 142.84c0-.6.84-.62.83 0v1.2h-.83v-1.2"/>
  <use width="600" height="400" xlink:href="#k" transform="translate(-45.2)"/>
  <use id="k" width="600" height="400" xlink:href="#l" transform="translate(90.92 -46.32)"/>
  <g id="l" transform="translate(0 46.32)">
    <use width="600" height="400" xlink:href="#e" transform="translate(10.61)"/>
    <path fill="#ff0" fill-rule="evenodd" d="M190.2 154.43c.12-5.52 4.04-6.83 4.07-6.85.03-.02 4.23 1.4 4.22 6.9l-8.3-.05"/>
    <path fill="#ff0" fill-rule="evenodd" d="M186.8 147.68l-.67 6.35h4.14c.04-5.24 3.97-6.12 4.07-6.1.1 0 4 1.16 4.1 6.1h4.14l-.75-6.4-15.02.05"/>
    <path fill="none" stroke="#000" stroke-width=".5" d="M186.8 147.7l-.67 6.33h4.14c.04-5.24 3.97-6.1 4.07-6.1.1 0 4 1.17 4.1 6.1h4.14l-.75-6.38-15.02.04z"/>
    <path fill="#ff0" fill-rule="evenodd" d="M185.85 154.06h16.95c.35 0 .64.35.64.78 0 .43-.3.8-.64.8h-16.95c-.36 0-.65-.37-.65-.8 0-.43.3-.78.65-.78"/>
    <path fill="none" stroke="#000" stroke-width=".5" d="M185.85 154.06h16.95c.35 0 .65.35.65.78 0 .43-.3.8-.65.8h-16.95c-.36 0-.65-.37-.65-.8 0-.43.3-.78.65-.78z"/>
    <path fill="#ff0" fill-rule="evenodd" d="M192 154.03c.03-3.3 2.27-4.25 2.28-4.25 0 0 2.35.97 2.36 4.25H192"/>
    <path fill="none" stroke="#000" stroke-width=".5" d="M192 154.03c.03-3.3 2.27-4.25 2.28-4.25 0 0 2.35.97 2.36 4.25H192"/>
    <path fill="#ff0" fill-rule="evenodd" d="M186.2 145.06h16.26c.34 0 .62.32.62.7 0 .4-.28.7-.63.7h-16.24c-.33 0-.6-.3-.6-.7 0-.38.27-.7.6-.7"/>
    <path fill="none" stroke="#000" stroke-width=".5" d="M186.2 145.05h16.26c.34 0 .62.32.62.7 0 .4-.28.7-.63.7h-16.24c-.33 0-.6-.3-.6-.7 0-.38.27-.7.6-.7z"/>
    <path fill="#ff0" fill-rule="evenodd" d="M186.55 146.47h15.54c.32 0 .6.32.6.7 0 .4-.28.7-.6.7h-15.55c-.33 0-.6-.3-.6-.7 0-.38.27-.7.6-.7"/>
    <path fill="none" stroke="#000" stroke-width=".5" d="M186.55 146.47h15.54c.32 0 .58.32.58.7 0 .4-.26.7-.6.7h-15.53c-.33 0-.6-.3-.6-.7 0-.38.27-.7.6-.7z"/>
    <use width="600" height="400" xlink:href="#f" transform="translate(-5.28 -3.16)"/>
    <path fill="none" stroke="#000" stroke-width=".5" d="M191.57 135.88h1.23v.87h.9v-.9l1.25.02v.88h.9v-.9h1.25v2.02c0 .32-.25.53-.55.53h-4.4c-.3 0-.58-.24-.58-.53v-2z"/>
    <path fill="#ff0" fill-rule="evenodd" d="M196.2 138.57l.27 6.45h-4.3l.28-6.46h3.74"/>
    <path fill="none" stroke="#000" stroke-width=".5" d="M196.2 138.57l.27 6.45h-4.3l.28-6.47 3.74.02"/>
    <use width="600" height="400" xlink:href="#g" transform="translate(10.61)"/>
    <use width="600" height="400" xlink:href="#h" transform="translate(10.61)"/>
    <use width="600" height="400" xlink:href="#i" transform="translate(10.61 -.01)"/>
    <path fill="#ff0" fill-rule="evenodd" d="M186.3 139.04h1.2v.87h.88v-.88h1.23v.9h.9v-.9h1.22v2.02c0 .3-.25.52-.54.52h-4.32c-.3 0-.56-.24-.56-.53v-2"/>
    <path fill="none" stroke="#000" stroke-width=".5" d="M186.3 139.04h1.2v.88h.88v-.9h1.23v.9h.9v-.9h1.22v2.02c0 .3-.25.52-.54.52h-4.32c-.3 0-.56-.24-.56-.53v-2z"/>
    <path fill="#ff0" fill-rule="evenodd" d="M190.94 141.56l.13 3.48h-4.12l.1-3.48h3.9"/>
    <path fill="none" stroke="#000" stroke-width=".5" d="M190.94 141.56l.13 3.48h-4.12l.1-3.48h3.9z"/>
    <path fill-rule="evenodd" d="M193.9 140.6c-.03-.62.88-.62.87 0v1.55h-.87v-1.54"/>
    <use width="600" height="400" xlink:href="#j" transform="translate(10.64)"/>
    <path fill-rule="evenodd" d="M188.57 142.84c0-.6.84-.62.83 0v1.2h-.83v-1.2"/>
  </g>
  <g transform="rotate(45 120.82 289.99)">
    <use width="600" height="400" xlink:href="#e" transform="translate(10.61)"/>
    <path fill="#ff0" fill-rule="evenodd" d="M190.2 154.43c.12-5.52 4.04-6.83 4.07-6.85.03-.02 4.23 1.4 4.22 6.9l-8.3-.05"/>
    <path fill="#ff0" fill-rule="evenodd" d="M186.8 147.68l-.67 6.35h4.14c.04-5.24 3.97-6.12 4.07-6.1.1 0 4 1.16 4.1 6.1h4.14l-.75-6.4-15.02.05"/>
    <path fill="none" stroke="#000" stroke-width=".5" d="M186.8 147.7l-.67 6.33h4.14c.04-5.24 3.97-6.1 4.07-6.1.1 0 4 1.17 4.1 6.1h4.14l-.75-6.38-15.02.04z"/>
    <path fill="#ff0" fill-rule="evenodd" d="M185.85 154.06h16.95c.35 0 .64.35.64.78 0 .43-.3.8-.64.8h-16.95c-.36 0-.65-.37-.65-.8 0-.43.3-.78.65-.78"/>
    <path fill="none" stroke="#000" stroke-width=".5" d="M185.85 154.06h16.95c.35 0 .65.35.65.78 0 .43-.3.8-.65.8h-16.95c-.36 0-.65-.37-.65-.8 0-.43.3-.78.65-.78z"/>
    <path fill="#ff0" fill-rule="evenodd" d="M192 154.03c.03-3.3 2.27-4.25 2.28-4.25 0 0 2.35.97 2.36 4.25H192"/>
    <path fill="none" stroke="#000" stroke-width=".5" d="M192 154.03c.03-3.3 2.27-4.25 2.28-4.25 0 0 2.35.97 2.36 4.25H192"/>
    <path fill="#ff0" fill-rule="evenodd" d="M186.2 145.06h16.26c.34 0 .62.32.62.7 0 .4-.28.7-.63.7h-16.24c-.33 0-.6-.3-.6-.7 0-.38.27-.7.6-.7"/>
    <path fill="none" stroke="#000" stroke-width=".5" d="M186.2 145.05h16.26c.34 0 .62.32.62.7 0 .4-.28.7-.63.7h-16.24c-.33 0-.6-.3-.6-.7 0-.38.27-.7.6-.7z"/>
    <path fill="#ff0" fill-rule="evenodd" d="M186.55 146.47h15.54c.32 0 .6.32.6.7 0 .4-.28.7-.6.7h-15.55c-.33 0-.6-.3-.6-.7 0-.38.27-.7.6-.7"/>
    <path fill="none" stroke="#000" stroke-width=".5" d="M186.55 146.47h15.54c.32 0 .58.32.58.7 0 .4-.26.7-.6.7h-15.53c-.33 0-.6-.3-.6-.7 0-.38.27-.7.6-.7z"/>
    <use width="600" height="400" xlink:href="#f" transform="translate(-5.28 -3.16)"/>
    <path fill="none" stroke="#000" stroke-width=".5" d="M191.57 135.88h1.23v.87h.9v-.9l1.25.02v.88h.9v-.9h1.25v2.02c0 .32-.25.53-.55.53h-4.4c-.3 0-.58-.24-.58-.53v-2z"/>
    <path fill="#ff0" fill-rule="evenodd" d="M196.2 138.57l.27 6.45h-4.3l.28-6.46h3.74"/>
    <path fill="none" stroke="#000" stroke-width=".5" d="M196.2 138.57l.27 6.45h-4.3l.28-6.47 3.74.02"/>
    <use width="600" height="400" xlink:href="#g" transform="translate(10.61)"/>
    <use width="600" height="400" xlink:href="#h" transform="translate(10.61)"/>
    <use width="600" height="400" xlink:href="#i" transform="translate(10.61 -.01)"/>
    <path fill="#ff0" fill-rule="evenodd" d="M186.3 139.04h1.2v.87h.88v-.88h1.23v.9h.9v-.9h1.22v2.02c0 .3-.25.52-.54.52h-4.32c-.3 0-.56-.24-.56-.53v-2"/>
    <path fill="none" stroke="#000" stroke-width=".5" d="M186.3 139.04h1.2v.88h.88v-.9h1.23v.9h.9v-.9h1.22v2.02c0 .3-.25.52-.54.52h-4.32c-.3 0-.56-.24-.56-.53v-2z"/>
    <path fill="#ff0" fill-rule="evenodd" d="M190.94 141.56l.13 3.48h-4.12l.1-3.48h3.9"/>
    <path fill="none" stroke="#000" stroke-width=".5" d="M190.94 141.56l.13 3.48h-4.12l.1-3.48h3.9z"/>
    <path fill-rule="evenodd" d="M193.9 140.6c-.03-.62.88-.62.87 0v1.55h-.87v-1.54"/>
    <use width="600" height="400" xlink:href="#j" transform="translate(10.64)"/>
    <path fill-rule="evenodd" d="M188.57 142.84c0-.6.84-.62.83 0v1.2h-.83v-1.2"/>
  </g>
  <g transform="translate(90.85 46.32)">
    <use width="600" height="400" xlink:href="#e" transform="translate(10.61)"/>
    <path fill="#ff0" fill-rule="evenodd" d="M190.2 154.43c.12-5.52 4.04-6.83 4.07-6.85.03-.02 4.23 1.4 4.22 6.9l-8.3-.05"/>
    <path fill="#ff0" fill-rule="evenodd" d="M186.8 147.68l-.67 6.35h4.14c.04-5.24 3.97-6.12 4.07-6.1.1 0 4 1.16 4.1 6.1h4.14l-.75-6.4-15.02.05"/>
    <path fill="none" stroke="#000" stroke-width=".5" d="M186.8 147.7l-.67 6.33h4.14c.04-5.24 3.97-6.1 4.07-6.1.1 0 4 1.17 4.1 6.1h4.14l-.75-6.38-15.02.04z"/>
    <path fill="#ff0" fill-rule="evenodd" d="M185.85 154.06h16.95c.35 0 .64.35.64.78 0 .43-.3.8-.64.8h-16.95c-.36 0-.65-.37-.65-.8 0-.43.3-.78.65-.78"/>
    <path fill="none" stroke="#000" stroke-width=".5" d="M185.85 154.06h16.95c.35 0 .65.35.65.78 0 .43-.3.8-.65.8h-16.95c-.36 0-.65-.37-.65-.8 0-.43.3-.78.65-.78z"/>
    <path fill="#ff0" fill-rule="evenodd" d="M192 154.03c.03-3.3 2.27-4.25 2.28-4.25 0 0 2.35.97 2.36 4.25H192"/>
    <path fill="none" stroke="#000" stroke-width=".5" d="M192 154.03c.03-3.3 2.27-4.25 2.28-4.25 0 0 2.35.97 2.36 4.25H192"/>
    <path fill="#ff0" fill-rule="evenodd" d="M186.2 145.06h16.26c.34 0 .62.32.62.7 0 .4-.28.7-.63.7h-16.24c-.33 0-.6-.3-.6-.7 0-.38.27-.7.6-.7"/>
    <path fill="none" stroke="#000" stroke-width=".5" d="M186.2 145.05h16.26c.34 0 .62.32.62.7 0 .4-.28.7-.63.7h-16.24c-.33 0-.6-.3-.6-.7 0-.38.27-.7.6-.7z"/>
    <path fill="#ff0" fill-rule="evenodd" d="M186.55 146.47h15.54c.32 0 .6.32.6.7 0 .4-.28.7-.6.7h-15.55c-.33 0-.6-.3-.6-.7 0-.38.27-.7.6-.7"/>
    <path fill="none" stroke="#000" stroke-width=".5" d="M186.55 146.47h15.54c.32 0 .58.32.58.7 0 .4-.26.7-.6.7h-15.53c-.33 0-.6-.3-.6-.7 0-.38.27-.7.6-.7z"/>
    <use width="600" height="400" xlink:href="#f" transform="translate(-5.28 -3.16)"/>
    <path fill="none" stroke="#000" stroke-width=".5" d="M191.57 135.88h1.23v.87h.9v-.9l1.25.02v.88h.9v-.9h1.25v2.02c0 .32-.25.53-.55.53h-4.4c-.3 0-.58-.24-.58-.53v-2z"/>
    <path fill="#ff0" fill-rule="evenodd" d="M196.2 138.57l.27 6.45h-4.3l.28-6.46h3.74"/>
    <path fill="none" stroke="#000" stroke-width=".5" d="M196.2 138.57l.27 6.45h-4.3l.28-6.47 3.74.02"/>
    <use width="600" height="400" xlink:href="#g" transform="translate(10.61)"/>
    <use width="600" height="400" xlink:href="#h" transform="translate(10.61)"/>
    <use width="600" height="400" xlink:href="#i" transform="translate(10.61 -.01)"/>
    <path fill="#ff0" fill-rule="evenodd" d="M186.3 139.04h1.2v.87h.88v-.88h1.23v.9h.9v-.9h1.22v2.02c0 .3-.25.52-.54.52h-4.32c-.3 0-.56-.24-.56-.53v-2"/>
    <path fill="none" stroke="#000" stroke-width=".5" d="M186.3 139.04h1.2v.88h.88v-.9h1.23v.9h.9v-.9h1.22v2.02c0 .3-.25.52-.54.52h-4.32c-.3 0-.56-.24-.56-.53v-2z"/>
    <path fill="#ff0" fill-rule="evenodd" d="M190.94 141.56l.13 3.48h-4.12l.1-3.48h3.9"/>
    <path fill="none" stroke="#000" stroke-width=".5" d="M190.94 141.56l.13 3.48h-4.12l.1-3.48h3.9z"/>
    <path fill-rule="evenodd" d="M193.9 140.6c-.03-.62.88-.62.87 0v1.55h-.87v-1.54"/>
    <use width="600" height="400" xlink:href="#j" transform="translate(10.64)"/>
    <path fill-rule="evenodd" d="M188.57 142.84c0-.6.84-.62.83 0v1.2h-.83v-1.2"/>
  </g>
  <use width="600" height="400" xlink:href="#e" transform="rotate(-45 308.03 167.13)"/>
  <path fill="#ff0" fill-rule="evenodd" d="M208.22 248.98c-3.8-4-1.96-7.7-1.96-7.73 0-.03 4-2 7.86 1.9l-5.9 5.83"/>
  <path fill="#ff0" fill-rule="evenodd" d="M201.06 246.6l4 4.96 2.94-2.92c-3.68-3.74-1.52-7.14-1.44-7.2.06-.06 3.64-2 7.2 1.43l2.95-2.94-5.04-4-10.6 10.66"/>
  <path fill="none" stroke="#000" stroke-width=".5" d="M201.06 246.6l4 4.97 2.94-2.92c-3.7-3.74-1.52-7.14-1.44-7.2.06-.06 3.64-2 7.2 1.43l2.95-2.94-5.05-4-10.6 10.66z"/>
  <path fill="#ff0" fill-rule="evenodd" d="M204.9 251.78l11.97-11.98c.25-.25.7-.2 1 .1.32.3.36.75.1 1l-11.97 12c-.26.24-.7.2-1-.1-.32-.3-.36-.77-.1-1.02"/>
  <path fill="none" stroke="#000" stroke-width=".5" d="M204.9 251.78l11.97-11.98c.26-.26.7-.2 1.02.1.3.3.33.75.08 1l-11.98 12c-.26.24-.7.2-1-.1-.32-.3-.36-.77-.1-1.02z"/>
  <path fill="#ff0" fill-rule="evenodd" d="M209.22 247.4c-2.33-2.36-1.4-4.6-1.4-4.6s2.34-.98 4.68 1.32l-3.28 3.28"/>
  <path fill="none" stroke="#000" stroke-width=".5" d="M209.22 247.4c-2.33-2.36-1.4-4.6-1.4-4.6s2.34-.98 4.68 1.32l-3.28 3.28"/>
  <path fill="#ff0" fill-rule="evenodd" d="M198.77 245.16l11.5-11.5c.23-.23.65-.2.93.07.27.27.3.7.05.94l-11.48 11.5c-.25.23-.67.2-.94-.07-.28-.28-.3-.7-.06-.94"/>
  <path fill="none" stroke="#000" stroke-width=".5" d="M198.77 245.16l11.5-11.5c.23-.23.65-.2.93.07.27.27.3.7.05.94l-11.48 11.5c-.25.23-.67.2-.94-.07-.28-.27-.3-.7-.06-.94z"/>
  <path fill="#ff0" fill-rule="evenodd" d="M200 245.9l11-10.98c.23-.23.64-.2.92.08.27.27.3.7.07.92l-11 11c-.23.22-.64.18-.9-.1-.3-.27-.32-.68-.1-.9"/>
  <path fill="none" stroke="#000" stroke-width=".5" d="M200 245.9l11-10.98c.23-.23.64-.2.92.08.27.27.3.7.07.92l-11 11c-.23.22-.64.18-.9-.1-.3-.27-.32-.68-.1-.9z"/>
  <use width="600" height="400" xlink:href="#f" transform="rotate(-45 312.15 187.89)"/>
  <path fill="none" stroke="#000" stroke-width=".5" d="M196.08 234.88l.87-.87.6.63.65-.63-.63-.63.9-.9.62.64.62-.63-.63-.63.88-.9 1.42 1.44c.23.22.2.55-.02.75l-3.12 3.12c-.2.2-.57.24-.77.03l-1.42-1.4z"/>
  <path fill="#ff0" fill-rule="evenodd" d="M201.25 233.5l4.76 4.38-3.04 3.03-4.36-4.75 2.65-2.64"/>
  <path fill="none" stroke="#000" stroke-width=".5" d="M201.25 233.52l4.76 4.37-3.05 3.02-4.36-4.77 2.65-2.63"/>
  <use width="600" height="400" xlink:href="#g" transform="rotate(-45 308.03 167.13)"/>
  <use width="600" height="400" xlink:href="#h" transform="rotate(-45 308.03 167.13)"/>
  <use width="600" height="400" xlink:href="#i" transform="rotate(-45 308.01 167.14)"/>
  <path fill="#ff0" fill-rule="evenodd" d="M194.6 240.84l.84-.85.62.6.62-.6-.63-.64.87-.87.63.62.62-.62-.63-.63.87-.87 1.43 1.42c.22.22.2.55 0 .75l-3.07 3.05c-.2.2-.56.23-.76.02l-1.4-1.4"/>
  <path fill="none" stroke="#000" stroke-width=".5" d="M194.6 240.84l.84-.85.62.6.62-.6-.63-.64.87-.87.63.62.62-.62-.63-.63.87-.87 1.43 1.42c.22.22.2.55 0 .75l-3.07 3.05c-.2.2-.56.23-.76.02l-1.4-1.4z"/>
  <path fill="#ff0" fill-rule="evenodd" d="M199.65 239.34l2.55 2.37-2.9 2.93-2.4-2.55 2.75-2.74"/>
  <path fill="none" stroke="#000" stroke-width=".5" d="M199.65 239.34l2.55 2.37-2.9 2.92-2.4-2.54 2.75-2.74z"/>
  <path fill-rule="evenodd" d="M201.07 236.58c-.46-.42.17-1.07.6-.6l1.1 1.07-.6.62-1.1-1.1"/>
  <use width="600" height="400" xlink:href="#j" transform="rotate(-45 308.01 167.1)"/>
  <path fill-rule="evenodd" d="M198.88 241.93c-.43-.43.15-1.03.58-.58l.84.84-.58.57-.84-.84"/>
  <use width="600" height="400" xlink:href="#m" transform="translate(-20.82 25.74)"/>
  <use width="600" height="400" xlink:href="#m" transform="translate(-29.06 25.75)"/>
  <use width="600" height="400" xlink:href="#m" transform="translate(-24.98 21.57)"/>
  <use width="600" height="400" xlink:href="#m" transform="translate(-20.81 17.58)"/>
  <path id="m" fill="#fff" d="M265.13 202.46c-.82 0-1.5.67-1.5 1.5 0 .8.68 1.47 1.5 1.47s1.5-.67 1.5-1.48c0-.82-.68-1.5-1.5-1.5"/>
  <use id="n" width="600" height="400" xlink:href="#m" transform="translate(-8.11 .01)"/>
  <use id="o" width="600" height="400" xlink:href="#n" transform="translate(3.96 -4.18)"/>
  <use id="p" width="600" height="400" xlink:href="#o" transform="translate(4.17 -4)"/>
  <use id="q" width="600" height="400" xlink:href="#p" transform="translate(-8.14 -.01)"/>
  <use id="r" width="600" height="400" xlink:href="#q" transform="translate(-12.62 8.13)"/>
  <use id="s" width="600" height="400" xlink:href="#r" transform="translate(-8.31 .01)"/>
  <use id="t" width="600" height="400" xlink:href="#s" transform="translate(4.15 -4.18)"/>
  <use id="u" width="600" height="400" xlink:href="#t" transform="translate(4.17 -3.99)"/>
  <use id="v" width="600" height="400" xlink:href="#u" transform="translate(-8.32 -.01)"/>
  <use id="w" width="600" height="400" xlink:href="#v" transform="translate(-12.49 8.22)"/>
  <use id="x" width="600" height="400" xlink:href="#w" transform="translate(-8.11 .01)"/>
  <use id="y" width="600" height="400" xlink:href="#x" transform="translate(3.96 -4.18)"/>
  <use width="600" height="400" xlink:href="#y" transform="translate(4.17 -3.99)"/>
  <use width="600" height="400" xlink:href="#m" transform="translate(-29.06 17.57)"/>
  <path fill="#ff0" d="M215.45 194.3c-.82 0-1.5.67-1.5 1.5 0 .8.68 1.47 1.5 1.47s1.5-.67 1.5-1.48-.68-1.5-1.5-1.5"/>
  <use width="600" height="400" xlink:href="#m" transform="translate(-29.06 -34.23)"/>
  <use width="600" height="400" xlink:href="#m" transform="translate(-20.92 -34.23)"/>
  <use width="600" height="400" xlink:href="#m" transform="translate(-25.08 -30.23)"/>
  <use width="600" height="400" xlink:href="#m" transform="translate(-20.93 -26.06)"/>
  <use width="600" height="400" xlink:href="#m" transform="translate(-29.06 -26.05)"/>
  <use width="600" height="400" xlink:href="#m" transform="translate(-49.67 -8.16)"/>
</svg>
