<svg xmlns="http://www.w3.org/2000/svg" height="179.98" width="257.44">
  <path d="M0 60.37h257.44V.47H0v59.9z" fill="#fff"/>
  <path d="M0 179.97h257.44v-59.7H0v59.7z" fill="#ed1b2d"/>
  <path d="M0 120.26h257.44v-59.9H0v59.9z" fill="#006ab6"/>
  <path d="M55 18.45c8.8 0 21.45 2.37 30.44 6.74L83.7 53.9c-1 16.34-7.75 29.95-28.7 36.43-20.97-6.48-27.7-20.1-28.7-36.44l-1.76-28.7c9-4.38 21.65-6.75 30.45-6.75" fill="#ed1b2d"/>
  <path d="M55 18.45c8.04 0 19.38 2.02 28.12 5.7 0 0 .06-.38-1.78 29.32-1 16.16-7.3 28.2-26.35 34.37-19.06-6.16-25.35-18.2-26.36-34.37-1.84-29.7-1.78-29.32-1.78-29.32 8.75-3.68 20.08-5.7 28.13-5.7" fill="#006ab6"/>
  <path d="M55 73.56c3.76 0 3.76-1.9 7.45-1.9 3.7 0 3.7 1.9 7.47 1.9 1.42 0 2.3-.27 3.06-.6.65-.93 1.24-1.88 1.77-2.86-1.44.57-2.25 1.46-4.83 1.46-3.78 0-3.78-1.9-7.47-1.9-3.7 0-3.7 1.9-7.46 1.9-3.78 0-3.78-1.9-7.47-1.9-3.7 0-3.7 1.9-7.47 1.9-2.58 0-3.4-.9-4.83-1.46.53.98 1.12 1.93 1.77 2.85.75.34 1.64.6 3.06.6 3.78 0 3.78-1.9 7.47-1.9 3.7 0 3.7 1.9 7.46 1.9M55 85.34c7.17-2.4 12.33-5.8 15.97-9.84-.32.03-.66.05-1.05.05-3.78 0-3.78-1.9-7.47-1.9-3.7 0-3.7 1.9-7.46 1.9-3.78 0-3.78-1.9-7.47-1.9-3.7 0-3.7 1.9-7.47 1.9-.4 0-.73-.02-1.05-.05 3.65 4.05 8.8 7.43 16 9.84M55 69.56c3.76 0 3.76-1.9 7.45-1.9 3.7 0 3.7 1.9 7.47 1.9 2.04 0 4.03-.86 5.17-2 1.7-1.7 2.2-3.28 2.62-5.44L66.35 48.3 61.8 53.8 55 41.08l-6.83 12.74-4.54-5.53L32.26 62.1c.4 2.16.92 3.73 2.63 5.44 1.13 1.14 3.12 2 5.16 2 3.78 0 3.78-1.9 7.47-1.9 3.7 0 3.7 1.9 7.46 1.9" fill="#fff"/>
  <path d="M63.1 27.94l.85-1.76 1.95.15-1.1-1.64 1.1-1.64-1.95.14-.85-1.75-.85 1.75-1.95-.14 1.1 1.63-1.1 1.62 1.95-.14.85 1.76M46.88 27.94l-.85-1.76-1.95.15 1.1-1.64-1.1-1.64 1.95.14.85-1.75.85 1.75 1.95-.14-1.1 1.63 1.1 1.62-1.95-.14-.85 1.76M55 37.73l-.86-1.75-1.95.13 1.1-1.6-1.1-1.64 1.94.13.85-1.76.84 1.75 1.95-.14-1.1 1.63 1.1 1.6-1.96-.12-.85 1.75" fill="#fff100"/>
</svg>
