<svg xmlns="http://www.w3.org/2000/svg" width="257.44" height="179.98">
  <defs>
    <clipPath id="a">
      <path d="M723.7 359.95C610.8 417 449.28 530.18 449.28 754.1c0 223.9 10.22 325.74 10.22 325.74h528.4S998.14 978 998.14 754.1c0-223.92-161.52-337.1-274.43-394.15z"/>
    </clipPath>
  </defs>
  <g transform="matrix(.13 0 0 -.13 0 179.97)">
    <path fill="#ee3632" d="M0 0h2059.52v1439.8H0V0z"/>
    <path fill="#2658a7" d="M0 479.94h2059.52v959.85H0V479.93z"/>
    <path fill="#fff" d="M0 959.86h2059.52v479.93H0V959.85z"/>
    <path fill="#fff" d="M723.7 327.55C600.63 389.72 424.6 513.1 424.6 757.18c0 244.07 11.13 355.06 11.13 355.06h575.95s11.14-111 11.14-355.06c0-244.1-176.04-367.46-299.13-429.63"/>
    <path fill="#ee3632" d="M723.7 359.95C610.8 417 449.28 530.18 449.28 754.1c0 223.9 10.22 325.74 10.22 325.74h528.4S998.14 978 998.14 754.1c0-223.92-161.52-337.1-274.43-394.15"/>
    <path fill="#fff" d="M747.85 637.15h-48.3v123.68c-34.45.46-94.6.1-143.32-17 0 0 1.4 19.94 1.4 43.15 0 23.22-1.4 43.15-1.4 43.15 53.1-18.64 112.76-17.38 143.33-16.86v77.67c-27.87.26-68.02-1.14-113.4-17.07 0 0 1.38 19.93 1.38 43.15 0 23.2-1.4 43.15-1.4 43.15 45.34-15.9 85.44-17.32 113.3-17.07-1.44 49.18-15.1 111.17-15.1 111.17s28.12-2.3 39.35-2.3l24.15-414.82"/>
    <path fill="#fff" d="M699.55 637.15h48.3v123.68c34.44.46 94.6.1 143.32-17 0 0-1.4 19.94-1.4 43.15 0 23.22 1.4 43.15 1.4 43.15-53.1-18.64-112.76-17.38-143.33-16.86v77.67c27.86.26 68.02-1.14 113.4-17.07 0 0-1.4 19.93-1.4 43.15 0 23.2 1.4 43.15 1.4 43.15-45.32-15.9-85.42-17.32-113.28-17.07 1.43 49.18 15.1 111.17 15.1 111.17s-28.12-2.3-39.36-2.3l-24.15-414.82"/>
    <g clip-path="url(#a)">
      <path fill="#2658a7" d="M718.73 286.5L484.78 505.16s29.9 101.44 88.28 101.44c46.4 0 63.32-39.22 63.32-39.22s30.46 82.7 87.32 82.7c56.86 0 87.33-82.7 87.33-82.7s16.92 39.23 63.32 39.23c58.38 0 88.28-101.43 88.28-101.43L718.73 286.5"/>
    </g>
  </g>
</svg>
