<svg xmlns="http://www.w3.org/2000/svg" width="257.44" height="179.98">
  <path fill="#eb2724" d="M0 179.97h257.44V0H0v179.97z"/>
  <path fill="#fff" d="M90.42 44.9c24.8 0 44.9 20.1 44.9 44.9 0 24.8-20.1 44.9-44.9 44.9-24.8 0-44.9-20.1-44.9-44.9 0-24.8 20.1-44.9 44.9-44.9"/>
  <path fill="#eb2724" d="M101.64 53.88c19.84 0 35.92 16.1 35.92 35.93 0 19.85-16.08 35.93-35.92 35.93-19.84 0-35.92-16.08-35.92-35.9 0-19.85 16.08-35.94 35.92-35.94"/>
  <path fill="#fff" d="M125.96 89.8l40.62 13.2-25.1-34.55v42.7l25.1-34.54-40.62 13.2"/>
</svg>
