<?xml version="1.0" encoding="UTF-8" standalone="no"?>
<svg
   xmlns:dc="http://purl.org/dc/elements/1.1/"
   xmlns:cc="http://creativecommons.org/ns#"
   xmlns:rdf="http://www.w3.org/1999/02/22-rdf-syntax-ns#"
   xmlns:svg="http://www.w3.org/2000/svg"
   xmlns="http://www.w3.org/2000/svg"
   viewBox="0 0 257.4375 179.97501"
   height="179.97501"
   width="257.4375"
   xml:space="preserve"
   version="1.1"
   id="svg2"><metadata
     id="metadata8"><rdf:RDF><cc:Work
         rdf:about=""><dc:format>image/svg+xml</dc:format><dc:type
           rdf:resource="http://purl.org/dc/dcmitype/StillImage" /></cc:Work></rdf:RDF></metadata><defs
     id="defs6" /><g
     transform="matrix(1.25,0,0,-1.25,0,179.975)"
     id="g10"><g
       transform="scale(0.1,0.1)"
       id="g12"><path
         id="path14"
         style="fill:#ed174b;fill-opacity:1;fill-rule:nonzero;stroke:none"
         d="m 0,0 2059.52,0 0,1439.79 L 0,1439.79 0,0 Z" /><path
         id="path16"
         style="fill:#0067a5;fill-opacity:1;fill-rule:nonzero;stroke:none"
         d="m 0,722.25 1076.3,0 0,717.539 -1076.3,0 0,-717.539 z" /><path
         id="path18"
         style="fill:#ffffff;fill-opacity:1;fill-rule:nonzero;stroke:none"
         d="m 537.973,946.98 c 74.062,0 134.105,60.05 134.105,134.11 0,74.05 -60.043,134.11 -134.105,134.11 -74.055,0 -134.102,-60.06 -134.102,-134.11 0,-74.06 60.047,-134.11 134.102,-134.11" /><path
         id="path20"
         style="fill:#ffffff;fill-opacity:1;fill-rule:nonzero;stroke:none"
         d="m 569.449,1232.13 -31.476,117.44 -31.547,-117.73 c 16.601,4.02 41.832,4.95 63.023,0.29" /><path
         id="path22"
         style="fill:#ffffff;fill-opacity:1;fill-rule:nonzero;stroke:none"
         d="m 489.703,1227.63 -85.969,85.97 31.555,-117.72 c 12.356,11.77 33.734,25.19 54.414,31.75" /><path
         id="path24"
         style="fill:#ffffff;fill-opacity:1;fill-rule:nonzero;stroke:none"
         d="m 422.906,1183.86 -117.441,31.47 86.18,-86.19 c 4.82,16.39 16.621,38.7 31.261,54.72" /><path
         id="path26"
         style="fill:#ffffff;fill-opacity:1;fill-rule:nonzero;stroke:none"
         d="m 386.938,1112.55 -117.446,-31.46 117.735,-31.55 c -4.028,16.6 -4.961,41.83 -0.289,63.01" /><path
         id="path28"
         style="fill:#ffffff;fill-opacity:1;fill-rule:nonzero;stroke:none"
         d="m 391.43,1032.82 -85.965,-85.98 117.734,31.551 c -11.793,12.363 -25.207,33.749 -31.769,54.429" /><path
         id="path30"
         style="fill:#ffffff;fill-opacity:1;fill-rule:nonzero;stroke:none"
         d="m 435.211,966.016 -31.477,-117.457 86.184,86.199 c -16.383,4.816 -38.691,16.625 -54.707,31.258" /><path
         id="path32"
         style="fill:#ffffff;fill-opacity:1;fill-rule:nonzero;stroke:none"
         d="m 506.5,930.035 31.473,-117.441 31.554,117.734 c -16.601,-4.015 -41.828,-4.953 -63.027,-0.293" /><path
         id="path34"
         style="fill:#ffffff;fill-opacity:1;fill-rule:nonzero;stroke:none"
         d="m 586.246,934.547 85.973,-85.988 -31.543,117.746 C 628.305,954.52 606.934,941.09 586.246,934.547" /><path
         id="path36"
         style="fill:#ffffff;fill-opacity:1;fill-rule:nonzero;stroke:none"
         d="m 653.043,978.313 117.445,-31.477 -86.187,86.194 c -4.809,-16.39 -16.621,-38.698 -31.258,-54.717" /><path
         id="path38"
         style="fill:#ffffff;fill-opacity:1;fill-rule:nonzero;stroke:none"
         d="m 689.023,1049.62 117.442,31.47 -117.735,31.54 c 4.02,-16.6 4.958,-41.83 0.293,-63.01" /><path
         id="path40"
         style="fill:#ffffff;fill-opacity:1;fill-rule:nonzero;stroke:none"
         d="m 684.516,1129.35 85.98,85.98 -117.73,-31.54 c 11.785,-12.37 25.199,-33.75 31.75,-54.44" /><path
         id="path42"
         style="fill:#ffffff;fill-opacity:1;fill-rule:nonzero;stroke:none"
         d="m 640.754,1196.16 31.473,117.45 -86.196,-86.19 c 16.391,-4.81 38.703,-16.62 54.723,-31.26" /></g></g></svg>